<?xml version="1.0" encoding="UTF-8"?>
<svg xmlns="http://www.w3.org/2000/svg" version="1.1" viewBox="0 0 3000 2000">
  <!-- Generator: Adobe Illustrator 29.3.1, SVG Export Plug-In . SVG Version: 2.1.0 Build 151)  -->
  <defs>
    <style>
      .st0 {
        fill: #231f20;
        mix-blend-mode: darken;
      }

      .st0, .st1, .st2, .st3 {
        opacity: .2;
      }

      .st1, .st2 {
        fill: #F4F2F0;
      }

      .st4 {
        opacity: .2;
      }

      .st5 {
        fill: #727473;
      }

      .st6 {
        fill: #273B5B;
      }

      .st7 {
        fill: #111827;
      }

      .st8 {
        fill: #BF5E26;
      }

      .st9 {
        fill: #36649A;
      }

      .st10 {
        fill: #e9ebef;
        opacity: .4;
      }

      .st11 {
        opacity: .3;
      }

      .st12 {
        fill: #36649A;
      }

      .st13, .st14 {
        fill: none;
      }

      .st14 {
        opacity: .3;
      }

      .st2, .st15 {
        mix-blend-mode: overlay;
      }

      .st16 {
        fill: #dadaec;
      }

      .st17 {
        fill: #111827;
      }

      .st18 {
        isolation: isolate;
      }

      .st19 {
        fill: #F4F2F0;
      }

      .st20 {
        fill: #F4F2F0;
      }

      .st21 {
        fill: #bdc0bc;
      }

      .st22 {
        fill: #111827;
      }

      .st23 {
        fill: #11181C;
      }

      .st24 {
        fill: #233b51;
      }

      .st25 {
        fill: #F4F2F0;
      }

      .st26 {
        fill: #F27830;
      }

      .st27 {
        fill: #36649A;
      }

      .st28 {
        fill: #F27830;
      }

      .st29 {
        fill: #F4F2F0;
      }

      .st30 {
        fill: #F27830;
      }

      .st31 {
        opacity: .5;
      }
    </style>
  </defs>
  <g class="st18">
    <g id="BG">
      <rect class="st13" x="0" width="3000" height="2000"/>
    </g>
    <g id="BG2">
      <g>
        <path class="st17" d="M2653,1603.5h-201.7c-36.7,0-66.4,29.7-66.4,66.4s29.7,66.4,66.4,66.4h201.7c36.7,0,66.4-29.7,66.4-66.4s-29.7-66.4-66.4-66.4Z"/>
        <path class="st17" d="M2277.9,1603.5H617.7c-36.7,0-66.4,29.7-66.4,66.4s29.7,66.4,66.4,66.4h1660.1c36.7,0,66.4-29.7,66.4-66.4s-29.7-66.4-66.4-66.4Z"/>
        <path class="st17" d="M446.7,1603.5h-99.7c-36.7,0-66.4,29.7-66.4,66.4s29.7,66.4,66.4,66.4h99.7c36.7,0,66.4-29.7,66.4-66.4s-29.7-66.4-66.4-66.4Z"/>
      </g>
    </g>
    <g id="Illustration">
      <g>
        <g>
          <g>
            <path class="st7" d="M493.5,1135.5c-44.1,42.7,30.8,74.8,27,98.5-3.8,23.7-25.7,59,4.3,80,30,21,63.5,55.1,53.8,79.8-9.7,24.7,11.4,56.5,33.8,62,22.4,5.5,73-8.4,88.5,23.6,15.5,32,0,0,0,0,0,0,25.4-46.1,47.6-63.6,22.1-17.5,36.4-76.7,13.9-90.4-22.5-13.7-63.4-46.9-56.3-82.3,7.1-35.4-27.4-66.3-72.7-70.6-70.6-6.7-81.3-93.7-139.8-37.1Z"/>
            <path class="st29" d="M702.9,1486.9c.4-.4.7-1.1.7-1.7-10.5-213.5-177.5-331-179.2-332.1-1.1-.7-2.5-.5-3.3.6-.7,1.1-.5,2.5.6,3.2,1.7,1.1,166.8,117.3,177.2,328.5,0,1.3,1.2,2.3,2.5,2.2.6,0,1.2-.3,1.6-.7Z"/>
          </g>
          <g>
            <path class="st9" d="M632.4,1084.1c-56.7,23.9,1.3,80.8-10.9,101.5-12.2,20.8-45.5,45.7-25.3,76.1,20.3,30.4,38.9,74.2,20.9,93.8-18.1,19.6-10.1,56.7,8.7,69.9,18.8,13.2,71,18.5,73.8,53.8,2.8,35.4,0,0,0,0,0,0,40.6-33.8,67.6-42.1,27-8.3,62-58.3,46.1-79.2-15.9-20.9-41.9-66.5-22.3-96.9,19.5-30.4-1.2-71.7-41.9-92-63.3-31.6-41.4-116.6-116.7-85Z"/>
            <path class="st29" d="M698.7,1487c.6-.3,1-.7,1.3-1.4,68.4-202.7-44.1-372.3-45.3-374-.7-1.1-2.2-1.4-3.3-.6-1.1.7-1.4,2.2-.6,3.2,1.1,1.7,112.4,169.4,44.7,369.9-.4,1.2.2,2.5,1.5,2.9.6.2,1.2.1,1.7,0Z"/>
          </g>
          <g>
            <polygon class="st30" points="640.1 1587.7 738.6 1587.7 749.9 1508.3 628.8 1508.3 640.1 1587.7"/>
            <g class="st4">
              <polygon class="st0" points="749.7 1509.5 629 1509.5 630.2 1517.9 749.7 1509.5"/>
            </g>
          </g>
        </g>
        <g class="st11">
          <rect class="st25" x="1649.9" y="395.1" width="241.2" height="174"/>
          <polygon class="st22" points="1649.9 540.2 1761.1 451.3 1891.1 554.5 1891.1 569.2 1649.9 569.2 1649.9 540.2"/>
          <polygon class="st7" points="1816.7 495.5 1855.7 471.3 1891.1 495.5 1891.1 554.5 1816.7 495.5"/>
          <path class="st7" d="M1831.9,447.8c0,10.2-8.3,18.5-18.5,18.5s-18.5-8.3-18.5-18.5,8.3-18.5,18.5-18.5,18.5,8.3,18.5,18.5Z"/>
        </g>
        <g class="st11">
          <path class="st12" d="M2411.2,482.2c0,54.5-44.2,98.7-98.7,98.7s-98.7-44.2-98.7-98.7,44.2-98.7,98.7-98.7,98.7,44.2,98.7,98.7Z"/>
          <path class="st2" d="M2312.6,383.5c54.5,0,98.7,44.2,98.7,98.7s-44.2,98.7-98.7,98.7-98.7-44.2-98.7-98.7,44.2-98.7,98.7-98.7M2312.6,370.5c-29.8,0-57.9,11.6-79,32.7-21.1,21.1-32.7,49.1-32.7,79s11.6,57.9,32.7,79c21.1,21.1,49.1,32.7,79,32.7s57.9-11.6,79-32.7c21.1-21.1,32.7-49.1,32.7-79s-11.6-57.9-32.7-79c-21.1-21.1-49.1-32.7-79-32.7h0Z"/>
          <path class="st2" d="M2312.6,398.9c46,0,83.2,37.3,83.2,83.2s-37.3,83.2-83.2,83.2-83.2-37.3-83.2-83.2,37.3-83.2,83.2-83.2M2312.6,393.9c-48.7,0-88.2,39.6-88.2,88.2s39.6,88.2,88.2,88.2,88.2-39.6,88.2-88.2-39.6-88.2-88.2-88.2h0Z"/>
          <path class="st20" d="M2318.9,409.8c0,3.5-2.8,6.3-6.3,6.3s-6.3-2.8-6.3-6.3,2.8-6.3,6.3-6.3,6.3,2.8,6.3,6.3Z"/>
          <path class="st22" d="M2297.2,411.4c.5,1.8-.6,3.7-2.4,4.2-1.8.5-3.7-.6-4.2-2.4-.5-1.8.6-3.7,2.4-4.2,1.8-.5,3.7.6,4.2,2.4Z"/>
          <path class="st22" d="M2279.4,417.8c1,1.6.4,3.8-1.3,4.7-1.6,1-3.8.4-4.7-1.3-1-1.7-.4-3.8,1.3-4.7,1.7-1,3.8-.4,4.7,1.3Z"/>
          <path class="st22" d="M2263.8,428.6c1.3,1.3,1.3,3.5,0,4.9-1.3,1.3-3.5,1.3-4.9,0-1.3-1.3-1.3-3.5,0-4.9,1.3-1.3,3.5-1.3,4.9,0Z"/>
          <path class="st22" d="M2251.6,443c1.6,1,2.2,3.1,1.3,4.7-1,1.6-3.1,2.2-4.7,1.3-1.6-1-2.2-3.1-1.3-4.7,1-1.6,3.1-2.2,4.7-1.3Z"/>
          <path class="st22" d="M2243.6,460.1c1.8.5,2.9,2.4,2.4,4.2-.5,1.8-2.4,2.9-4.2,2.4-1.8-.5-2.9-2.4-2.4-4.2.5-1.8,2.4-2.9,4.2-2.4Z"/>
          <path class="st24" d="M2240.2,478.7c1.9,0,3.4,1.5,3.4,3.5s-1.5,3.4-3.4,3.4c-1.9,0-3.4-1.5-3.4-3.5s1.5-3.4,3.5-3.4Z"/>
          <path class="st22" d="M2241.8,497.5c1.8-.5,3.7.6,4.2,2.4.5,1.8-.6,3.7-2.4,4.2-1.8.5-3.7-.6-4.2-2.4-.5-1.8.6-3.7,2.4-4.2Z"/>
          <path class="st22" d="M2248.2,515.3c1.6-1,3.8-.4,4.7,1.3,1,1.6.4,3.8-1.3,4.7-1.6,1-3.8.4-4.7-1.3-1-1.7-.4-3.8,1.3-4.7Z"/>
          <path class="st22" d="M2259,530.9c1.3-1.3,3.5-1.3,4.9,0,1.3,1.3,1.3,3.5,0,4.9-1.3,1.3-3.5,1.3-4.9,0-1.3-1.3-1.3-3.5,0-4.9Z"/>
          <path class="st22" d="M2273.4,543.1c1-1.6,3.1-2.2,4.7-1.3,1.6,1,2.2,3.1,1.3,4.7-1,1.6-3.1,2.2-4.7,1.3-1.6-1-2.2-3.1-1.3-4.7Z"/>
          <path class="st22" d="M2290.5,551.1c.5-1.8,2.4-2.9,4.2-2.4,1.8.5,2.9,2.4,2.4,4.2-.5,1.8-2.4,2.9-4.2,2.4-1.8-.5-2.9-2.4-2.4-4.2Z"/>
          <path class="st24" d="M2309.1,554.5c0-1.9,1.5-3.4,3.5-3.4s3.4,1.5,3.4,3.4c0,1.9-1.5,3.4-3.4,3.4s-3.5-1.5-3.4-3.5Z"/>
          <path class="st22" d="M2327.9,552.9c-.5-1.8.6-3.7,2.4-4.2,1.8-.5,3.7.6,4.2,2.4.5,1.8-.6,3.7-2.4,4.2-1.8.5-3.7-.6-4.2-2.4Z"/>
          <path class="st22" d="M2334.6,413.2c-.5,1.8-2.4,2.9-4.2,2.4-1.8-.5-2.9-2.4-2.4-4.2.5-1.8,2.4-2.9,4.2-2.4,1.8.5,2.9,2.4,2.4,4.2Z"/>
          <circle class="st26" cx="2240.2" cy="482.2" r="6.3"/>
          <path class="st22" d="M2346,417.8c-1,1.6-.4,3.8,1.3,4.7,1.6,1,3.8.4,4.7-1.3,1-1.7.4-3.8-1.3-4.7-1.7-1-3.8-.4-4.7,1.3Z"/>
          <path class="st22" d="M2361.5,428.6c-1.3,1.3-1.3,3.5,0,4.9,1.3,1.3,3.5,1.3,4.9,0,1.3-1.3,1.3-3.5,0-4.9-1.3-1.3-3.5-1.3-4.9,0Z"/>
          <path class="st22" d="M2373.7,443c-1.6,1-2.2,3.1-1.3,4.7,1,1.6,3.1,2.2,4.7,1.3,1.6-1,2.2-3.1,1.3-4.7-1-1.6-3.1-2.2-4.7-1.3Z"/>
          <path class="st22" d="M2381.8,460.1c-1.8.5-2.9,2.4-2.4,4.2.5,1.8,2.4,2.9,4.2,2.4,1.8-.5,2.9-2.4,2.4-4.2-.5-1.8-2.4-2.9-4.2-2.4Z"/>
          <path class="st22" d="M2346,544.9c-.9-1.6-.4-3.7,1.2-4.6,1.6-.9,3.7-.4,4.6,1.2.9,1.6.4,3.7-1.2,4.6-1.6.9-3.7.4-4.6-1.2Z"/>
          <path class="st22" d="M2361.1,534.4c-1.3-1.3-1.3-3.4,0-4.8,1.3-1.3,3.4-1.3,4.8,0,1.3,1.3,1.3,3.4,0,4.8-1.3,1.3-3.4,1.3-4.8,0Z"/>
          <path class="st22" d="M2373,520.3c-1.6-.9-2.2-3-1.2-4.6.9-1.6,3-2.2,4.6-1.2,1.6.9,2.2,3,1.2,4.6-.9,1.6-3,2.2-4.6,1.2Z"/>
          <path class="st22" d="M2380.9,503.6c-1.8-.5-2.9-2.3-2.4-4.1.5-1.8,2.3-2.9,4.1-2.4,1.8.5,2.9,2.3,2.4,4.1-.5,1.8-2.3,2.9-4.1,2.4Z"/>
          <circle class="st20" cx="2385.1" cy="482.2" r="6.3"/>
          <path class="st26" d="M2306.2,554.5c0-3.5,2.8-6.3,6.3-6.3s6.3,2.8,6.3,6.3-2.8,6.3-6.3,6.3-6.3-2.8-6.3-6.3Z"/>
          <path class="st26" d="M2318.9,409.8c0,3.5-2.8,6.3-6.3,6.3s-6.3-2.8-6.3-6.3,2.8-6.3,6.3-6.3,6.3,2.8,6.3,6.3Z"/>
          <path class="st2" d="M2240.2,475.8c3.5,0,6.3,2.8,6.3,6.3s-2.8,6.3-6.3,6.3-6.3-2.8-6.3-6.3,2.8-6.3,6.3-6.3M2240.2,470.8c-6.2,0-11.3,5.1-11.3,11.3s5.1,11.3,11.3,11.3,11.3-5.1,11.3-11.3-5.1-11.3-11.3-11.3h0Z"/>
          <circle class="st26" cx="2385.1" cy="482.2" r="6.3"/>
          <path class="st2" d="M2312.5,548.2c3.5,0,6.3,2.8,6.3,6.3s-2.8,6.3-6.3,6.3-6.3-2.8-6.3-6.3,2.8-6.3,6.3-6.3M2312.5,543.2c-6.2,0-11.3,5.1-11.3,11.3s5.1,11.3,11.3,11.3,11.3-5.1,11.3-11.3-5.1-11.3-11.3-11.3h0Z"/>
          <path class="st26" d="M2316.4,481.9c0-.1,0-.2,0-.3,0,0-.1-.2-.2-.2-.2-.3-.3-.6-.6-.9,0,0,0,0,0,0l-39.8-39.8c-1.4-1.4-3.6-1.4-5,0-1.4,1.4-1.4,3.6,0,5l38.8,38.7-.9,44.2c0,1.9,1.5,3.6,3.5,3.6h0c1.9,0,3.5-1.5,3.5-3.5l.9-45.7s0,0,0,0c0-.4,0-.7-.2-1Z"/>
          <path class="st12" d="M2321.5,482.2c0,4.9-4,8.9-8.9,8.9s-8.9-4-8.9-8.9,4-8.9,8.9-8.9,8.9,4,8.9,8.9Z"/>
          <path class="st2" d="M2312.6,473.2c4.9,0,8.9,4,8.9,8.9s-4,8.9-8.9,8.9-8.9-4-8.9-8.9,4-8.9,8.9-8.9M2312.6,468.2c-7.7,0-13.9,6.2-13.9,13.9s6.2,13.9,13.9,13.9,13.9-6.2,13.9-13.9-6.2-13.9-13.9-13.9h0Z"/>
        </g>
        <g class="st3">
        </g>
        <g class="st3">
          <path class="st28" d="M2453.9,1265h-18c-1,0-1.9-.4-2.6-1.2l-19.6-24.8c-1.3-1.6-3.8-1.6-5.1,0l-19.6,24.8c-.6.8-1.5,1.2-2.6,1.2h-18c-2.6,0-4.1-2.9-2.6-4.9l42.7-53.9c1.3-1.6,3.8-1.6,5.1,0l42.7,53.9c1.6,2,0,4.9-2.6,4.9Z"/>
          <path class="st28" d="M2453.9,1151.4h-18c-1,0-1.9-.4-2.6-1.2l-19.6-24.8c-1.3-1.6-3.8-1.6-5.1,0l-19.6,24.8c-.6.8-1.5,1.2-2.6,1.2h-18c-2.6,0-4.1-2.9-2.6-4.9l42.7-53.9c1.3-1.6,3.8-1.6,5.1,0l42.7,53.9c1.6,2,0,4.9-2.6,4.9Z"/>
          <path class="st28" d="M2453.9,1094.5h-18c-1,0-1.9-.4-2.6-1.2l-19.6-24.8c-1.3-1.6-3.8-1.6-5.1,0l-19.6,24.8c-.6.8-1.5,1.2-2.6,1.2h-18c-2.6,0-4.1-2.9-2.6-4.9l42.7-53.9c1.3-1.6,3.8-1.6,5.1,0l42.7,53.9c1.6,2,0,4.9-2.6,4.9Z"/>
        </g>
        <path class="st5" d="M1571.5,1506.2c1.9,0,1.9-3,0-3s-1.9,3,0,3Z"/>
        <g class="st3">
          <path class="st28" d="M779.8,904v8.7c0,.5-.2.9-.6,1.2l-11.9,9.4c-.8.6-.8,1.8,0,2.5l11.9,9.4c.4.3.6.7.6,1.2v8.7c0,1.3-1.4,2-2.4,1.2l-26-20.6c-.8-.6-.8-1.8,0-2.5l26-20.6c1-.8,2.4,0,2.4,1.2Z"/>
          <path class="st28" d="M807.2,904v8.7c0,.5-.2.9-.6,1.2l-11.9,9.4c-.8.6-.8,1.8,0,2.5l11.9,9.4c.4.3.6.7.6,1.2v8.7c0,1.3-1.4,2-2.4,1.2l-26-20.6c-.8-.6-.8-1.8,0-2.5l26-20.6c1-.8,2.4,0,2.4,1.2Z"/>
          <path class="st28" d="M752.3,904v8.7c0,.5-.2.9-.6,1.2l-11.9,9.4c-.8.6-.8,1.8,0,2.5l11.9,9.4c.4.3.6.7.6,1.2v8.7c0,1.3-1.4,2-2.4,1.2l-26-20.6c-.8-.6-.8-1.8,0-2.5l26-20.6c1-.8,2.4,0,2.4,1.2Z"/>
          <path class="st28" d="M724.9,904v8.7c0,.5-.2.9-.6,1.2l-11.9,9.4c-.8.6-.8,1.8,0,2.5l11.9,9.4c.4.3.6.7.6,1.2v8.7c0,1.3-1.4,2-2.4,1.2l-26-20.6c-.8-.6-.8-1.8,0-2.5l26-20.6c1-.8,2.4,0,2.4,1.2Z"/>
        </g>
        <g>
          <rect class="st28" x="951.8" y="506.7" width="1.8" height="19.9"/>
          <rect class="st28" x="951.8" y="506.7" width="1.8" height="19.9" transform="translate(436 1469.4) rotate(-90)"/>
        </g>
        <g>
          <rect class="st28" x="1518.4" y="633.9" width="2.8" height="31.9"/>
          <rect class="st28" x="1518.4" y="633.9" width="2.8" height="31.9" transform="translate(869.9 2169.7) rotate(-90)"/>
        </g>
        <g>
          <rect class="st28" x="2236" y="944.1" width="1.6" height="18"/>
          <rect class="st28" x="2236" y="944.1" width="1.6" height="18" transform="translate(1283.7 3189.8) rotate(-90)"/>
        </g>
        <g>
          <path class="st28" d="M1620.1,1205.8v303.4c0,46.6-37.6,84.1-84.1,84.1h-658c-46.5,0-84.1-37.5-84.1-84.1v-303.4c0-2.6,0-5.2.1-7.6,0-.7.1-1.3.1-2.1,0-1.7.1-3.4.2-5.1.3-6.4,1-12.7,1.8-18.9.3-2.1.6-4.3,1-6.4,1-5.8,2.1-11.7,3.5-17.3.4-2.1,1-4.2,1.5-6.1,2.4-8.5,4.9-16.7,8.1-24.8.9-2.2,1.8-4.6,2.8-7,1-2.4,2-4.7,3.1-7.2,1-2.2,2-4.4,3.1-6.5,5-10.1,10.7-19.9,16.8-29.1,2.2-3.1,4.4-6.3,6.7-9.3,1-1.5,2.2-2.9,3.3-4.4,1.1-1.3,2-2.6,3.1-3.9.9-1.1,1.9-2.4,2.9-3.5.6-.8,1.2-1.3,1.8-2,.8-1,1.7-2,2.5-2.9,1.1-1.2,2-2.2,3-3.4,1.7-1.7,3.3-3.4,4.8-5.1,2-2.1,4-4,6.3-6.1,1.8-1.8,3.7-3.6,5.7-5.3,2.7-2.5,5.4-4.8,8.3-7.1,2.4-2,4.8-4,7.4-5.8,7.1-5.4,14.5-10.3,22-14.9,36.9-22,80.2-34.7,126.2-34.7h333.4c39.4,0,76.7,9.3,109.7,25.7,5.1,2.5,9.9,5.1,14.6,7.9,6.8,4,13.6,8.4,20,13,2,1.5,3.8,2.9,5.7,4.4,3.8,2.8,7.5,6,11.1,9q.1.1.2.1c1.7,1.6,3.5,3,5.2,4.6,6.9,6.4,13.6,13.4,19.9,20.5,1.6,1.8,3.1,3.6,4.6,5.4,4.5,5.6,8.9,11.2,12.8,17.3,1.3,1.8,2.6,3.7,3.9,5.7,1.5,2.4,3,4.8,4.5,7.3,1,1.7,2,3.5,3,5.3,4.6,8.3,8.9,17,12.5,25.8,1,2.2,1.9,4.6,2.8,6.8.7,2.2,1.7,4.5,2.4,6.7h0c.9,2.4,1.7,4.7,2.4,7,.7,2.1,1.2,4.3,1.9,6.4.3,1,.7,2.1.8,3.3.4,1.5.9,3,1.2,4.5.7,2.6,1.2,5.1,1.8,7.6.4,2.2,1,4.6,1.3,6.8.4,2.5.9,4.8,1.2,7.4.7,4.4,1.2,8.9,1.8,13.4,0,1.3.2,2.8.3,4.2.2,1.6.2,3.4.3,4.9.2,2.6.2,5.1.3,7.6,0,2.5.1,5.1.1,7.6Z"/>
          <polygon class="st8" points="1352.2 959.5 1438.4 1093.2 1373.6 1129.2 1447.4 1193.8 1270.1 1591.9 1352.2 959.5"/>
          <polygon class="st8" points="1069.5 959.5 983.4 1093.2 1048.2 1129.2 974.4 1193.8 1151.6 1591.9 1069.5 959.5"/>
          <polygon class="st12" points="1237.4 1121.7 1263.8 1094.3 1210.9 1059.1 1157.9 1094.3 1184.4 1121.7 1151.6 1495.7 1211.5 1573.7 1270.1 1495.7 1237.4 1121.7"/>
          <path class="st16" d="M1312.2,924.4l-101.3,134.7,136.4,90.7,4.6-187.1c.2-7.6-3.6-14.7-9.9-18.9l-29.8-19.4Z"/>
          <path class="st16" d="M1109.6,924.4l101.3,134.7-136.4,90.7-4.6-185.9c-.2-8.3,3.9-16.1,10.9-20.7l28.8-18.7Z"/>
          <g class="st15">
            <polygon class="st0" points="1373.6 1129.2 1437.3 1105.2 1434.1 1095.5 1373.6 1129.2"/>
          </g>
          <g class="st15">
            <polygon class="st0" points="1444.1 1201.2 1454 1222.1 1270.1 1591.9 1444.1 1201.2"/>
          </g>
          <polygon class="st21" points="1263.8 1094.3 1244.2 1124.9 1270.1 1495.7 1237.4 1121.7 1263.8 1094.3"/>
          <g class="st31">
            <polygon class="st0" points="1259.1 1099.2 1263.8 1094.3 1210.9 1059.1 1260.1 1100.1 1259.1 1099.2"/>
          </g>
          <g class="st15">
            <polygon class="st0" points="1048.2 1129.2 984.5 1105.2 987.7 1095.5 1048.2 1129.2"/>
          </g>
          <g>
            <polygon class="st23" points="1109.6 860.8 1109.6 924.4 1210.9 1059.1 1312.2 924.4 1312.9 855.9 1109.6 860.8"/>
            <path class="st27" d="M1063.5,631.9v140.1c0,79.6,65.1,144.7,144.7,144.7h0c79.6,0,144.7-65.1,144.7-144.7v-145s0-95.8,0-95.8l-51.8-51.8-114.2-6.9h-72.1l-60.5,18.2,9.2,141.2Z"/>
            <g>
              <path class="st6" d="M1251.5,679.2c-2.3,0-4.6-1.3-5.6-3.5-1.5-3.1-.2-6.9,2.9-8.4,1.2-.6,29.3-14.1,55-3.3,3.2,1.3,4.7,5,3.3,8.2-1.3,3.2-5,4.7-8.2,3.3-20.3-8.6-44.4,2.9-44.6,3-.9.4-1.8.6-2.7.6Z"/>
              <ellipse class="st6" cx="1276.4" cy="707.2" rx="15.2" ry="14.9"/>
              <g>
                <path class="st6" d="M1165,679.2c-.9,0-1.9-.2-2.7-.6-.3-.2-24.4-11.5-44.6-3-3.2,1.4-6.9-.2-8.2-3.3-1.3-3.2.1-6.9,3.3-8.2,25.6-10.8,53.8,2.7,55,3.3,3.1,1.5,4.4,5.3,2.9,8.4-1.1,2.2-3.3,3.5-5.6,3.5Z"/>
                <ellipse class="st6" cx="1140.1" cy="707.2" rx="15.2" ry="14.9"/>
              </g>
            </g>
            <path class="st27" d="M1051.8,667.4h12.3v64.6h-12.3c-12.1,0-22-9.9-22-22v-20.7c0-12.1,9.9-22,22-22Z"/>
            <path class="st27" d="M1381.9,689.4v20.7c0,12.1-9.9,22-22,22h-7.1v-64.6h7.1c12.1,0,22,9.9,22,22Z"/>
            <path class="st23" d="M1255.1,821.2c0,10.7-4.4,20.5-11.5,27.5-7.1,7.1-16.8,11.5-27.5,11.5h-16.2c-21.4,0-39-17.5-39-39s.2-4.7.6-6.9h92.9c.4,2.3.6,4.6.6,6.9Z"/>
            <path class="st28" d="M1336.2,428.3h0c0-27-21.9-49-49-49h-157.7c-62.5,0-113.2,50.7-113.2,113.2v130.6c0,24.5,19.8,44.3,44.3,44.3h3.4v-45.4c0-28,22.7-50.8,50.8-50.8h144.5c15.1,0,27.4-12.3,27.4-27.4h0c0-11.4,9.2-20.6,20.6-20.6h1c24.8,0,45,20.1,45,45v93.9h0c10.2,0,18.4-8.2,18.4-18.4v-180c0-11.7-9.5-21.3-21.3-21.3h0c-7.9,0-14.2-6.4-14.2-14.2Z"/>
          </g>
          <g class="st15">
            <polygon class="st0" points="1210.9 1059.1 1200.3 1044.9 1109.6 924.4 1221.2 1045.3 1210.9 1059.1"/>
          </g>
        </g>
        <polygon class="st29" points="2162.4 724.1 2162.4 1502.5 2069.6 1594.1 1497.9 1594.1 1497.9 724.1 2162.4 724.1"/>
        <path class="st1" d="M1483.3,985.1v608.2h14.6v-600.3c-4.7-2.8-9.5-5.4-14.6-7.9Z"/>
        <polygon class="st9" points="2069.6 1594.1 2069.6 1502.4 2162.4 1502.4 2069.6 1594.1"/>
        <polygon class="st19" points="2069.6 1594.1 1975.1 1594.1 2069.6 1502.4 2069.6 1594.1"/>
        <rect class="st22" x="1559.1" y="914.8" width="540.1" height="27.9" rx="13.9" ry="13.9"/>
        <rect class="st22" x="1559.1" y="961.6" width="413.6" height="27.9" rx="13.9" ry="13.9"/>
        <rect class="st22" x="1560" y="1008.4" width="247.2" height="27.9" rx="13.9" ry="13.9"/>
        <rect class="st22" x="1559.1" y="1096.9" width="540.1" height="27.9" rx="13.9" ry="13.9"/>
        <rect class="st22" x="1559.1" y="1143.7" width="413.6" height="27.9" rx="13.9" ry="13.9"/>
        <rect class="st22" x="1560" y="1190.5" width="247.2" height="27.9" rx="13.9" ry="13.9"/>
        <g>
          <path class="st12" d="M2192.6,1004.2c-3.1-2.9-6.4-5.7-9.7-8.5-6.5-5.5-13.3-10.6-20.2-15.3-.1-.1-.2-.2-.3-.2-44.7-30.7-96.7-45.8-148.6-45.8s-28.2,1.1-42.1,3.5c-7.1,1-14,2.4-20.9,4.2-48.7,11.9-94.4,37.7-131,77.3-98.7,107.1-92,274,15.2,372.8,3.1,2.9,6.4,5.7,9.7,8.5,6.5,5.4,13.2,10.6,20.2,15.3,17.3,11.9,35.6,21.4,54.6,28.6,7.6,2.9,15.3,5.4,23.1,7.6,23.2,6.5,47.3,9.8,71.3,9.8s28.2-1.1,42.1-3.5c7.1-1,14-2.4,20.9-4.2,30.2-7.3,59.2-20.1,85.6-38.1,11.8-8,22.9-17,33.5-27.2,4-3.8,8.1-7.9,11.9-12,3.8-4.2,7.5-8.4,11-12.8,87-107.2,76.8-265-26.2-360ZM2176.1,1347.8c-4.4,4.7-9,9.3-13.7,13.5-6.2,5.8-12.6,11-19.3,15.8-2.8,2-5.5,3.9-8.3,5.7-2.5,1.7-5.1,3.3-7.5,4.7-.4.3-1,.7-1.7,1.1l-8.1,4.4c-2.9,1.6-5.8,3-8.9,4.5-2.9,1.5-6,2.8-9,4-6,2.5-12,4.7-18.2,6.7-.6.2-1.1.4-1.7.6-5.7,1.8-11.7,3.4-17.5,4.6-3.3.8-6.4,1.3-9.7,2-3.1.6-6.4,1-9.7,1.5-27.1,3.6-54.8,2.2-81.5-4.4-5.7-1.3-11.5-2.9-17.1-4.8-6.4-2.1-12.8-4.6-19-7.3,0,0-.1.1-.1,0-6.3-2.8-12.4-5.8-18.4-9.1-3.1-1.7-6.3-3.6-9.3-5.5-2.8-1.7-5.6-3.5-8.4-5.5-2.9-1.9-5.7-3.9-8.4-6.1-.1,0-.3-.2-.6-.4-2.7-1.9-5.4-4-8-6.3-2.7-2.2-5.4-4.6-8.1-7.1-2.2-2-4.3-4-6.4-6.2-.7-.7-1.3-1.3-2-2.1-5.6-5.7-10.8-11.7-15.6-17.7-2.4-3-4.6-6.1-6.9-9.1-.2-.3-.3-.6-.6-.9-1.7-2.5-3.4-4.9-5.1-7.5-1.5-2.2-2.8-4.5-4.2-6.8-1.3-2.2-2.6-4.6-3.9-7-2.4-4.4-4.6-8.8-6.5-13.3-2.5-5.3-4.7-10.7-6.6-16.2-1.1-2.9-2.1-5.7-2.9-8.6-3.4-10.4-6-21.1-7.6-31.9-.3-2.1-.7-4.3-.9-6.5-.1-.9-.2-1.7-.3-2.6-.3-2.6-.6-5.2-.8-7.7v-.2c-.3-2.9-.4-6-.6-8.9-.1-3-.2-6.1-.2-9.1s.1-6.5.2-9.9c.2-3.7.4-7.4.8-11.1.2-2.6.6-5.2.9-7.7.2-1.7.4-3.3.7-4.9.7-4.5,1.5-8.9,2.5-13.3,1.2-5.7,2.7-11.5,4.5-17.1.4-1.8,1-3.7,1.7-5.5,1.6-4.7,3.3-9.3,5.2-13.9.9-2.2,1.8-4.5,2.8-6.7.4-.9.9-1.9,1.3-2.8,1-2.4,2.2-4.7,3.5-7.1,2.1-4.4,4.5-8.6,7.1-12.9,1.2-2.1,2.6-4.3,3.9-6.4,2.7-4.3,5.6-8.4,8.6-12.5,1.5-1.9,2.8-3.8,4.4-5.6,3.3-4.2,6.7-8.3,10.4-12.2,8.2-8.9,16.8-16.8,26-24.1,3-2.4,6.1-4.6,9.1-6.8.3-.1.6-.3.9-.6,2.5-1.7,4.9-3.4,7.5-5.1,3.8-2.4,7.6-4.7,11.7-6.8,1.9-1.1,3.7-2.1,5.6-3,3.3-1.7,6.5-3.3,9.8-4.7,1.8-.9,3.6-1.7,5.4-2.5,3.3-1.3,6.5-2.6,9.8-3.8,3.5-1.3,7.1-2.6,10.7-3.6,7.1-2.2,14.4-4.2,21.7-5.6,3.3-.7,6.6-1.3,10-1.8,3-.4,6.2-.9,9.3-1.2,2.1-.3,4.2-.4,6.3-.6.3-.1.7-.1,1.1-.1,2.8-.3,5.6-.4,8.4-.6,6-.2,11.9-.2,17.9,0,1.9,0,3.8.1,5.6.3,4.3.2,8.4.6,12.6,1.1,2.7.3,5.4.7,8.1,1.1,2.9.4,5.8,1,8.6,1.6,5.8,1.1,11.6,2.6,17.3,4.2,5.6,1.7,11.2,3.5,16.8,5.6.9.3,1.8.7,2.7,1,2.7,1,5.4,2.1,8,3.4,2.7,1.1,5.4,2.4,8,3.7,1.1.4,2.1.9,3.1,1.6,2.5,1.1,4.9,2.5,7.3,3.8,3,1.7,6.1,3.4,9,5.3,1.9,1.1,3.7,2.2,5.5,3.6,1.5.9,2.9,1.8,4.4,2.9,2.5,1.7,5.1,3.5,7.5,5.4,5.2,4,10.3,8.3,15.3,12.8.3.3.8.7,1.1,1,1.5,1.3,2.9,2.7,4.4,4.2,1.5,1.3,2.9,2.7,4.2,4.2,5.2,5.3,10.1,10.9,14.6,16.6,2,2.4,3.8,4.9,5.7,7.4.4.6.8,1,1.1,1.6,2,2.8,3.9,5.7,5.8,8.6,1.5,2.2,2.8,4.5,4.2,6.7,2.6,4.2,4.9,8.4,7.2,12.8,1.2,2.5,2.4,4.9,3.5,7.4.4.7.7,1.3,1,2,1,2.4,2,4.7,2.9,7.1,1.2,2.7,2.2,5.4,3.1,8.2,1.1,2.9,2.1,5.7,2.9,8.6.9,2.4,1.6,4.7,2.1,7.2.8,2.4,1.5,4.8,2,7.3.8,2.9,1.5,6,1.9,9,.4,1.7.8,3.4,1,5.1.4,2.4.8,4.7,1.1,7.1,9.1,63.3-9.4,130.1-56.3,180.9Z"/>
          <path class="st1" d="M2218.7,1364.2c-3.5,4.4-7.2,8.6-11,12.8-3.8,4.2-7.9,8.2-11.9,12l10.7,9.9c4.2-3.8,8.1-7.9,11.9-12s7.5-8.4,11.1-12.8l-10.8-9.9ZM1809.1,1009.4c-104.1,112.9-96.9,289.4,15.9,393.5,51.7,47.5,118.6,73.7,188.8,73.7s104.4-15.2,148.6-43v-17.3c-26.4,18-55.4,30.8-85.6,38.1-6.8,1.8-13.8,3.1-20.9,4.2-13.9,2.4-28,3.5-42.1,3.5-24,0-48.1-3.3-71.3-9.8-7.9-2.1-15.5-4.7-23.1-7.6-19-7.2-37.3-16.7-54.6-28.6-6.8-4.7-13.7-9.8-20.2-15.3-3.3-2.8-6.5-5.6-9.7-8.5-107.1-98.8-113.9-265.7-15.2-372.8,36.6-39.5,82.3-65.4,131-77.3,6.9-1.8,13.8-3.1,20.9-4.2,13.9-2.4,28-3.5,42.1-3.5,51.9,0,103.9,15.2,148.6,45.8v-17.5c-44.1-27.8-95.4-42.9-148.6-42.9-77.5,0-152.2,32.7-204.7,89.6Z"/>
          <circle class="st10" cx="2013.8" cy="1198.1" r="220.8"/>
          <polygon class="st12" points="2286.1 1426.3 2263.2 1451.3 2246.1 1435.4 2206.5 1398.9 2195.8 1389 2178.7 1373.2 2201.6 1348.3 2218.7 1364.2 2229.5 1374.1 2269 1410.6 2286.1 1426.3"/>
          <rect class="st28" x="2323.9" y="1367.2" width="112.9" height="338.1" rx="54.2" ry="54.2" transform="translate(-362.7 2244.4) rotate(-47.3)"/>
          <path class="st14" d="M1965,1159.2c25.3,23.3,26.9,62.7,3.6,87.9-23.3,25.3-62.7,26.9-87.9,3.5-25.3-23.3-26.9-62.7-3.6-87.9,23.3-25.3,62.7-26.9,87.9-3.6Z"/>
          <path class="st14" d="M1959.6,1080.2c6.7,6.2,7.1,16.6.9,23.3-6.2,6.7-16.6,7.1-23.3.9-6.7-6.2-7.1-16.6-.9-23.3,6.2-6.7,16.6-7.1,23.3-.9Z"/>
        </g>
      </g>
    </g>
  </g>
</svg>