<?xml version="1.0" encoding="UTF-8"?>
<svg xmlns="http://www.w3.org/2000/svg" version="1.1" xmlns:xlink="http://www.w3.org/1999/xlink" viewBox="0 0 3000 2000">
  <!-- Generator: Adobe Illustrator 29.3.1, SVG Export Plug-In . SVG Version: 2.1.0 Build 151)  -->
  <defs>
    <style>
      .st0 {
        fill: #273B5B;
      }

      .st1 {
        fill: #273B5B;
      }

      .st2 {
        fill: #273B5B;
      }

      .st3 {
        fill: url(#linear-gradient2);
      }

      .st4 {
        fill: #273B5B;
      }

      .st5 {
        fill: #273B5B;
      }

      .st6 {
        fill: #273B5B;
      }

      .st7 {
        fill: #273B5B;
      }

      .st8 {
        fill: url(#linear-gradient10);
      }

      .st9 {
        fill: url(#New_Gradient_Swatch1);
      }

      .st10 {
        fill: #BF5E26;
      }

      .st11 {
        fill: #36649A;
      }

      .st12 {
        fill: #273B5B;
      }

      .st13 {
        fill: url(#Gradient_Blue_27);
      }

      .st14 {
        fill: url(#Gradient_Blue_217);
      }

      .st15 {
        fill: none;
      }

      .st16 {
        fill: #273B5B
      }

      .st17 {
        fill: #F4F2F0;
      }

      .st18 {
        fill: url(#New_Gradient_Swatch3);
      }

      .st19 {
        fill: #F4F2F0;
      }

      .st20 {
        opacity: 0;
      }

      .st20, .st21 {
        fill: #F27830;
      }

      .st22 {
        fill: #273B5B;
      }

      .st23 {
        fill: url(#Gradient_Blue_28);
      }

      .st24 {
        fill: #36649A;
      }

      .st25 {
        fill: #273B5B;
      }

      .st21 {
        mix-blend-mode: overlay;
      }

      .st21, .st26 {
        opacity: .2;
      }

      .st27 {
        fill: #BF5E26;
      }

      .st28 {
        fill: #F27830;
      }

      .st29 {
        fill: url(#linear-gradient11);
      }

      .st30 {
        fill: url(#New_Gradient_Swatch2);
      }

      .st31 {
        fill: #F4F2F0;
      }

      .st32 {
        fill: #F27830;
      }

      .st33 {
        fill: #273B5B;
      }

      .st34 {
        fill: url(#Gradient_Blue_218);
      }

      .st35 {
        fill: #111827;
      }

      .st36 {
        fill: url(#Gradient_Blue_216);
      }

      .st37 {
        fill: #273B5B;
      }

      .st38 {
        fill: #F27830;
      }

      .st39 {
        isolation: isolate;
      }

      .st40 {
        fill: #F27830;
      }

      .st41 {
        fill: url(#linear-gradient12);
      }

      .st42 {
        fill: #273B5B;
      }

      .st43 {
        fill: url(#linear-gradient7);
      }

      .st44 {
        fill: #BF5E26;
      }

      .st45 {
        fill: url(#linear-gradient4);
      }

      .st46 {
        fill: url(#Gradient_Blue_219);
      }

      .st47 {
        fill: url(#linear-gradient14);
      }

      .st48 {
        fill: url(#linear-gradient5);
      }

      .st49 {
        fill: url(#New_Gradient_Swatch);
      }

      .st50 {
        fill: url(#linear-gradient3);
      }

      .st51 {
        fill: url(#Gradient_Blue_29);
      }

      .st52 {
        opacity: 0;
      }

      .st52, .st53 {
        fill: #F4F2F0;
      }

      .st54 {
        fill: #273B5B;
      }

      .st55 {
        fill: url(#linear-gradient15);
      }

      .st56 {
        fill: #F4F2F0;
      }

      .st57 {
        fill: #273B5B;
      }

      .st58 {
        fill: #273B5B;
      }

      .st59 {
        fill: #273B5B;
      }

      .st60 {
        fill: #F4F2F0;
      }

      .st61 {
        fill: #273B5B;
      }

      .st62 {
        fill: url(#linear-gradient6);
      }

      .st63 {
        fill: url(#Gradient_Blue_26);
      }

      .st64 {
        fill: url(#linear-gradient13);
      }

      .st65 {
        fill: #273B5B;
      }

      .st66 {
        fill: #F27830;
      }

      .st67 {
        fill: #273B5B;
      }

      .st68 {
        fill: #273B5B;
      }
    </style>
    <linearGradient id="linear-gradient" x1="932.2" y1="1305" x2="1652.2" y2="522.7" gradientUnits="userSpaceOnUse">
      <stop offset="0" stop-color="#339"/>
      <stop offset="1" stop-color="#6b6bb5"/>
    </linearGradient>
    <linearGradient id="linear-gradient1" x1="1598.1" y1="506.2" x2="989.3" y2="1318.3" gradientUnits="userSpaceOnUse">
      <stop offset="0" stop-color="#9090c7"/>
      <stop offset="1" stop-color="#6b6bb5"/>
    </linearGradient>
    <linearGradient id="Gradient_Blue_2" data-name="Gradient Blue 2" x1="832.3" y1="584.2" x2="783.5" y2="649.4" gradientUnits="userSpaceOnUse">
      <stop offset="0" stop-color="#2a2a86"/>
      <stop offset="1" stop-color="#171761"/>
    </linearGradient>
    <linearGradient id="Gradient_Blue_21" data-name="Gradient Blue 2" x1="838.8" y1="727.1" x2="776.5" y2="810.1" xlink:href="#Gradient_Blue_2"/>
    <linearGradient id="Gradient_Blue_22" data-name="Gradient Blue 2" x1="838.8" y1="873.2" x2="776.5" y2="956.2" xlink:href="#Gradient_Blue_2"/>
    <linearGradient id="Gradient_Blue_23" data-name="Gradient Blue 2" x1="838.8" y1="1029.5" x2="776.5" y2="1112.5" xlink:href="#Gradient_Blue_2"/>
    <linearGradient id="Gradient_Blue_24" data-name="Gradient Blue 2" x1="838.8" y1="1176.1" x2="776.5" y2="1259.1" xlink:href="#Gradient_Blue_2"/>
    <linearGradient id="Gradient_Blue_25" data-name="Gradient Blue 2" x1="1814.1" y1="575.6" x2="1751.9" y2="658.7" xlink:href="#Gradient_Blue_2"/>
    <linearGradient id="Gradient_Blue_26" data-name="Gradient Blue 2" x1="1814.1" y1="727.1" x2="1751.9" y2="810.1" xlink:href="#Gradient_Blue_2"/>
    <linearGradient id="Gradient_Blue_27" data-name="Gradient Blue 2" x1="1814.1" y1="873.2" x2="1751.9" y2="956.2" xlink:href="#Gradient_Blue_2"/>
    <linearGradient id="Gradient_Blue_28" data-name="Gradient Blue 2" x1="1814.1" y1="1029.5" x2="1751.9" y2="1112.5" xlink:href="#Gradient_Blue_2"/>
    <linearGradient id="Gradient_Blue_29" data-name="Gradient Blue 2" x1="1814.1" y1="1176.1" x2="1751.9" y2="1259.1" xlink:href="#Gradient_Blue_2"/>
    <linearGradient id="linear-gradient2" x1="2191.2" y1="1887.4" x2="1999.5" y2="2145" gradientTransform="translate(3359.7 2998.3) rotate(-90) scale(1 -1)" gradientUnits="userSpaceOnUse">
      <stop offset="0" stop-color="#9090c7"/>
      <stop offset="1" stop-color="#4343a1"/>
    </linearGradient>
    <linearGradient id="linear-gradient3" x1="2113.5" y1="2190" x2="2018.7" y2="2027.9" gradientTransform="translate(4196.7 391.3) rotate(-146.1) scale(1 -1)" gradientUnits="userSpaceOnUse">
      <stop offset="0" stop-color="#419c41"/>
      <stop offset="1" stop-color="#7ed47e"/>
    </linearGradient>
    <linearGradient id="linear-gradient4" x1="2215.3" y1="2090" x2="2248.7" y2="1982" xlink:href="#linear-gradient3"/>
    <linearGradient id="New_Gradient_Swatch" data-name="New Gradient Swatch" x1="2157.1" y1="1933.4" x2="2213.4" y2="1933.4" gradientTransform="translate(4196.7 391.3) rotate(-146.1) scale(1 -1)" gradientUnits="userSpaceOnUse">
      <stop offset="0" stop-color="#ffe081"/>
      <stop offset="1" stop-color="#fc3"/>
    </linearGradient>
    <linearGradient id="linear-gradient5" x1="4527.2" y1="904.4" x2="4335.4" y2="1161.9" gradientTransform="translate(5726.9) rotate(-180) scale(1 -1)" xlink:href="#linear-gradient2"/>
    <linearGradient id="linear-gradient6" x1="4449.5" y1="1207" x2="4354.7" y2="1044.8" gradientTransform="translate(5726.9) rotate(-180) scale(1 -1)" xlink:href="#linear-gradient3"/>
    <linearGradient id="linear-gradient7" x1="4551.3" y1="1106.9" x2="4584.7" y2="999" gradientTransform="translate(5726.9) rotate(-180) scale(1 -1)" xlink:href="#linear-gradient3"/>
    <linearGradient id="New_Gradient_Swatch1" data-name="New Gradient Swatch" x1="4493.1" y1="950.3" x2="4549.3" y2="950.3" gradientTransform="translate(5726.9) rotate(-180) scale(1 -1)" xlink:href="#New_Gradient_Swatch"/>
    <linearGradient id="linear-gradient8" x1="1219" y1="1445.5" x2="1939" y2="663.2" xlink:href="#linear-gradient"/>
    <linearGradient id="linear-gradient9" x1="1884.9" y1="646.7" x2="1276.1" y2="1458.8" xlink:href="#linear-gradient1"/>
    <linearGradient id="Gradient_Blue_210" data-name="Gradient Blue 2" x1="1119.1" y1="724.7" x2="1070.3" y2="789.8" xlink:href="#Gradient_Blue_2"/>
    <linearGradient id="Gradient_Blue_211" data-name="Gradient Blue 2" x1="1125.5" y1="867.6" x2="1063.3" y2="950.6" xlink:href="#Gradient_Blue_2"/>
    <linearGradient id="Gradient_Blue_212" data-name="Gradient Blue 2" x1="1125.5" y1="1013.7" x2="1063.3" y2="1096.7" xlink:href="#Gradient_Blue_2"/>
    <linearGradient id="Gradient_Blue_213" data-name="Gradient Blue 2" x1="1125.5" y1="1170" x2="1063.3" y2="1253" xlink:href="#Gradient_Blue_2"/>
    <linearGradient id="Gradient_Blue_214" data-name="Gradient Blue 2" x1="1125.5" y1="1316.6" x2="1063.3" y2="1399.6" xlink:href="#Gradient_Blue_2"/>
    <linearGradient id="Gradient_Blue_215" data-name="Gradient Blue 2" x1="2100.9" y1="716.1" x2="2038.6" y2="799.1" xlink:href="#Gradient_Blue_2"/>
    <linearGradient id="Gradient_Blue_216" data-name="Gradient Blue 2" x1="2100.9" y1="867.6" x2="2038.6" y2="950.6" xlink:href="#Gradient_Blue_2"/>
    <linearGradient id="Gradient_Blue_217" data-name="Gradient Blue 2" x1="2100.9" y1="1013.7" x2="2038.6" y2="1096.7" xlink:href="#Gradient_Blue_2"/>
    <linearGradient id="Gradient_Blue_218" data-name="Gradient Blue 2" x1="2100.9" y1="1170" x2="2038.6" y2="1253" xlink:href="#Gradient_Blue_2"/>
    <linearGradient id="Gradient_Blue_219" data-name="Gradient Blue 2" x1="2100.9" y1="1316.6" x2="2038.6" y2="1399.6" xlink:href="#Gradient_Blue_2"/>
    <linearGradient id="linear-gradient10" x1="1874.8" y1="1844.3" x2="1683" y2="2101.9" gradientTransform="translate(3603.4 2822.4) rotate(-90) scale(1 -1)" xlink:href="#linear-gradient2"/>
    <linearGradient id="linear-gradient11" x1="1797.1" y1="2146.9" x2="1702.3" y2="1984.7" xlink:href="#linear-gradient3"/>
    <linearGradient id="linear-gradient12" x1="1898.9" y1="2046.9" x2="1932.3" y2="1938.9" xlink:href="#linear-gradient3"/>
    <linearGradient id="New_Gradient_Swatch2" data-name="New Gradient Swatch" x1="1840.6" y1="1890.3" x2="1896.9" y2="1890.3" xlink:href="#New_Gradient_Swatch"/>
    <linearGradient id="linear-gradient13" x1="4240.4" y1="1044.9" x2="4048.7" y2="1302.4" gradientTransform="translate(5726.9) rotate(-180) scale(1 -1)" xlink:href="#linear-gradient2"/>
    <linearGradient id="linear-gradient14" x1="4162.7" y1="1347.4" x2="4067.9" y2="1185.3" gradientTransform="translate(5726.9) rotate(-180) scale(1 -1)" xlink:href="#linear-gradient3"/>
    <linearGradient id="linear-gradient15" x1="4264.5" y1="1247.4" x2="4297.9" y2="1139.5" gradientTransform="translate(5726.9) rotate(-180) scale(1 -1)" xlink:href="#linear-gradient3"/>
    <linearGradient id="New_Gradient_Swatch3" data-name="New Gradient Swatch" x1="4206.3" y1="1090.8" x2="4262.6" y2="1090.8" gradientTransform="translate(5726.9) rotate(-180) scale(1 -1)" xlink:href="#New_Gradient_Swatch"/>
    <linearGradient id="linear-gradient16" x1="1505.8" y1="1586" x2="2225.8" y2="803.7" xlink:href="#linear-gradient"/>
    <linearGradient id="linear-gradient17" x1="2171.6" y1="787.2" x2="1562.9" y2="1599.3" xlink:href="#linear-gradient1"/>
    <linearGradient id="Gradient_Blue_220" data-name="Gradient Blue 2" x1="1405.9" y1="865.2" x2="1357.1" y2="930.3" xlink:href="#Gradient_Blue_2"/>
    <linearGradient id="Gradient_Blue_221" data-name="Gradient Blue 2" x1="1412.3" y1="1008.1" x2="1350.1" y2="1091.1" xlink:href="#Gradient_Blue_2"/>
    <linearGradient id="Gradient_Blue_222" data-name="Gradient Blue 2" x1="1412.3" y1="1154.2" x2="1350.1" y2="1237.2" xlink:href="#Gradient_Blue_2"/>
    <linearGradient id="Gradient_Blue_223" data-name="Gradient Blue 2" x1="1412.3" y1="1310.5" x2="1350.1" y2="1393.5" xlink:href="#Gradient_Blue_2"/>
    <linearGradient id="Gradient_Blue_224" data-name="Gradient Blue 2" x1="1412.3" y1="1457" x2="1350.1" y2="1540.1" xlink:href="#Gradient_Blue_2"/>
    <linearGradient id="Gradient_Blue_225" data-name="Gradient Blue 2" x1="2387.6" y1="856.6" x2="2325.4" y2="939.6" xlink:href="#Gradient_Blue_2"/>
    <linearGradient id="Gradient_Blue_226" data-name="Gradient Blue 2" x1="2387.6" y1="1008.1" x2="2325.4" y2="1091.1" xlink:href="#Gradient_Blue_2"/>
    <linearGradient id="Gradient_Blue_227" data-name="Gradient Blue 2" x1="2387.6" y1="1154.2" x2="2325.4" y2="1237.2" xlink:href="#Gradient_Blue_2"/>
    <linearGradient id="Gradient_Blue_228" data-name="Gradient Blue 2" x1="2387.6" y1="1310.5" x2="2325.4" y2="1393.5" xlink:href="#Gradient_Blue_2"/>
    <linearGradient id="Gradient_Blue_229" data-name="Gradient Blue 2" x1="2387.6" y1="1457" x2="2325.4" y2="1540.1" xlink:href="#Gradient_Blue_2"/>
    <linearGradient id="linear-gradient18" x1="1558.4" y1="1801.2" x2="1366.6" y2="2058.8" gradientTransform="translate(3847 2646.5) rotate(-90) scale(1 -1)" xlink:href="#linear-gradient2"/>
    <linearGradient id="linear-gradient19" x1="1480.6" y1="2103.8" x2="1385.9" y2="1941.6" xlink:href="#linear-gradient3"/>
    <linearGradient id="linear-gradient20" x1="1582.5" y1="2003.8" x2="1615.8" y2="1895.8" xlink:href="#linear-gradient3"/>
    <linearGradient id="New_Gradient_Swatch4" data-name="New Gradient Swatch" x1="1524.2" y1="1847.2" x2="1580.5" y2="1847.2" xlink:href="#New_Gradient_Swatch"/>
    <linearGradient id="linear-gradient21" x1="3953.6" y1="1185.4" x2="3761.9" y2="1442.9" gradientTransform="translate(5726.9) rotate(-180) scale(1 -1)" xlink:href="#linear-gradient2"/>
    <linearGradient id="linear-gradient22" x1="3875.9" y1="1487.9" x2="3781.1" y2="1325.8" gradientTransform="translate(5726.9) rotate(-180) scale(1 -1)" xlink:href="#linear-gradient3"/>
    <linearGradient id="linear-gradient23" x1="3977.8" y1="1387.9" x2="4011.1" y2="1280" gradientTransform="translate(5726.9) rotate(-180) scale(1 -1)" xlink:href="#linear-gradient3"/>
    <linearGradient id="New_Gradient_Swatch5" data-name="New Gradient Swatch" x1="3919.5" y1="1231.3" x2="3975.8" y2="1231.3" gradientTransform="translate(5726.9) rotate(-180) scale(1 -1)" xlink:href="#New_Gradient_Swatch"/>
  </defs>
  <g class="st39">
    <g id="BG">
      <rect class="st15" x="0" y="0" width="3000" height="2000"/>
    </g>
    <g id="BG2">
      <g>
        <path class="st35" d="M2653,1582.1h-201.7c-36.7,0-66.4,29.7-66.4,66.4s29.7,66.4,66.4,66.4h201.7c36.7,0,66.4-29.7,66.4-66.4s-29.7-66.4-66.4-66.4Z"/>
        <path class="st35" d="M2277.9,1582.1H617.7c-36.7,0-66.4,29.7-66.4,66.4s29.7,66.4,66.4,66.4h1660.1c36.7,0,66.4-29.7,66.4-66.4s-29.7-66.4-66.4-66.4Z"/>
        <path class="st35" d="M446.7,1582.1h-99.7c-36.7,0-66.4,29.7-66.4,66.4s29.7,66.4,66.4,66.4h99.7c36.7,0,66.4-29.7,66.4-66.4s-29.7-66.4-66.4-66.4Z"/>
      </g>
    </g>
    <g id="Illustration">
      <g class="st26">
        <path class="st53" d="M866.7,425.6v5.6c0,.3-.1.6-.4.8l-7.8,6.1c-.5.4-.5,1.2,0,1.6l7.8,6.1c.2.2.4.5.4.8v5.6c0,.8-.9,1.3-1.5.8l-16.9-13.4c-.5-.4-.5-1.2,0-1.6l16.9-13.4c.6-.5,1.5,0,1.5.8Z"/>
        <path class="st53" d="M884.6,425.6v5.6c0,.3-.1.6-.4.8l-7.8,6.1c-.5.4-.5,1.2,0,1.6l7.8,6.1c.2.2.4.5.4.8v5.6c0,.8-.9,1.3-1.5.8l-16.9-13.4c-.5-.4-.5-1.2,0-1.6l16.9-13.4c.6-.5,1.5,0,1.5.8Z"/>
        <path class="st53" d="M848.9,425.6v5.6c0,.3-.1.6-.4.8l-7.8,6.1c-.5.4-.5,1.2,0,1.6l7.8,6.1c.2.2.4.5.4.8v5.6c0,.8-.9,1.3-1.5.8l-16.9-13.4c-.5-.4-.5-1.2,0-1.6l16.9-13.4c.6-.5,1.5,0,1.5.8Z"/>
        <path class="st53" d="M831,425.6v5.6c0,.3-.1.6-.4.8l-7.8,6.1c-.5.4-.5,1.2,0,1.6l7.8,6.1c.2.2.4.5.4.8v5.6c0,.8-.9,1.3-1.5.8l-16.9-13.4c-.5-.4-.5-1.2,0-1.6l16.9-13.4c.6-.5,1.5,0,1.5.8Z"/>
      </g>
      <g class="st26">
        <path class="st53" d="M2243.3,598.8h5.6c.3,0,.6.1.8.4l6.1,7.8c.4.5,1.2.5,1.6,0l6.1-7.8c.2-.2.5-.4.8-.4h5.6c.8,0,1.3.9.8,1.5l-13.4,16.9c-.4.5-1.2.5-1.6,0l-13.4-16.9c-.5-.6,0-1.5.8-1.5Z"/>
        <path class="st53" d="M2243.3,581h5.6c.3,0,.6.1.8.4l6.1,7.8c.4.5,1.2.5,1.6,0l6.1-7.8c.2-.2.5-.4.8-.4h5.6c.8,0,1.3.9.8,1.5l-13.4,16.9c-.4.5-1.2.5-1.6,0l-13.4-16.9c-.5-.6,0-1.5.8-1.5Z"/>
        <path class="st53" d="M2243.3,616.6h5.6c.3,0,.6.1.8.4l6.1,7.8c.4.5,1.2.5,1.6,0l6.1-7.8c.2-.2.5-.4.8-.4h5.6c.8,0,1.3.9.8,1.5l-13.4,16.9c-.4.5-1.2.5-1.6,0l-13.4-16.9c-.5-.6,0-1.5.8-1.5Z"/>
        <path class="st53" d="M2243.3,634.5h5.6c.3,0,.6.1.8.4l6.1,7.8c.4.5,1.2.5,1.6,0l6.1-7.8c.2-.2.5-.4.8-.4h5.6c.8,0,1.3.9.8,1.5l-13.4,16.9c-.4.5-1.2.5-1.6,0l-13.4-16.9c-.5-.6,0-1.5.8-1.5Z"/>
      </g>
      <g class="st26">
        <path class="st53" d="M803.3,1548.9v-5.6c0-.3.1-.6.4-.8l7.8-6.1c.5-.4.5-1.2,0-1.6l-7.8-6.1c-.2-.2-.4-.5-.4-.8v-5.6c0-.8.9-1.3,1.5-.8l16.9,13.4c.5.4.5,1.2,0,1.6l-16.9,13.4c-.6.5-1.5,0-1.5-.8Z"/>
        <path class="st53" d="M785.5,1548.9v-5.6c0-.3.1-.6.4-.8l7.8-6.1c.5-.4.5-1.2,0-1.6l-7.8-6.1c-.2-.2-.4-.5-.4-.8v-5.6c0-.8.9-1.3,1.5-.8l16.9,13.4c.5.4.5,1.2,0,1.6l-16.9,13.4c-.6.5-1.5,0-1.5-.8Z"/>
        <path class="st53" d="M821.2,1548.9v-5.6c0-.3.1-.6.4-.8l7.8-6.1c.5-.4.5-1.2,0-1.6l-7.8-6.1c-.2-.2-.4-.5-.4-.8v-5.6c0-.8.9-1.3,1.5-.8l16.9,13.4c.5.4.5,1.2,0,1.6l-16.9,13.4c-.6.5-1.5,0-1.5-.8Z"/>
        <path class="st53" d="M839,1548.9v-5.6c0-.3.1-.6.4-.8l7.8-6.1c.5-.4.5-1.2,0-1.6l-7.8-6.1c-.2-.2-.4-.5-.4-.8v-5.6c0-.8.9-1.3,1.5-.8l16.9,13.4c.5.4.5,1.2,0,1.6l-16.9,13.4c-.6.5-1.5,0-1.5-.8Z"/>
      </g>
      <g>
        <rect class="st53" x="2314.2" y="687.3" width="3.3" height="36.8"/>
        <rect class="st53" x="2314.2" y="687.3" width="3.3" height="36.8" transform="translate(1610.2 3021.5) rotate(-90)"/>
      </g>
      <g>
        <rect class="st53" x="619.8" y="890.7" width="3.3" height="36.8"/>
        <rect class="st53" x="619.8" y="890.7" width="3.3" height="36.8" transform="translate(-287.7 1530.5) rotate(-90)"/>
      </g>
      <path class="st52" d="M2225.1,466.8l-239.2-119.8c-3.5-1.8-7.8-.3-9.5,3.2l-76.6,153c-1.8,3.5-.3,7.8,3.2,9.5l239.2,119.8c3.5,1.8,7.8.3,9.5-3.2l76.6-153c1.8-3.5.3-7.8-3.2-9.5ZM1931.4,513.7c-.8,1.5-2.6,2.1-4.2,1.4l-12.1-6.1c-1.5-.8-2.2-2.6-1.4-4.2l6.1-12.1c.8-1.5,2.6-2.1,4.2-1.4l12.1,6.1c1.5.8,2.1,2.6,1.4,4.2l-6.1,12.1ZM1947.3,481.9c-.8,1.5-2.6,2.1-4.2,1.4l-12.1-6.1c-1.5-.8-2.2-2.6-1.4-4.2l6.1-12.1c.8-1.5,2.6-2.1,4.2-1.4l12.1,6.1c1.5.8,2.2,2.6,1.4,4.2l-6.1,12.1ZM1964.2,448.1c-.8,1.5-2.6,2.1-4.2,1.4l-12.1-6.1c-1.5-.8-2.1-2.6-1.4-4.2l6.1-12.1c.8-1.5,2.6-2.1,4.2-1.4l12.1,6.1c1.5.8,2.2,2.6,1.4,4.2l-6.1,12.1ZM1980.1,416.4c-.8,1.5-2.6,2.1-4.2,1.4l-12.1-6.1c-1.5-.8-2.2-2.6-1.4-4.2l6.1-12.1c.8-1.5,2.6-2.1,4.2-1.4l12.1,6.1c1.5.8,2.1,2.6,1.4,4.2l-6.1,12.1ZM1996.5,383.6c-.8,1.5-2.6,2.1-4.2,1.4l-12.1-6.1c-1.5-.8-2.2-2.6-1.4-4.2l6.1-12.1c.8-1.5,2.6-2.1,4.2-1.4l12.1,6.1c1.5.8,2.2,2.6,1.4,4.2l-6.1,12.1ZM2113.8,605.8l-172.5-86.4,72.9-145.6,172.5,86.4-72.9,145.6ZM2142.7,619.5c-.8,1.5-2.6,2.2-4.2,1.4l-12.1-6.1c-1.5-.8-2.2-2.6-1.4-4.2l6.1-12.1c.8-1.5,2.6-2.2,4.2-1.4l12.1,6.1c1.5.8,2.1,2.6,1.4,4.2l-6.1,12.1ZM2158.6,587.7c-.8,1.5-2.6,2.2-4.2,1.4l-12.1-6.1c-1.5-.8-2.2-2.6-1.4-4.2l6.1-12.1c.8-1.5,2.6-2.2,4.2-1.4l12.1,6.1c1.5.8,2.2,2.6,1.4,4.2l-6.1,12.1ZM2175.6,553.9c-.8,1.5-2.6,2.2-4.2,1.4l-12.1-6.1c-1.5-.8-2.1-2.6-1.4-4.2l6.1-12.1c.8-1.5,2.6-2.2,4.2-1.4l12.1,6.1c1.5.8,2.2,2.6,1.4,4.2l-6.1,12.1ZM2191.4,522.2c-.8,1.5-2.6,2.2-4.2,1.4l-12.1-6.1c-1.5-.8-2.2-2.6-1.4-4.2l6.1-12.1c.8-1.5,2.6-2.2,4.2-1.4l12.1,6.1c1.5.8,2.1,2.6,1.4,4.2l-6.1,12.1ZM2207.8,489.4c-.8,1.5-2.6,2.2-4.2,1.4l-12.1-6.1c-1.5-.8-2.2-2.6-1.4-4.2l6.1-12.1c.8-1.5,2.6-2.2,4.2-1.4l12.1,6.1c1.5.8,2.2,2.6,1.4,4.2l-6.1,12.1Z"/>
      <path class="st52" d="M606.4,374.7l-114.6,333.2c-1.7,4.9.9,10.2,5.8,11.9l213.1,73.3c4.9,1.7,10.2-.9,11.9-5.8l114.6-333.2c1.7-4.9-.9-10.2-5.8-11.9l-213.1-73.3c-4.9-1.7-10.2.9-11.9,5.8ZM718.8,749.9c2.1.7,3.3,3.1,2.5,5.2l-5.8,16.9c-.7,2.1-3,3.3-5.2,2.5l-16.8-5.8c-2.1-.7-3.3-3.1-2.5-5.2l5.8-16.9c.7-2.1,3.1-3.3,5.2-2.5l16.8,5.8ZM674.6,734.7c2.1.7,3.3,3.1,2.5,5.2l-5.8,16.9c-.7,2.1-3,3.3-5.2,2.5l-16.8-5.8c-2.1-.7-3.3-3.1-2.5-5.2l5.8-16.9c.7-2.1,3-3.3,5.2-2.5l16.8,5.8ZM627.4,718.5c2.1.7,3.3,3.1,2.5,5.2l-5.8,16.9c-.7,2.1-3.1,3.3-5.2,2.5l-16.8-5.8c-2.1-.7-3.3-3.1-2.5-5.2l5.8-16.9c.7-2.1,3-3.3,5.2-2.5l16.8,5.8ZM583.3,703.3c2.1.7,3.3,3.1,2.5,5.2l-5.8,16.9c-.7,2.1-3,3.3-5.2,2.5l-16.8-5.8c-2.1-.7-3.3-3.1-2.5-5.2l5.8-16.9c.7-2.1,3.1-3.3,5.2-2.5l16.8,5.8ZM537.6,687.6c2.1.7,3.3,3.1,2.5,5.2l-5.8,16.9c-.7,2.1-3,3.3-5.2,2.5l-16.8-5.8c-2.1-.7-3.3-3.1-2.5-5.2l5.8-16.9c.7-2.1,3-3.3,5.2-2.5l16.8,5.8ZM807.2,495.7l-82.7,240.3-202.7-69.7,82.7-240.3,202.7,69.7ZM820.1,455.6c2.1.7,3.3,3,2.5,5.2l-5.8,16.8c-.7,2.1-3,3.3-5.2,2.5l-16.8-5.8c-2.1-.7-3.3-3-2.5-5.2l5.8-16.8c.7-2.1,3.1-3.3,5.2-2.5l16.8,5.8ZM775.9,440.4c2.1.7,3.3,3,2.5,5.2l-5.8,16.8c-.7,2.1-3,3.3-5.2,2.5l-16.8-5.8c-2.1-.7-3.3-3-2.5-5.2l5.8-16.8c.7-2.1,3-3.3,5.2-2.5l16.8,5.8ZM728.7,424.1c2.1.7,3.3,3,2.5,5.2l-5.8,16.8c-.7,2.1-3.1,3.3-5.2,2.5l-16.8-5.8c-2.1-.7-3.3-3-2.5-5.2l5.8-16.8c.7-2.1,3-3.3,5.2-2.5l16.8,5.8ZM684.6,409c2.1.7,3.3,3,2.5,5.2l-5.8,16.8c-.7,2.1-3,3.3-5.2,2.5l-16.8-5.8c-2.1-.7-3.3-3-2.5-5.2l5.8-16.8c.7-2.1,3.1-3.3,5.2-2.5l16.8,5.8ZM638.9,393.2c2.1.7,3.3,3,2.5,5.2l-5.8,16.8c-.7,2.1-3,3.3-5.2,2.5l-16.8-5.8c-2.1-.7-3.3-3-2.5-5.2l5.8-16.8c.7-2.1,3-3.3,5.2-2.5l16.8,5.8Z"/>
      <path class="st52" d="M2487,1311.8l-105.6,80.4c-1.5,1.2-1.8,3.4-.7,4.9l51.4,67.5c1.2,1.5,3.4,1.8,4.9.7l105.6-80.4c1.5-1.2,1.8-3.4.7-4.9l-51.4-67.5c-1.2-1.5-3.4-1.8-4.9-.7ZM2443.7,1452.9c.5.7.4,1.6-.3,2.2l-5.3,4.1c-.7.5-1.6.4-2.2-.3l-4.1-5.3c-.5-.7-.4-1.6.3-2.2l5.3-4.1c.7-.5,1.6-.4,2.2.3l4.1,5.3ZM2433.1,1438.9c.5.7.4,1.6-.3,2.2l-5.3,4.1c-.7.5-1.6.4-2.2-.3l-4.1-5.3c-.5-.7-.4-1.6.3-2.2l5.3-4.1c.7-.5,1.6-.4,2.2.3l4.1,5.3ZM2421.7,1423.9c.5.7.4,1.6-.3,2.2l-5.3,4.1c-.7.5-1.6.4-2.2-.3l-4.1-5.3c-.5-.7-.4-1.6.3-2.2l5.3-4.1c.7-.5,1.6-.4,2.2.3l4.1,5.3ZM2411.1,1409.9c.5.7.4,1.6-.3,2.2l-5.3,4.1c-.7.5-1.6.4-2.2-.3l-4.1-5.3c-.5-.7-.4-1.6.3-2.2l5.3-4.1c.7-.5,1.6-.4,2.2.3l4.1,5.3ZM2400,1395.5c.5.7.4,1.6-.3,2.2l-5.3,4.1c-.7.5-1.6.4-2.2-.3l-4.1-5.3c-.5-.7-.4-1.6.3-2.2l5.3-4.1c.7-.5,1.6-.4,2.2.3l4.1,5.3ZM2524.6,1391.7l-76.1,58-48.9-64.2,76.1-58,48.9,64.2ZM2537,1381.9c.5.7.4,1.6-.3,2.2l-5.3,4.1c-.7.5-1.6.4-2.2-.3l-4.1-5.3c-.5-.7-.4-1.6.3-2.2l5.3-4.1c.7-.5,1.6-.4,2.2.3l4.1,5.3ZM2526.3,1367.8c.5.7.4,1.6-.3,2.2l-5.3,4.1c-.7.5-1.6.4-2.2-.3l-4.1-5.3c-.5-.7-.4-1.6.3-2.2l5.3-4.1c.7-.5,1.6-.4,2.2.3l4.1,5.3ZM2515,1352.9c.5.7.4,1.6-.3,2.2l-5.3,4.1c-.7.5-1.6.4-2.2-.3l-4.1-5.3c-.5-.7-.4-1.6.3-2.2l5.3-4.1c.7-.5,1.6-.4,2.2.3l4.1,5.3ZM2504.3,1338.9c.5.7.4,1.6-.3,2.2l-5.3,4.1c-.7.5-1.6.4-2.2-.3l-4.1-5.3c-.5-.7-.4-1.6.3-2.2l5.3-4.1c.7-.5,1.6-.4,2.2.3l4.1,5.3ZM2493.3,1324.4c.5.7.4,1.6-.3,2.2l-5.3,4.1c-.7.5-1.6.4-2.2-.3l-4.1-5.3c-.5-.7-.4-1.6.3-2.2l5.3-4.1c.7-.5,1.6-.4,2.2.3l4.1,5.3Z"/>
      <path class="st52" d="M1404.1,352.5l-125,44.4c-1.8.7-2.8,2.7-2.1,4.5l28.4,80c.7,1.8,2.7,2.8,4.5,2.1l125-44.4c1.8-.7,2.8-2.7,2.1-4.5l-28.4-80c-.7-1.8-2.7-2.8-4.5-2.1ZM1319.9,473.7c.3.8-.1,1.7-.9,2l-6.3,2.2c-.8.3-1.7-.1-2-.9l-2.2-6.3c-.3-.8.1-1.7.9-2l6.3-2.2c.8-.3,1.7.1,2,.9l2.2,6.3ZM1314,457.1c.3.8-.1,1.7-.9,2l-6.3,2.2c-.8.3-1.7-.1-2-.9l-2.2-6.3c-.3-.8.1-1.7.9-2l6.3-2.2c.8-.3,1.7.1,2,.9l2.2,6.3ZM1307.7,439.4c.3.8-.1,1.7-.9,2l-6.3,2.2c-.8.3-1.7-.1-2-.9l-2.2-6.3c-.3-.8.1-1.7.9-2l6.3-2.2c.8-.3,1.7.1,2,.9l2.2,6.3ZM1301.8,422.8c.3.8-.1,1.7-.9,2l-6.3,2.2c-.8.3-1.7-.1-2-.9l-2.2-6.3c-.3-.8.1-1.7.9-2l6.3-2.2c.8-.3,1.7.1,2,.9l2.2,6.3ZM1295.7,405.7c.3.8-.1,1.7-.9,2l-6.3,2.2c-.8.3-1.7-.1-2-.9l-2.2-6.3c-.3-.8.1-1.7.9-2l6.3-2.2c.8-.3,1.7.1,2,.9l2.2,6.3ZM1415.5,440.1l-90.2,32-27-76.1,90.2-32,27,76.1ZM1430.4,434.4c.3.8-.1,1.7-.9,2l-6.3,2.2c-.8.3-1.7-.1-2-.9l-2.2-6.3c-.3-.8.1-1.7.9-2l6.3-2.2c.8-.3,1.7.1,2,.9l2.2,6.3ZM1424.5,417.9c.3.8-.1,1.7-.9,2l-6.3,2.2c-.8.3-1.7-.1-2-.9l-2.2-6.3c-.3-.8.1-1.7.9-2l6.3-2.2c.8-.3,1.7.1,2,.9l2.2,6.3ZM1418.2,400.2c.3.8-.1,1.7-.9,2l-6.3,2.2c-.8.3-1.7-.1-2-.9l-2.2-6.3c-.3-.8.1-1.7.9-2l6.3-2.2c.8-.3,1.7.1,2,.9l2.2,6.3ZM1412.3,383.6c.3.8-.1,1.7-.9,2l-6.3,2.2c-.8.3-1.7-.1-2-.9l-2.2-6.3c-.3-.8.1-1.7.9-2l6.3-2.2c.8-.3,1.7.1,2,.9l2.2,6.3ZM1406.2,366.4c.3.8-.1,1.7-.9,2l-6.3,2.2c-.8.3-1.7-.1-2-.9l-2.2-6.3c-.3-.8.1-1.7.9-2l6.3-2.2c.8-.3,1.7.1,2,.9l2.2,6.3Z"/>
      <g>
        <rect class="st53" x="1080.4" y="523.6" width="3.3" height="36.8" transform="translate(540.1 1624) rotate(-90)"/>
        <g>
          <path class="st66" d="M1875,1265.2c0,16.2-13.1,29.3-29.3,29.3H741.7c-16.2,0-29.3-13.1-29.3-29.3v-705.9c0-16.2,13.1-29.3,29.3-29.3h1104c16.2,0,29.3,13.1,29.3,29.3v705.9Z"/>
          <rect class="st17" x="895.6" y="576.4" width="796.2" height="671.7"/>
          <rect class="st59" x="766.9" y="576.4" width="81.4" height="81.4" rx="12.8" ry="12.8"/>
          <rect class="st4" x="766.9" y="727.9" width="81.4" height="81.4" rx="12.8" ry="12.8"/>
          <rect class="st61" x="766.9" y="874" width="81.4" height="81.4" rx="12.8" ry="12.8"/>
          <rect class="st16" x="766.9" y="1030.3" width="81.4" height="81.4" rx="12.8" ry="12.8"/>
          <rect class="st7" x="766.9" y="1176.9" width="81.4" height="81.4" rx="12.8" ry="12.8"/>
          <rect class="st25" x="1742.3" y="576.4" width="81.4" height="81.4" rx="12.8" ry="12.8"/>
          <rect class="st63" x="1742.3" y="727.9" width="81.4" height="81.4" rx="12.8" ry="12.8"/>
          <rect class="st13" x="1742.3" y="874" width="81.4" height="81.4" rx="12.8" ry="12.8"/>
          <rect class="st23" x="1742.3" y="1030.3" width="81.4" height="81.4" rx="12.8" ry="12.8"/>
          <rect class="st51" x="1742.3" y="1176.9" width="81.4" height="81.4" rx="12.8" ry="12.8"/>
          <g>
            <rect class="st10" x="1186.5" y="709.8" width="294.9" height="400.6" rx="18.6" ry="18.6" transform="translate(-165 1510.8) rotate(-56.1)"/>
            <path class="st21" d="M1254.9,683.2c3.6,0,7.2,1,10.4,3.2l301.7,202.4c8.5,5.7,10.8,17.3,5.1,25.9l-143.5,213.9c-3.6,5.4-9.5,8.3-15.5,8.3s-7.2-1-10.4-3.2l-301.7-202.4c-8.6-5.7-10.8-17.3-5.1-25.9l143.5-213.9c3.6-5.4,9.5-8.3,15.5-8.3M1254.9,677.2c-8.2,0-15.9,4.1-20.5,10.9l-143.5,213.9c-7.6,11.3-4.5,26.6,6.7,34.2l301.7,202.4c4.1,2.7,8.8,4.2,13.7,4.2,8.2,0,15.9-4.1,20.5-10.9l143.5-213.9c3.7-5.5,5-12,3.7-18.5-1.3-6.5-5-12-10.4-15.7l-301.7-202.4c-4.1-2.7-8.8-4.2-13.7-4.2h0Z"/>
            <rect class="st3" x="1201.7" y="726.8" width="264.5" height="366.6" transform="translate(-165 1510.8) rotate(-56.1)"/>
            <polygon class="st50" points="1437 1085.5 1371.9 879.1 1120.5 899.3 1108.1 917.8 1412.5 1122 1437 1085.5"/>
            <polygon class="st45" points="1264.3 887.7 1235.7 824.2 1170.4 824.8 1120.5 899.3 1264.3 887.7"/>
            <path class="st49" d="M1281.5,763.7c-8.7,12.9-5.2,30.4,7.7,39.1,12.9,8.7,30.4,5.2,39.1-7.7,8.7-12.9,5.2-30.4-7.7-39.1-12.9-8.7-30.4-5.2-39.1,7.7Z"/>
          </g>
          <g>
            <rect class="st10" x="1102.3" y="895.2" width="400.6" height="294.9" rx="18.6" ry="18.6"/>
            <path class="st21" d="M1484.3,895.2c10.3,0,18.6,8.3,18.6,18.6v257.6c0,10.3-8.3,18.6-18.6,18.6h-363.3c-10.3,0-18.6-8.3-18.6-18.6v-257.6c0-10.3,8.3-18.6,18.6-18.6h363.3M1484.3,889.2h-363.3c-13.6,0-24.6,11.1-24.6,24.6v257.6c0,13.6,11.1,24.6,24.6,24.6h363.3c13.6,0,24.6-11.1,24.6-24.6v-257.6c0-13.6-11.1-24.6-24.6-24.6h0Z"/>
            <rect class="st48" x="1119.3" y="910.4" width="366.6" height="264.5"/>
            <polygon class="st62" points="1485.9 1130.9 1316.8 995.8 1119.3 1152.7 1119.3 1174.9 1485.9 1174.9 1485.9 1130.9"/>
            <polygon class="st43" points="1232.3 1063 1173.2 1026.1 1119.3 1063 1119.3 1152.7 1232.3 1063"/>
            <path class="st9" d="M1177.5,950.3c0,15.5,12.6,28.1,28.1,28.1s28.1-12.6,28.1-28.1-12.6-28.1-28.1-28.1-28.1,12.6-28.1,28.1Z"/>
          </g>
        </g>
        <g>
          <path class="st28" d="M2161.8,1405.7c0,16.2-13.1,29.3-29.3,29.3h-1104c-16.2,0-29.3-13.1-29.3-29.3v-705.9c0-16.2,13.1-29.3,29.3-29.3h1104c16.2,0,29.3,13.1,29.3,29.3v705.9Z"/>
          <path class="st20" d="M2132.4,670.5c16.2,0,29.3,13.1,29.3,29.3v705.9c0,16.2-13.1,29.3-29.3,29.3h-1104c-16.2,0-29.3-13.1-29.3-29.3v-705.9c0-16.2,13.1-29.3,29.3-29.3h1104M2132.4,654.5h-1104c-25,0-45.3,20.3-45.3,45.3v705.9c0,25,20.3,45.3,45.3,45.3h1104c25,0,45.3-20.3,45.3-45.3v-705.9c0-25-20.3-45.3-45.3-45.3h0Z"/>
          <rect class="st19" x="1182.4" y="716.9" width="796.2" height="671.7"/>
          <rect class="st42" x="1053.7" y="716.9" width="81.4" height="81.4" rx="12.8" ry="12.8"/>
          <rect class="st0" x="1053.7" y="868.4" width="81.4" height="81.4" rx="12.8" ry="12.8"/>
          <rect class="st37" x="1053.7" y="1014.5" width="81.4" height="81.4" rx="12.8" ry="12.8"/>
          <rect class="st22" x="1053.7" y="1170.8" width="81.4" height="81.4" rx="12.8" ry="12.8"/>
          <rect class="st57" x="1053.7" y="1317.4" width="81.4" height="81.4" rx="12.8" ry="12.8"/>
          <rect class="st33" x="2029" y="716.9" width="81.4" height="81.4" rx="12.8" ry="12.8"/>
          <rect class="st36" x="2029" y="868.4" width="81.4" height="81.4" rx="12.8" ry="12.8"/>
          <rect class="st14" x="2029" y="1014.5" width="81.4" height="81.4" rx="12.8" ry="12.8"/>
          <rect class="st34" x="2029" y="1170.8" width="81.4" height="81.4" rx="12.8" ry="12.8"/>
          <rect class="st46" x="2029" y="1317.4" width="81.4" height="81.4" rx="12.8" ry="12.8"/>
          <g>
            <rect class="st10" x="1473.3" y="850.3" width="294.9" height="400.6" rx="18.6" ry="18.6" transform="translate(-154.6 1811.2) rotate(-56.1)"/>
            <path class="st21" d="M1541.7,823.7c3.6,0,7.2,1,10.4,3.2l301.7,202.4c8.5,5.7,10.8,17.3,5.1,25.9l-143.5,213.9c-3.6,5.4-9.5,8.3-15.5,8.3s-7.2-1-10.4-3.2l-301.7-202.4c-8.6-5.7-10.8-17.3-5.1-25.9l143.5-213.9c3.6-5.4,9.5-8.3,15.5-8.3M1541.7,817.7c-8.2,0-15.9,4.1-20.5,10.9l-143.5,213.9c-3.7,5.5-5,12-3.7,18.5,1.3,6.5,5,12,10.4,15.7l301.7,202.4c4.1,2.7,8.8,4.2,13.7,4.2,8.2,0,15.9-4.1,20.5-10.9l143.5-213.9c3.7-5.5,5-12,3.7-18.5-1.3-6.5-5-12-10.4-15.7l-301.7-202.4c-4.1-2.7-8.8-4.2-13.7-4.2h0Z"/>
            <rect class="st8" x="1488.5" y="867.3" width="264.5" height="366.6" transform="translate(-154.6 1811.2) rotate(-56.1)"/>
            <polygon class="st29" points="1723.8 1226 1658.7 1019.6 1407.2 1039.8 1394.9 1058.3 1699.3 1262.5 1723.8 1226"/>
            <polygon class="st41" points="1551.1 1028.2 1522.5 964.7 1457.2 965.3 1407.2 1039.8 1551.1 1028.2"/>
            <path class="st30" d="M1568.3,904.2c-8.7,12.9-5.2,30.4,7.7,39.1,12.9,8.7,30.4,5.2,39.1-7.7,8.7-12.9,5.2-30.4-7.7-39.1-12.9-8.7-30.4-5.2-39.1,7.7Z"/>
          </g>
          <g>
            <rect class="st10" x="1389.1" y="1035.7" width="400.6" height="294.9" rx="18.6" ry="18.6"/>
            <path class="st21" d="M1771.1,1035.7c10.3,0,18.6,8.3,18.6,18.6v257.6c0,10.3-8.3,18.6-18.6,18.6h-363.3c-10.3,0-18.6-8.3-18.6-18.6v-257.6c0-10.3,8.3-18.6,18.6-18.6h363.3M1771.1,1029.7h-363.3c-13.6,0-24.6,11.1-24.6,24.6v257.6c0,13.6,11.1,24.6,24.6,24.6h363.3c13.6,0,24.6-11.1,24.6-24.6v-257.6c0-13.6-11.1-24.6-24.6-24.6h0Z"/>
            <rect class="st64" x="1406.1" y="1050.9" width="366.6" height="264.5"/>
            <polygon class="st47" points="1772.7 1271.4 1603.6 1136.3 1406.1 1293.2 1406.1 1315.4 1772.7 1315.4 1772.7 1271.4"/>
            <polygon class="st55" points="1519.1 1203.4 1459.9 1166.6 1406.1 1203.4 1406.1 1293.2 1519.1 1203.4"/>
            <path class="st18" d="M1464.3,1090.8c0,15.5,12.6,28.1,28.1,28.1,15.5,0,28.1-12.6,28.1-28.1,0-15.5-12.6-28.1-28.1-28.1-15.5,0-28.1,12.6-28.1,28.1Z"/>
          </g>
        </g>
        <g>
          <path class="st32" d="M2448.5,1546.2c0,16.2-13.1,29.3-29.3,29.3h-1104c-16.2,0-29.3-13.1-29.3-29.3v-705.9c0-16.2,13.1-29.3,29.3-29.3h1104c16.2,0,29.3,13.1,29.3,29.3v705.9Z"/>
          <path class="st20" d="M2419.2,811c16.2,0,29.3,13.1,29.3,29.3v705.9c0,16.2-13.1,29.3-29.3,29.3h-1104c-16.2,0-29.3-13.1-29.3-29.3v-705.9c0-16.2,13.1-29.3,29.3-29.3h1104M2419.2,795h-1104c-25,0-45.3,20.3-45.3,45.3v705.9c0,25,20.3,45.3,45.3,45.3h1104c25,0,45.3-20.3,45.3-45.3v-705.9c0-25-20.3-45.3-45.3-45.3h0Z"/>
          <rect class="st56" x="1469.1" y="857.4" width="796.2" height="671.7"/>
          <rect class="st67" x="1340.5" y="857.4" width="81.4" height="81.4" rx="12.8" ry="12.8"/>
          <rect class="st58" x="1340.5" y="1008.9" width="81.4" height="81.4" rx="12.8" ry="12.8"/>
          <rect class="st1" x="1340.5" y="1155" width="81.4" height="81.4" rx="12.8" ry="12.8"/>
          <rect class="st65" x="1340.5" y="1311.3" width="81.4" height="81.4" rx="12.8" ry="12.8"/>
          <rect class="st2" x="1340.5" y="1457.8" width="81.4" height="81.4" rx="12.8" ry="12.8"/>
          <rect class="st54" x="2315.8" y="857.4" width="81.4" height="81.4" rx="12.8" ry="12.8"/>
          <rect class="st5" x="2315.8" y="1008.9" width="81.4" height="81.4" rx="12.8" ry="12.8"/>
          <rect class="st68" x="2315.8" y="1155" width="81.4" height="81.4" rx="12.8" ry="12.8"/>
          <rect class="st6" x="2315.8" y="1311.3" width="81.4" height="81.4" rx="12.8" ry="12.8"/>
          <rect class="st12" x="2315.8" y="1457.8" width="81.4" height="81.4" rx="12.8" ry="12.8"/>
          <g>
            <rect class="st10" x="1760.1" y="990.7" width="294.9" height="400.6" rx="18.6" ry="18.6" transform="translate(-144.3 2111.5) rotate(-56.1)"/>
            <path class="st21" d="M1828.5,964.2c3.6,0,7.2,1,10.4,3.2l301.7,202.4c8.5,5.7,10.8,17.3,5.1,25.9l-143.5,213.9c-3.6,5.4-9.5,8.3-15.5,8.3s-7.2-1-10.4-3.2l-301.7-202.4c-8.6-5.7-10.8-17.3-5.1-25.9l143.5-213.9c3.6-5.4,9.5-8.3,15.5-8.3M1828.5,958.2c-8.2,0-15.9,4.1-20.5,10.9l-143.5,213.9c-7.6,11.3-4.5,26.6,6.7,34.2l301.7,202.4c4.1,2.7,8.8,4.2,13.7,4.2,8.2,0,15.9-4.1,20.5-10.9l143.5-213.9c3.7-5.5,5-12,3.7-18.5-1.3-6.5-5-12-10.4-15.7l-301.7-202.4c-4.1-2.7-8.8-4.2-13.7-4.2h0Z"/>
            <rect class="st24" x="1775.3" y="1007.7" width="264.5" height="366.6" transform="translate(-144.3 2111.5) rotate(-56.1)"/>
            <polygon class="st40" points="2010.6 1366.5 1945.5 1160 1694 1180.3 1681.6 1198.7 1986.1 1403 2010.6 1366.5"/>
            <polygon class="st44" points="1837.8 1168.7 1809.3 1105.2 1744 1105.8 1694 1180.3 1837.8 1168.7"/>
            <path class="st60" d="M1855.1,1044.7c-8.7,12.9-5.2,30.4,7.7,39.1,12.9,8.7,30.4,5.2,39.1-7.7,8.7-12.9,5.2-30.4-7.7-39.1-12.9-8.7-30.4-5.2-39.1,7.7Z"/>
          </g>
          <g>
            <rect class="st10" x="1675.9" y="1176.2" width="400.6" height="294.9" rx="18.6" ry="18.6"/>
            <path class="st21" d="M2057.8,1176.2c10.3,0,18.6,8.3,18.6,18.6v257.6c0,10.3-8.3,18.6-18.6,18.6h-363.3c-10.3,0-18.6-8.3-18.6-18.6v-257.6c0-10.3,8.3-18.6,18.6-18.6h363.3M2057.8,1170.2h-363.3c-13.6,0-24.6,11.1-24.6,24.6v257.6c0,13.6,11.1,24.6,24.6,24.6h363.3c13.6,0,24.6-11.1,24.6-24.6v-257.6c0-13.6-11.1-24.6-24.6-24.6h0Z"/>
            <rect class="st11" x="1692.9" y="1191.4" width="366.6" height="264.5"/>
            <polygon class="st38" points="2059.5 1411.9 1890.4 1276.8 1692.9 1433.7 1692.9 1455.9 2059.5 1455.9 2059.5 1411.9"/>
            <polygon class="st27" points="1805.9 1343.9 1746.7 1307.1 1692.9 1343.9 1692.9 1433.7 1805.9 1343.9"/>
            <path class="st31" d="M1751.1,1231.3c0,15.5,12.6,28.1,28.1,28.1,15.5,0,28.1-12.6,28.1-28.1s-12.6-28.1-28.1-28.1c-15.5,0-28.1,12.6-28.1,28.1Z"/>
          </g>
        </g>
      </g>
      <path class="st52" d="M883.4,1353.6l-188,51.3c-2.8.8-4.4,3.6-3.6,6.4l32.8,120.2c.8,2.8,3.6,4.4,6.4,3.6l188-51.3c2.8-.8,4.4-3.6,3.6-6.4l-32.8-120.2c-.8-2.8-3.6-4.4-6.4-3.6ZM746.9,1521.7c.3,1.2-.4,2.4-1.6,2.8l-9.5,2.6c-1.2.3-2.4-.4-2.8-1.6l-2.6-9.5c-.3-1.2.4-2.4,1.6-2.8l9.5-2.6c1.2-.3,2.4.4,2.8,1.6l2.6,9.5ZM740.1,1496.8c.3,1.2-.4,2.4-1.6,2.8l-9.5,2.6c-1.2.3-2.4-.4-2.8-1.6l-2.6-9.5c-.3-1.2.4-2.4,1.6-2.8l9.5-2.6c1.2-.3,2.4.4,2.8,1.6l2.6,9.5ZM732.8,1470.2c.3,1.2-.4,2.4-1.6,2.8l-9.5,2.6c-1.2.3-2.4-.4-2.8-1.6l-2.6-9.5c-.3-1.2.4-2.4,1.6-2.8l9.5-2.6c1.2-.3,2.4.4,2.8,1.6l2.6,9.5ZM726,1445.3c.3,1.2-.4,2.4-1.6,2.8l-9.5,2.6c-1.2.3-2.4-.4-2.8-1.6l-2.6-9.5c-.3-1.2.4-2.4,1.6-2.8l9.5-2.6c1.2-.3,2.4.4,2.8,1.6l2.6,9.5ZM719,1419.5c.3,1.2-.4,2.4-1.6,2.8l-9.5,2.6c-1.2.3-2.4-.4-2.8-1.6l-2.6-9.5c-.3-1.2.4-2.4,1.6-2.8l9.5-2.6c1.2-.3,2.4.4,2.8,1.6l2.6,9.5ZM890.6,1483l-135.6,37-31.2-114.4,135.6-37,31.2,114.4ZM912.9,1476.4c.3,1.2-.4,2.4-1.6,2.8l-9.5,2.6c-1.2.3-2.4-.4-2.8-1.6l-2.6-9.5c-.3-1.2.4-2.4,1.6-2.8l9.5-2.6c1.2-.3,2.4.4,2.8,1.6l2.6,9.5ZM906.1,1451.4c.3,1.2-.4,2.4-1.6,2.8l-9.5,2.6c-1.2.3-2.4-.4-2.8-1.6l-2.6-9.5c-.3-1.2.4-2.4,1.6-2.8l9.5-2.6c1.2-.3,2.4.4,2.8,1.6l2.6,9.5ZM898.9,1424.8c.3,1.2-.4,2.4-1.6,2.8l-9.5,2.6c-1.2.3-2.4-.4-2.8-1.6l-2.6-9.5c-.3-1.2.4-2.4,1.6-2.8l9.5-2.6c1.2-.3,2.4.4,2.8,1.6l2.6,9.5ZM892.1,1399.9c.3,1.2-.4,2.4-1.6,2.8l-9.5,2.6c-1.2.3-2.4-.4-2.8-1.6l-2.6-9.5c-.3-1.2.4-2.4,1.6-2.8l9.5-2.6c1.2-.3,2.4.4,2.8,1.6l2.6,9.5ZM885,1374.2c.3,1.2-.4,2.4-1.6,2.8l-9.5,2.6c-1.2.3-2.4-.4-2.8-1.6l-2.6-9.5c-.3-1.2.4-2.4,1.6-2.8l9.5-2.6c1.2-.3,2.4.4,2.8,1.6l2.6,9.5Z"/>
    </g>
  </g>
</svg>