<?xml version="1.0" encoding="UTF-8"?>
<svg xmlns="http://www.w3.org/2000/svg" version="1.1" viewBox="0 0 3000 2000">
  <!-- Generator: Adobe Illustrator 29.3.1, SVG Export Plug-In . SVG Version: 2.1.0 Build 151)  -->
  <defs>
    <style>
      .st0 {
        fill: #F27830;
      }

      .st1, .st2 {
        fill: #F4F2F0;
      }

      .st1, .st2, .st3 {
        opacity: .2;
      }

      .st4 {
        fill: #36649A;
      }

      .st5 {
        fill: #212061;
      }

      .st6 {
        fill: none;
      }

      .st2 {
        mix-blend-mode: overlay;
      }

      .st7 {
        fill: #111827;
      }

      .st8 {
        isolation: isolate;
      }

      .st9 {
        fill: #F4F2F0;
      }

      .st10 {
        fill: #BF5E26;
      }

      .st11 {
        fill: #36649A;
      }

      .st12 {
        fill: #F4F2F0;
      }
    </style>
  </defs>
  <g class="st8">
    <g id="BG">
      <rect class="st6" y="0" width="3000" height="2000"/>
    </g>
    <g id="BG2">
      <g>
        <path class="st7" d="M2653,1582.1h-201.7c-36.7,0-66.4,29.7-66.4,66.4s29.7,66.4,66.4,66.4h201.7c36.7,0,66.4-29.7,66.4-66.4s-29.7-66.4-66.4-66.4Z"/>
        <path class="st7" d="M2277.9,1582.1H617.7c-36.7,0-66.4,29.7-66.4,66.4s29.7,66.4,66.4,66.4h1660.1c36.7,0,66.4-29.7,66.4-66.4s-29.7-66.4-66.4-66.4Z"/>
        <path class="st7" d="M446.7,1582.1h-99.7c-36.7,0-66.4,29.7-66.4,66.4s29.7,66.4,66.4,66.4h99.7c36.7,0,66.4-29.7,66.4-66.4s-29.7-66.4-66.4-66.4Z"/>
      </g>
    </g>
    <g id="Illustration">
      <g class="st3">
        <path class="st11" d="M2091,460.3v-13.9c0-.8.4-1.5,1-2l19.4-15.1c1.3-1,1.3-2.9,0-3.9l-19.4-15.1c-.6-.5-1-1.2-1-2v-13.9c0-2,2.3-3.2,3.8-2l42.2,32.9c1.3,1,1.3,2.9,0,3.9l-42.2,32.9c-1.6,1.2-3.8,0-3.8-2Z"/>
        <path class="st11" d="M2046.5,460.3v-13.9c0-.8.4-1.5,1-2l19.4-15.1c1.3-1,1.3-2.9,0-3.9l-19.4-15.1c-.6-.5-1-1.2-1-2v-13.9c0-2,2.3-3.2,3.8-2l42.2,32.9c1.3,1,1.3,2.9,0,3.9l-42.2,32.9c-1.6,1.2-3.8,0-3.8-2Z"/>
        <path class="st11" d="M2135.5,460.3v-13.9c0-.8.4-1.5,1-2l19.4-15.1c1.3-1,1.3-2.9,0-3.9l-19.4-15.1c-.6-.5-1-1.2-1-2v-13.9c0-2,2.3-3.2,3.8-2l42.2,32.9c1.3,1,1.3,2.9,0,3.9l-42.2,32.9c-1.6,1.2-3.8,0-3.8-2Z"/>
        <path class="st11" d="M2180,460.3v-13.9c0-.8.4-1.5,1-2l19.4-15.1c1.3-1,1.3-2.9,0-3.9l-19.4-15.1c-.6-.5-1-1.2-1-2v-13.9c0-2,2.3-3.2,3.8-2l42.2,32.9c1.3,1,1.3,2.9,0,3.9l-42.2,32.9c-1.6,1.2-3.8,0-3.8-2Z"/>
      </g>
      <g class="st3">
        <path class="st11" d="M657.2,459h15.8c.9,0,1.7.4,2.2,1.1l17.2,21.7c1.1,1.4,3.4,1.4,4.5,0l17.2-21.7c.5-.7,1.4-1.1,2.2-1.1h15.8c2.3,0,3.6,2.5,2.2,4.3l-37.4,47.3c-1.1,1.4-3.4,1.4-4.5,0l-37.4-47.3c-1.4-1.8,0-4.3,2.2-4.3Z"/>
        <path class="st11" d="M657.2,409.1h15.8c.9,0,1.7.4,2.2,1.1l17.2,21.7c1.1,1.4,3.4,1.4,4.5,0l17.2-21.7c.5-.7,1.4-1.1,2.2-1.1h15.8c2.3,0,3.6,2.5,2.2,4.3l-37.4,47.3c-1.1,1.4-3.4,1.4-4.5,0l-37.4-47.3c-1.4-1.8,0-4.3,2.2-4.3Z"/>
        <path class="st11" d="M657.2,508.8h15.8c.9,0,1.7.4,2.2,1.1l17.2,21.7c1.1,1.4,3.4,1.4,4.5,0l17.2-21.7c.5-.7,1.4-1.1,2.2-1.1h15.8c2.3,0,3.6,2.5,2.2,4.3l-37.4,47.3c-1.1,1.4-3.4,1.4-4.5,0l-37.4-47.3c-1.4-1.8,0-4.3,2.2-4.3Z"/>
        <path class="st11" d="M657.2,558.7h15.8c.9,0,1.7.4,2.2,1.1l17.2,21.7c1.1,1.4,3.4,1.4,4.5,0l17.2-21.7c.5-.7,1.4-1.1,2.2-1.1h15.8c2.3,0,3.6,2.5,2.2,4.3l-37.4,47.3c-1.1,1.4-3.4,1.4-4.5,0l-37.4-47.3c-1.4-1.8,0-4.3,2.2-4.3Z"/>
      </g>
      <g class="st3">
        <path class="st11" d="M727.3,1515.4v10.7c0,.6-.3,1.2-.7,1.5l-14.7,11.7c-1,.8-1,2.3,0,3l14.7,11.7c.5.4.7.9.7,1.5v10.7c0,1.6-1.7,2.5-2.9,1.5l-32.1-25.4c-1-.8-1-2.3,0-3l32.1-25.4c1.2-.9,2.9,0,2.9,1.5Z"/>
        <path class="st11" d="M761.1,1515.4v10.7c0,.6-.3,1.2-.7,1.5l-14.7,11.7c-1,.8-1,2.3,0,3l14.7,11.7c.5.4.7.9.7,1.5v10.7c0,1.6-1.7,2.5-2.9,1.5l-32.1-25.4c-1-.8-1-2.3,0-3l32.1-25.4c1.2-.9,2.9,0,2.9,1.5Z"/>
        <path class="st11" d="M693.4,1515.4v10.7c0,.6-.3,1.2-.7,1.5l-14.7,11.7c-1,.8-1,2.3,0,3l14.7,11.7c.5.4.7.9.7,1.5v10.7c0,1.6-1.7,2.5-2.9,1.5l-32.1-25.4c-1-.8-1-2.3,0-3l32.1-25.4c1.2-.9,2.9,0,2.9,1.5Z"/>
        <path class="st11" d="M659.6,1515.4v10.7c0,.6-.3,1.2-.7,1.5l-14.7,11.7c-1,.8-1,2.3,0,3l14.7,11.7c.5.4.7.9.7,1.5v10.7c0,1.6-1.7,2.5-2.9,1.5l-32.1-25.4c-1-.8-1-2.3,0-3l32.1-25.4c1.2-.9,2.9,0,2.9,1.5Z"/>
      </g>
      <g>
        <rect class="st11" x="2381.5" y="445.8" width="3.6" height="41.1"/>
        <rect class="st11" x="2381.5" y="445.8" width="3.6" height="41.1" transform="translate(1917 2849.6) rotate(-90)"/>
      </g>
      <g>
        <rect class="st11" x="1611.2" y="425.2" width="3.6" height="41.1"/>
        <rect class="st11" x="1611.2" y="425.2" width="3.6" height="41.1" transform="translate(1167.3 2058.8) rotate(-90)"/>
      </g>
      <g>
        <rect class="st11" x="2426.8" y="656.9" width="3.6" height="41.1"/>
        <rect class="st11" x="2426.8" y="656.9" width="3.6" height="41.1" transform="translate(1751.2 3106) rotate(-90)"/>
      </g>
      <g>
        <rect class="st11" x="2466.3" y="1267.8" width="3.6" height="41.1"/>
        <rect class="st11" x="2466.3" y="1267.8" width="3.6" height="41.1" transform="translate(1179.8 3756.5) rotate(-90)"/>
      </g>
      <g>
        <rect class="st11" x="416.6" y="718.9" width="3.6" height="41.1"/>
        <rect class="st11" x="416.6" y="718.9" width="3.6" height="41.1" transform="translate(-321 1157.8) rotate(-90)"/>
      </g>
      <g>
        <g>
          <g>
            <path class="st10" d="M868.4,1505l149.4-81v138.2c0,12.6-10.3,22.9-22.9,22.9h-252.9c-12.6,0-22.9-10.3-22.9-22.9v-137.7l148.5,80.6h.8Z"/>
            <polygon class="st10" points="719 1424.4 868.4 1295.5 1017.7 1424 867.5 1505 719 1424.4"/>
            <polygon class="st1" points="719 1424.4 868.4 1295.5 1017.7 1424 867.5 1505 719 1424.4"/>
            <path class="st7" d="M974.9,1342.2v104.4l-106.6,57.8h-.7l-102.4-55.5v-106.6c0-10.4,8.5-18.9,18.9-18.9h172c10.4,0,18.9,8.5,18.9,18.9Z"/>
          </g>
          <g>
            <rect class="st9" x="865.9" y="1308.2" width="8.6" height="127.1" rx="2.6" ry="2.6" transform="translate(-504.1 2237.9) rotate(-89.8)"/>
            <rect class="st9" x="865.8" y="1341.3" width="8.6" height="127.1" rx="2.6" ry="2.6" transform="translate(-537 2271.3) rotate(-89.9)"/>
            <rect class="st9" x="865.7" y="1378" width="8.6" height="127.1" rx="2.6" ry="2.6" transform="translate(-573.8 2307.8) rotate(-89.9)"/>
          </g>
        </g>
        <g>
          <polygon class="st0" points="2141.4 695.8 2142.1 617.6 2365.5 527.6 2141.4 695.8"/>
          <polygon class="st4" points="2388.9 514.7 2064.7 574.3 2142.1 617.6 2365.5 527.6 2183.4 640.8 2262 684.3 2388.9 514.7"/>
          <polygon class="st5" points="2141.4 695.8 2183.4 640.8 2204.7 652.6 2141.4 695.8"/>
        </g>
        <g>
          <g>
            <path class="st0" d="M1945.8,857.1v685.1c0,23.5-19.2,42.7-42.6,42.7h-947c-23.4,0-42.6-19.2-42.6-42.7v-685.1c0-23.4,19.1-42.6,42.6-42.6h947c23.4,0,42.6,19.2,42.6,42.6Z"/>
            <path class="st11" d="M1945.8,857.1v68.8H913.6v-68.8c0-23.4,19.1-42.6,42.6-42.6h947c23.4,0,42.6,19.2,42.6,42.6Z"/>
            <circle class="st9" cx="971.1" cy="870.2" r="18"/>
            <circle class="st9" cx="1035.7" cy="870.2" r="18"/>
            <circle class="st9" cx="1100.4" cy="870.2" r="18"/>
          </g>
          <g>
            <rect class="st12" x="1148.9" y="1357.2" width="71.1" height="135.2" rx="8.6" ry="8.6"/>
            <rect class="st12" x="1273.1" y="1253.8" width="71.1" height="238.6" rx="8.6" ry="8.6"/>
            <rect class="st12" x="1397.3" y="1197.8" width="71.1" height="294.6" rx="8.6" ry="8.6"/>
            <rect class="st12" x="1521.5" y="1293.1" width="71.1" height="199.3" rx="8.6" ry="8.6"/>
            <rect class="st12" x="1645.7" y="1166" width="71.1" height="326.4" rx="8.6" ry="8.6"/>
          </g>
        </g>
        <path class="st2" d="M1716.8,814.5v165.4c0,24.3-19.8,44-44,44h-486.1c-24.2,0-44-19.8-44-44v-165.4h-16.6v165.4c0,33.4,27.1,60.6,60.5,60.6h486.1c33.4,0,60.6-27.2,60.6-60.6v-165.4h-16.6Z"/>
        <g>
          <g>
            <path class="st10" d="M1429.7,870l287.1-155.7v265.6c0,24.2-19.8,44-44,44h-486.2c-24.2,0-44-19.8-44-44v-264.7l285.5,154.8h1.6Z"/>
            <polygon class="st10" points="1142.6 715.1 1429.7 467.4 1716.8 714.3 1428.1 870 1142.6 715.1"/>
            <polygon class="st1" points="1142.6 715.1 1429.7 467.4 1716.8 714.3 1428.1 870 1142.6 715.1"/>
            <path class="st7" d="M1634.5,557.1v200.6l-204.8,111.1h-1.3l-196.8-106.8v-204.9c0-19.9,16.3-36.2,36.2-36.2h330.5c19.9,0,36.2,16.3,36.2,36.2Z"/>
          </g>
          <g>
            <rect class="st9" x="1424.9" y="491.7" width="16.6" height="244.3" rx="5" ry="5" transform="translate(815.2 2045.2) rotate(-89.8)"/>
            <rect class="st9" x="1424.8" y="555.3" width="16.6" height="244.3" rx="5" ry="5" transform="translate(751.9 2108.7) rotate(-89.9)"/>
            <rect class="st9" x="1424.6" y="625.9" width="16.6" height="244.3" rx="5" ry="5" transform="translate(681.2 2178.9) rotate(-89.9)"/>
          </g>
        </g>
        <path class="st2" d="M1883.8,1241.1c-19.3,0-35,15.7-35,34.9v48.8l-55,47.5-3.8,3.3v180.3c0,11.3,4.7,21.7,12.4,28.9h24.7c-14.6-1.5-26.1-13.9-26.1-28.9v-175.3l58.9-50.8v-53.8c0-13.2,10.8-23.9,24-23.9h62v-11h-62Z"/>
        <g>
          <g>
            <path class="st10" d="M1991,1483.2l190.1-103.1v175.8c0,16-13.1,29.1-29.1,29.1h-321.9c-16,0-29.1-13.1-29.1-29.1v-175.3l189,102.5h1.1Z"/>
            <polygon class="st10" points="1800.9 1380.7 1991 1216.6 2181 1380.1 1989.9 1483.2 1800.9 1380.7"/>
            <polygon class="st1" points="1800.9 1380.7 1991 1216.6 2181 1380.1 1989.9 1483.2 1800.9 1380.7"/>
            <path class="st7" d="M2126.6,1276.1v132.8l-135.6,73.6h-.9l-130.3-70.7v-135.7c0-13.2,10.8-24,24-24h218.8c13.2,0,24,10.8,24,24Z"/>
          </g>
          <g>
            <rect class="st9" x="1987.8" y="1232.7" width="11" height="161.7" rx="3.3" ry="3.3" transform="translate(673.9 3303) rotate(-89.8)"/>
            <rect class="st9" x="1987.7" y="1274.8" width="11" height="161.7" rx="3.3" ry="3.3" transform="translate(632.3 3345.3) rotate(-89.9)"/>
            <rect class="st9" x="1987.6" y="1321.6" width="11" height="161.7" rx="3.3" ry="3.3" transform="translate(585.5 3391.9) rotate(-89.9)"/>
          </g>
        </g>
        <g>
          <path class="st11" d="M2141.4,704.3c-1.4,0-2.5-1.1-2.5-2.5v-6c0-1.4,1.1-2.5,2.5-2.5s2.5,1.1,2.5,2.5v6c0,1.4-1.1,2.5-2.5,2.5Z"/>
          <path class="st11" d="M2300.6,1321.8h-3.1c-1.4,0-2.5-1.1-2.5-2.5s1.1-2.5,2.5-2.5h3.1c2.9,0,5.8,0,8.7-.2,1.4,0,2.5,1,2.6,2.4,0,1.4-1,2.5-2.4,2.6-3,.1-6,.2-9,.2ZM2285.4,1321.8h-12c-1.4,0-2.5-1.1-2.5-2.5s1.1-2.5,2.5-2.5h12c1.4,0,2.5,1.1,2.5,2.5s-1.1,2.5-2.5,2.5ZM2261.4,1321.8h-12c-1.4,0-2.5-1.1-2.5-2.5s1.1-2.5,2.5-2.5h12c1.4,0,2.5,1.1,2.5,2.5s-1.1,2.5-2.5,2.5ZM2237.4,1321.8h-12c-1.4,0-2.5-1.1-2.5-2.5s1.1-2.5,2.5-2.5h12c1.4,0,2.5,1.1,2.5,2.5s-1.1,2.5-2.5,2.5ZM2213.4,1321.8h-12c-1.4,0-2.5-1.1-2.5-2.5s1.1-2.5,2.5-2.5h12c1.4,0,2.5,1.1,2.5,2.5s-1.1,2.5-2.5,2.5ZM2189.4,1321.8h-12c-1.4,0-2.5-1.1-2.5-2.5s1.1-2.5,2.5-2.5h12c1.4,0,2.5,1.1,2.5,2.5s-1.1,2.5-2.5,2.5ZM2165.4,1321.8h-12c-1.4,0-2.5-1.1-2.5-2.5s1.1-2.5,2.5-2.5h12c1.4,0,2.5,1.1,2.5,2.5s-1.1,2.5-2.5,2.5ZM2141.4,1321.8h-12c-1.4,0-2.5-1.1-2.5-2.5s1.1-2.5,2.5-2.5h12c1.4,0,2.5,1.1,2.5,2.5s-1.1,2.5-2.5,2.5ZM2117.4,1321.8h-12c-1.4,0-2.5-1.1-2.5-2.5s1.1-2.5,2.5-2.5h12c1.4,0,2.5,1.1,2.5,2.5s-1.1,2.5-2.5,2.5ZM2093.4,1321.8h-12c-1.4,0-2.5-1.1-2.5-2.5s1.1-2.5,2.5-2.5h12c1.4,0,2.5,1.1,2.5,2.5s-1.1,2.5-2.5,2.5ZM2069.3,1321.8h-12c-1.4,0-2.5-1.1-2.5-2.5s1.1-2.5,2.5-2.5h12c1.4,0,2.5,1.1,2.5,2.5s-1.1,2.5-2.5,2.5ZM2045.3,1321.8h-12c-1.4,0-2.5-1.1-2.5-2.5s1.1-2.5,2.5-2.5h12c1.4,0,2.5,1.1,2.5,2.5s-1.1,2.5-2.5,2.5ZM2021.3,1321.8h-12c-1.4,0-2.5-1.1-2.5-2.5s1.1-2.5,2.5-2.5h12c1.4,0,2.5,1.1,2.5,2.5s-1.1,2.5-2.5,2.5ZM1997.3,1321.8h-12c-1.4,0-2.5-1.1-2.5-2.5s1.1-2.5,2.5-2.5h12c1.4,0,2.5,1.1,2.5,2.5s-1.1,2.5-2.5,2.5ZM1973.3,1321.8h-12c-1.4,0-2.5-1.1-2.5-2.5s1.1-2.5,2.5-2.5h12c1.4,0,2.5,1.1,2.5,2.5s-1.1,2.5-2.5,2.5ZM1949.3,1321.8h-12c-1.4,0-2.5-1.1-2.5-2.5s1.1-2.5,2.5-2.5h12c1.4,0,2.5,1.1,2.5,2.5s-1.1,2.5-2.5,2.5ZM1925.3,1321.8h-12c-1.4,0-2.5-1.1-2.5-2.5s1.1-2.5,2.5-2.5h12c1.4,0,2.5,1.1,2.5,2.5s-1.1,2.5-2.5,2.5ZM1901.3,1321.8h-12c-1.4,0-2.5-1.1-2.5-2.5s1.1-2.5,2.5-2.5h12c1.4,0,2.5,1.1,2.5,2.5s-1.1,2.5-2.5,2.5ZM1877.3,1321.8h-12c-1.4,0-2.5-1.1-2.5-2.5s1.1-2.5,2.5-2.5h12c1.4,0,2.5,1.1,2.5,2.5s-1.1,2.5-2.5,2.5ZM1853.3,1321.8h-12c-1.4,0-2.5-1.1-2.5-2.5s1.1-2.5,2.5-2.5h12c1.4,0,2.5,1.1,2.5,2.5s-1.1,2.5-2.5,2.5ZM1829.3,1321.8h-12c-1.4,0-2.5-1.1-2.5-2.5s1.1-2.5,2.5-2.5h12c1.4,0,2.5,1.1,2.5,2.5s-1.1,2.5-2.5,2.5ZM1805.2,1321.8h-12c-1.4,0-2.5-1.1-2.5-2.5s1.1-2.5,2.5-2.5h12c1.4,0,2.5,1.1,2.5,2.5s-1.1,2.5-2.5,2.5ZM1781.2,1321.8h-12c-1.4,0-2.5-1.1-2.5-2.5s1.1-2.5,2.5-2.5h12c1.4,0,2.5,1.1,2.5,2.5s-1.1,2.5-2.5,2.5ZM1757.2,1321.8h-12c-1.4,0-2.5-1.1-2.5-2.5s1.1-2.5,2.5-2.5h12c1.4,0,2.5,1.1,2.5,2.5s-1.1,2.5-2.5,2.5ZM1733.2,1321.8h-12c-1.4,0-2.5-1.1-2.5-2.5s1.1-2.5,2.5-2.5h12c1.4,0,2.5,1.1,2.5,2.5s-1.1,2.5-2.5,2.5ZM1709.2,1321.8h-12c-1.4,0-2.5-1.1-2.5-2.5s1.1-2.5,2.5-2.5h12c1.4,0,2.5,1.1,2.5,2.5s-1.1,2.5-2.5,2.5ZM1685.2,1321.8h-12c-1.4,0-2.5-1.1-2.5-2.5s1.1-2.5,2.5-2.5h12c1.4,0,2.5,1.1,2.5,2.5s-1.1,2.5-2.5,2.5ZM1661.2,1321.8h-12c-1.4,0-2.5-1.1-2.5-2.5s1.1-2.5,2.5-2.5h12c1.4,0,2.5,1.1,2.5,2.5s-1.1,2.5-2.5,2.5ZM1637.2,1321.8h-12c-1.4,0-2.5-1.1-2.5-2.5s1.1-2.5,2.5-2.5h12c1.4,0,2.5,1.1,2.5,2.5s-1.1,2.5-2.5,2.5ZM1613.2,1321.8h-12c-1.4,0-2.5-1.1-2.5-2.5s1.1-2.5,2.5-2.5h12c1.4,0,2.5,1.1,2.5,2.5s-1.1,2.5-2.5,2.5ZM1589.2,1321.8h-12c-1.4,0-2.5-1.1-2.5-2.5s1.1-2.5,2.5-2.5h12c1.4,0,2.5,1.1,2.5,2.5s-1.1,2.5-2.5,2.5ZM1565.2,1321.8h-12c-1.4,0-2.5-1.1-2.5-2.5s1.1-2.5,2.5-2.5h12c1.4,0,2.5,1.1,2.5,2.5s-1.1,2.5-2.5,2.5ZM1541.2,1321.8h-12c-1.4,0-2.5-1.1-2.5-2.5s1.1-2.5,2.5-2.5h12c1.4,0,2.5,1.1,2.5,2.5s-1.1,2.5-2.5,2.5ZM1517.1,1321.8h-12c-1.4,0-2.5-1.1-2.5-2.5s1.1-2.5,2.5-2.5h12c1.4,0,2.5,1.1,2.5,2.5s-1.1,2.5-2.5,2.5ZM1493.1,1321.8h-12c-1.4,0-2.5-1.1-2.5-2.5s1.1-2.5,2.5-2.5h12c1.4,0,2.5,1.1,2.5,2.5s-1.1,2.5-2.5,2.5ZM1469.1,1321.8h-12c-1.4,0-2.5-1.1-2.5-2.5s1.1-2.5,2.5-2.5h12c1.4,0,2.5,1.1,2.5,2.5s-1.1,2.5-2.5,2.5ZM1445.1,1321.8h-12c-1.4,0-2.5-1.1-2.5-2.5s1.1-2.5,2.5-2.5h12c1.4,0,2.5,1.1,2.5,2.5s-1.1,2.5-2.5,2.5ZM1421.1,1321.8h-12c-1.4,0-2.5-1.1-2.5-2.5s1.1-2.5,2.5-2.5h12c1.4,0,2.5,1.1,2.5,2.5s-1.1,2.5-2.5,2.5ZM1397.1,1321.8h-12c-1.4,0-2.5-1.1-2.5-2.5s1.1-2.5,2.5-2.5h12c1.4,0,2.5,1.1,2.5,2.5s-1.1,2.5-2.5,2.5ZM1373.1,1321.8h-12c-1.4,0-2.5-1.1-2.5-2.5s1.1-2.5,2.5-2.5h12c1.4,0,2.5,1.1,2.5,2.5s-1.1,2.5-2.5,2.5ZM1349.1,1321.8h-12c-1.4,0-2.5-1.1-2.5-2.5s1.1-2.5,2.5-2.5h12c1.4,0,2.5,1.1,2.5,2.5s-1.1,2.5-2.5,2.5ZM1325.1,1321.8h-12c-1.4,0-2.5-1.1-2.5-2.5s1.1-2.5,2.5-2.5h12c1.4,0,2.5,1.1,2.5,2.5s-1.1,2.5-2.5,2.5ZM1301.1,1321.8h-12c-1.4,0-2.5-1.1-2.5-2.5s1.1-2.5,2.5-2.5h12c1.4,0,2.5,1.1,2.5,2.5s-1.1,2.5-2.5,2.5ZM1277.1,1321.8h-12c-1.4,0-2.5-1.1-2.5-2.5s1.1-2.5,2.5-2.5h12c1.4,0,2.5,1.1,2.5,2.5s-1.1,2.5-2.5,2.5ZM1253,1321.8h-12c-1.4,0-2.5-1.1-2.5-2.5s1.1-2.5,2.5-2.5h12c1.4,0,2.5,1.1,2.5,2.5s-1.1,2.5-2.5,2.5ZM1229,1321.8h-12c-1.4,0-2.5-1.1-2.5-2.5s1.1-2.5,2.5-2.5h12c1.4,0,2.5,1.1,2.5,2.5s-1.1,2.5-2.5,2.5ZM1205,1321.8h-12c-1.4,0-2.5-1.1-2.5-2.5s1.1-2.5,2.5-2.5h12c1.4,0,2.5,1.1,2.5,2.5s-1.1,2.5-2.5,2.5ZM1181,1321.8h-12c-1.4,0-2.5-1.1-2.5-2.5s1.1-2.5,2.5-2.5h12c1.4,0,2.5,1.1,2.5,2.5s-1.1,2.5-2.5,2.5ZM1157,1321.8h-12c-1.4,0-2.5-1.1-2.5-2.5s1.1-2.5,2.5-2.5h12c1.4,0,2.5,1.1,2.5,2.5s-1.1,2.5-2.5,2.5ZM1133,1321.8h-12c-1.4,0-2.5-1.1-2.5-2.5s1.1-2.5,2.5-2.5h12c1.4,0,2.5,1.1,2.5,2.5s-1.1,2.5-2.5,2.5ZM1109,1321.8h-12c-1.4,0-2.5-1.1-2.5-2.5s1.1-2.5,2.5-2.5h12c1.4,0,2.5,1.1,2.5,2.5s-1.1,2.5-2.5,2.5ZM1085,1321.8h-12c-1.4,0-2.5-1.1-2.5-2.5s1.1-2.5,2.5-2.5h12c1.4,0,2.5,1.1,2.5,2.5s-1.1,2.5-2.5,2.5ZM1061,1321.8h-12c-1.4,0-2.5-1.1-2.5-2.5s1.1-2.5,2.5-2.5h12c1.4,0,2.5,1.1,2.5,2.5s-1.1,2.5-2.5,2.5ZM1037,1321.8h-12c-1.4,0-2.5-1.1-2.5-2.5s1.1-2.5,2.5-2.5h12c1.4,0,2.5,1.1,2.5,2.5s-1.1,2.5-2.5,2.5ZM1013,1321.8h-12c-1.4,0-2.5-1.1-2.5-2.5s1.1-2.5,2.5-2.5h12c1.4,0,2.5,1.1,2.5,2.5s-1.1,2.5-2.5,2.5ZM989,1321.8h-12c-1.4,0-2.5-1.1-2.5-2.5s1.1-2.5,2.5-2.5h12c1.4,0,2.5,1.1,2.5,2.5s-1.1,2.5-2.5,2.5ZM964.9,1321.8h-12c-1.4,0-2.5-1.1-2.5-2.5s1.1-2.5,2.5-2.5h12c1.4,0,2.5,1.1,2.5,2.5s-1.1,2.5-2.5,2.5ZM940.9,1321.8h-12c-1.4,0-2.5-1.1-2.5-2.5s1.1-2.5,2.5-2.5h12c1.4,0,2.5,1.1,2.5,2.5s-1.1,2.5-2.5,2.5ZM916.9,1321.8h-12c-1.4,0-2.5-1.1-2.5-2.5s1.1-2.5,2.5-2.5h12c1.4,0,2.5,1.1,2.5,2.5s-1.1,2.5-2.5,2.5ZM892.9,1321.8h-12c-1.4,0-2.5-1.1-2.5-2.5s1.1-2.5,2.5-2.5h12c1.4,0,2.5,1.1,2.5,2.5s-1.1,2.5-2.5,2.5ZM868.9,1321.8h-12c-1.4,0-2.5-1.1-2.5-2.5s1.1-2.5,2.5-2.5h12c1.4,0,2.5,1.1,2.5,2.5s-1.1,2.5-2.5,2.5ZM844.9,1321.8h-12c-1.4,0-2.5-1.1-2.5-2.5s1.1-2.5,2.5-2.5h12c1.4,0,2.5,1.1,2.5,2.5s-1.1,2.5-2.5,2.5ZM820.9,1321.8h-12c-1.4,0-2.5-1.1-2.5-2.5s1.1-2.5,2.5-2.5h12c1.4,0,2.5,1.1,2.5,2.5s-1.1,2.5-2.5,2.5ZM796.9,1321.8h-12c-1.4,0-2.5-1.1-2.5-2.5s1.1-2.5,2.5-2.5h12c1.4,0,2.5,1.1,2.5,2.5s-1.1,2.5-2.5,2.5ZM772.9,1321.8h-12c-1.4,0-2.5-1.1-2.5-2.5s1.1-2.5,2.5-2.5h12c1.4,0,2.5,1.1,2.5,2.5s-1.1,2.5-2.5,2.5ZM748.9,1321.8h-12c-1.4,0-2.5-1.1-2.5-2.5s1.1-2.5,2.5-2.5h12c1.4,0,2.5,1.1,2.5,2.5s-1.1,2.5-2.5,2.5ZM724.9,1321.8h-12c-1.4,0-2.5-1.1-2.5-2.5s1.1-2.5,2.5-2.5h12c1.4,0,2.5,1.1,2.5,2.5s-1.1,2.5-2.5,2.5ZM700.9,1321.8h-12c-1.4,0-2.5-1.1-2.5-2.5s1.1-2.5,2.5-2.5h12c1.4,0,2.5,1.1,2.5,2.5s-1.1,2.5-2.5,2.5ZM676.9,1321.6s0,0,0,0c-4-.1-8.1-.3-12.1-.6-1.4,0-2.4-1.3-2.3-2.7,0-1.4,1.3-2.4,2.7-2.3,3.9.3,7.9.5,11.9.6,1.4,0,2.5,1.2,2.4,2.6,0,1.4-1.2,2.4-2.5,2.4ZM2321.4,1320.7c-1.3,0-2.3-1-2.5-2.2-.1-1.4.9-2.6,2.2-2.7,3.9-.4,7.9-1,11.7-1.6,1.4-.2,2.6.7,2.9,2.1.2,1.4-.7,2.7-2.1,2.9-4,.7-8,1.2-12,1.6,0,0-.2,0-.3,0ZM652.9,1319.9c0,0-.2,0-.3,0-4-.4-8-1-12-1.6-1.4-.2-2.3-1.5-2.1-2.8.2-1.4,1.5-2.3,2.8-2.1,3.9.6,7.9,1.1,11.8,1.6,1.4.2,2.4,1.4,2.2,2.8-.1,1.3-1.2,2.2-2.5,2.2ZM2345,1316.7c-1.1,0-2.2-.8-2.4-1.9-.3-1.3.5-2.7,1.9-3,3.8-.9,7.7-1.9,11.5-3,1.3-.4,2.7.4,3.1,1.7.4,1.3-.4,2.7-1.7,3.1-3.9,1.1-7.8,2.2-11.7,3.1-.2,0-.4,0-.6,0ZM629.2,1316.3c-.2,0-.3,0-.5,0-3.9-.8-7.9-1.6-11.8-2.5-1.3-.3-2.2-1.7-1.9-3,.3-1.3,1.7-2.2,3-1.9,3.9.9,7.8,1.7,11.6,2.5,1.4.3,2.2,1.6,2,2.9-.2,1.2-1.3,2-2.5,2ZM605.8,1310.8c-.2,0-.4,0-.7,0-3.9-1.1-7.8-2.2-11.6-3.5-1.3-.4-2-1.8-1.6-3.1.4-1.3,1.8-2,3.1-1.6,3.8,1.2,7.6,2.4,11.4,3.4,1.3.4,2.1,1.7,1.7,3.1-.3,1.1-1.3,1.8-2.4,1.8ZM2368,1309.9c-1,0-2-.6-2.3-1.6-.5-1.3.2-2.7,1.5-3.2,3.7-1.3,7.4-2.8,11-4.4,1.3-.6,2.7,0,3.3,1.3.6,1.3,0,2.7-1.3,3.3-3.7,1.6-7.5,3.1-11.3,4.5-.3.1-.6.2-.9.2ZM583,1303.4c-.3,0-.6,0-.9-.2-3.8-1.4-7.6-2.9-11.3-4.4-1.3-.5-1.9-2-1.4-3.3.5-1.3,2-1.9,3.3-1.4,3.7,1.5,7.4,3,11.1,4.3,1.3.5,2,1.9,1.5,3.2-.4,1-1.3,1.6-2.3,1.6ZM2390,1300.3c-.9,0-1.8-.5-2.2-1.4-.6-1.2-.1-2.7,1.1-3.4,3.5-1.8,7-3.7,10.4-5.7,1.2-.7,2.7-.3,3.4.9.7,1.2.3,2.7-.9,3.4-3.5,2.1-7,4-10.6,5.9-.4.2-.8.3-1.1.3ZM560.7,1294.3c-.3,0-.7,0-1-.2-3.7-1.7-7.3-3.5-10.9-5.3-1.2-.6-1.7-2.1-1.1-3.4.6-1.2,2.1-1.7,3.4-1.1,3.5,1.8,7.1,3.5,10.7,5.2,1.3.6,1.8,2.1,1.2,3.3-.4.9-1.3,1.5-2.3,1.5ZM2410.6,1288.1c-.8,0-1.6-.4-2.1-1.1-.8-1.1-.5-2.7.7-3.5,3.3-2.2,6.5-4.5,9.6-6.9,1.1-.8,2.7-.6,3.5.5.8,1.1.6,2.7-.5,3.5-3.2,2.5-6.5,4.9-9.8,7.1-.4.3-.9.4-1.4.4ZM539.3,1283.4c-.4,0-.8-.1-1.2-.3-3.5-2-7-4-10.5-6.1-1.2-.7-1.5-2.3-.8-3.4.7-1.2,2.3-1.5,3.4-.8,3.4,2.1,6.8,4.1,10.3,6,1.2.7,1.6,2.2,1,3.4-.5.8-1.3,1.3-2.2,1.3ZM2429.6,1273.5c-.7,0-1.4-.3-1.9-.9-.9-1-.8-2.6.2-3.5,3-2.6,5.9-5.3,8.7-8,1-1,2.6-1,3.5,0,1,1,1,2.6,0,3.5-2.9,2.8-5.9,5.6-8.9,8.3-.5.4-1.1.6-1.6.6ZM518.8,1270.9c-.5,0-1-.1-1.4-.4-3.3-2.2-6.7-4.6-9.9-6.9-1.1-.8-1.4-2.4-.6-3.5s2.4-1.4,3.5-.6c3.2,2.3,6.5,4.6,9.8,6.8,1.1.8,1.5,2.3.7,3.5-.5.7-1.3,1.1-2.1,1.1ZM499.4,1256.7c-.5,0-1.1-.2-1.5-.5-3.2-2.5-6.3-5.1-9.4-7.7-1-.9-1.2-2.5-.3-3.5.9-1,2.5-1.2,3.5-.3,3,2.6,6.1,5.1,9.2,7.6,1.1.9,1.3,2.4.4,3.5-.5.6-1.2,1-2,1ZM2446.7,1256.7c-.6,0-1.2-.2-1.7-.6-1-.9-1.1-2.5-.2-3.5,2.6-2.9,5.2-6,7.7-9,.9-1.1,2.4-1.3,3.5-.4,1.1.9,1.3,2.4.4,3.5-2.5,3.2-5.2,6.3-7.9,9.3-.5.5-1.2.8-1.9.8ZM481.1,1241.1c-.6,0-1.2-.2-1.7-.7-2.9-2.7-5.9-5.5-8.7-8.4-1-1-1-2.6,0-3.5,1-1,2.6-1,3.5,0,2.8,2.8,5.7,5.6,8.6,8.3,1,.9,1.1,2.5.1,3.5-.5.5-1.2.8-1.8.8ZM2461.7,1237.9c-.5,0-1-.1-1.4-.5-1.1-.8-1.4-2.4-.6-3.5,2.3-3.2,4.5-6.6,6.5-9.9.7-1.2,2.3-1.5,3.4-.8,1.2.7,1.5,2.3.8,3.4-2.1,3.4-4.4,6.9-6.7,10.2-.5.7-1.3,1.1-2,1.1ZM464.2,1224.2c-.7,0-1.3-.3-1.8-.8-2.7-3-5.4-6-8-9-.9-1.1-.8-2.6.3-3.5,1.1-.9,2.6-.8,3.5.3,2.6,3,5.2,6,7.9,8.9.9,1,.9,2.6-.1,3.5-.5.4-1.1.7-1.7.7ZM2474.2,1217.4c-.4,0-.8,0-1.2-.3-1.2-.6-1.7-2.2-1-3.4,1.9-3.5,3.6-7.1,5.3-10.6.6-1.3,2.1-1.8,3.3-1.2,1.3.6,1.8,2.1,1.2,3.3-1.7,3.7-3.5,7.3-5.4,10.9-.4.8-1.3,1.3-2.2,1.3ZM448.6,1205.9c-.7,0-1.5-.3-2-1-2.5-3.2-4.9-6.4-7.3-9.6-.8-1.1-.6-2.7.6-3.5,1.1-.8,2.7-.6,3.5.6,2.3,3.2,4.7,6.4,7.2,9.5.9,1.1.7,2.7-.4,3.5-.5.4-1,.5-1.5.5ZM2484.2,1195.6c-.3,0-.6,0-.9-.2-1.3-.5-1.9-1.9-1.4-3.2,1.4-3.7,2.7-7.4,3.9-11.2.4-1.3,1.8-2,3.1-1.6,1.3.4,2,1.8,1.6,3.1-1.2,3.9-2.6,7.7-4,11.5-.4,1-1.3,1.6-2.3,1.6ZM434.5,1186.5c-.8,0-1.6-.4-2.1-1.1-2.2-3.3-4.4-6.8-6.5-10.2-.7-1.2-.3-2.7.8-3.4,1.2-.7,2.7-.3,3.4.8,2.1,3.4,4.2,6.7,6.4,10,.8,1.1.5,2.7-.7,3.5-.4.3-.9.4-1.4.4ZM2491.4,1172.7c-.2,0-.4,0-.6,0-1.3-.3-2.2-1.7-1.8-3,.9-3.8,1.8-7.7,2.5-11.6.3-1.4,1.6-2.3,2.9-2,1.4.3,2.3,1.6,2,2.9-.7,4-1.6,8-2.6,11.9-.3,1.1-1.3,1.9-2.4,1.9ZM422,1166c-.9,0-1.7-.5-2.2-1.3-2-3.5-3.9-7.1-5.7-10.7-.6-1.2-.1-2.7,1.1-3.4,1.2-.6,2.7-.1,3.4,1.1,1.8,3.5,3.7,7,5.6,10.5.7,1.2.2,2.7-1,3.4-.4.2-.8.3-1.2.3ZM2495.8,1149.1c-.1,0-.2,0-.3,0-1.4-.2-2.3-1.4-2.2-2.8.5-3.9.8-7.9,1.1-11.8,0-1.4,1.3-2.4,2.6-2.3,1.4,0,2.4,1.3,2.3,2.6-.2,4-.6,8.1-1.1,12.1-.2,1.3-1.2,2.2-2.5,2.2ZM411.2,1144.7c-.9,0-1.9-.5-2.3-1.5-1.7-3.6-3.3-7.4-4.8-11.1-.5-1.3,0-2.7,1.4-3.3s2.7,0,3.3,1.4c1.5,3.6,3.1,7.3,4.7,10.9.6,1.3,0,2.7-1.2,3.3-.3.2-.7.2-1,.2ZM2497.2,1125.1c-1.4,0-2.5-1.1-2.5-2.5,0-4-.1-8-.3-11.8,0-1.4,1-2.6,2.3-2.6,1.4,0,2.6,1,2.6,2.3.2,4,.4,8,.4,12.1s-1.1,2.5-2.5,2.5ZM402.1,1122.5c-1,0-2-.6-2.3-1.6-1.4-3.8-2.7-7.6-3.9-11.4-.4-1.3.3-2.7,1.6-3.1,1.3-.4,2.7.3,3.1,1.6,1.2,3.8,2.5,7.6,3.9,11.3.5,1.3-.2,2.7-1.5,3.2-.3.1-.6.2-.9.2ZM2495.8,1101.2c-1.2,0-2.3-.9-2.5-2.2-.5-3.9-1.1-7.8-1.8-11.7-.2-1.4.7-2.7,2-2.9,1.4-.2,2.7.7,2.9,2,.7,4,1.3,8,1.8,12,.2,1.4-.8,2.6-2.2,2.8-.1,0-.2,0-.3,0ZM394.8,1099.7c-1.1,0-2.1-.7-2.4-1.8-1.1-3.9-2.1-7.8-3-11.7-.3-1.3.5-2.7,1.9-3,1.3-.3,2.7.5,3,1.9.9,3.9,1.9,7.7,2.9,11.5.4,1.3-.4,2.7-1.7,3.1-.2,0-.4,0-.7,0ZM2491.5,1077.6c-1.1,0-2.1-.8-2.4-1.9-.9-3.8-2-7.6-3.2-11.4-.4-1.3.3-2.7,1.6-3.1,1.3-.4,2.7.3,3.1,1.6,1.2,3.9,2.3,7.8,3.3,11.7.3,1.3-.5,2.7-1.8,3-.2,0-.4,0-.6,0ZM389.3,1076.3c-1.2,0-2.2-.8-2.5-2-.8-3.9-1.5-7.9-2.1-11.9-.2-1.4.7-2.6,2.1-2.8,1.4-.2,2.6.7,2.8,2.1.6,3.9,1.3,7.9,2,11.7.3,1.4-.6,2.7-2,2.9-.2,0-.3,0-.5,0ZM2484.3,1054.7c-1,0-2-.6-2.3-1.6-1.4-3.7-2.9-7.3-4.6-10.9-.6-1.3,0-2.7,1.2-3.3,1.3-.6,2.7,0,3.3,1.2,1.7,3.7,3.2,7.4,4.7,11.2.5,1.3-.2,2.7-1.4,3.2-.3.1-.6.2-.9.2ZM385.7,1052.6c-1.3,0-2.3-.9-2.5-2.2-.4-4-.8-8-1.1-12,0-1.4.9-2.6,2.3-2.7,1.4-.1,2.6.9,2.7,2.3.3,3.9.7,7.9,1.1,11.8.2,1.4-.8,2.6-2.2,2.8,0,0-.2,0-.3,0ZM2474.4,1032.9c-.9,0-1.8-.5-2.2-1.3-1.8-3.5-3.8-6.9-5.9-10.3-.7-1.2-.4-2.7.8-3.4,1.2-.7,2.7-.4,3.4.8,2.1,3.4,4.1,7,6,10.5.6,1.2.2,2.7-1,3.4-.4.2-.8.3-1.2.3ZM383.9,1028.7c-1.3,0-2.5-1.1-2.5-2.4-.1-3.4-.2-6.9-.2-10.3,0-.6,0-1.2,0-1.8,0-1.4,1.1-2.5,2.5-2.5,1.4,0,2.5,1.1,2.5,2.5,0,.6,0,1.2,0,1.8,0,3.4,0,6.8.2,10.1,0,1.4-1,2.5-2.4,2.6,0,0,0,0,0,0ZM2461.8,1012.5c-.8,0-1.6-.4-2.1-1.1-2.3-3.2-4.6-6.4-7.1-9.5-.9-1.1-.7-2.7.4-3.5,1.1-.9,2.7-.7,3.5.4,2.5,3.2,5,6.4,7.3,9.7.8,1.1.5,2.7-.6,3.5-.4.3-.9.5-1.4.5ZM384.1,1004.7s0,0-.1,0c-1.4,0-2.4-1.2-2.4-2.6.2-4,.4-8.1.8-12.1.1-1.4,1.3-2.4,2.7-2.3,1.4.1,2.4,1.3,2.3,2.7-.3,3.9-.6,7.9-.8,11.9,0,1.3-1.2,2.4-2.5,2.4ZM2446.9,993.7c-.7,0-1.4-.3-1.9-.8-2.6-2.9-5.4-5.8-8.2-8.6-1-1-1-2.6,0-3.5,1-1,2.6-1,3.5,0,2.9,2.8,5.7,5.8,8.4,8.8.9,1,.8,2.6-.2,3.5-.5.4-1.1.6-1.7.6ZM386.1,980.8c-.1,0-.2,0-.3,0-1.4-.2-2.3-1.4-2.2-2.8.5-4,1.1-8,1.7-12,.2-1.4,1.5-2.3,2.9-2.1,1.4.2,2.3,1.5,2.1,2.9-.6,3.9-1.2,7.8-1.7,11.8-.2,1.3-1.2,2.2-2.5,2.2ZM2429.9,976.9c-.6,0-1.2-.2-1.6-.6-3-2.6-6-5.1-9.2-7.5-1.1-.8-1.3-2.4-.5-3.5.8-1.1,2.4-1.3,3.5-.5,3.2,2.5,6.4,5.1,9.4,7.7,1,.9,1.1,2.5.2,3.5-.5.6-1.2.9-1.9.9ZM2410.9,962.2c-.5,0-1-.1-1.4-.4-3.3-2.2-6.6-4.4-10-6.4-1.2-.7-1.6-2.2-.9-3.4.7-1.2,2.2-1.6,3.4-.9,3.5,2.1,6.9,4.2,10.3,6.5,1.1.8,1.4,2.3.7,3.5-.5.7-1.3,1.1-2.1,1.1ZM390,957.1c-.2,0-.3,0-.5,0-1.4-.3-2.2-1.6-1.9-3,.8-3.9,1.7-7.9,2.7-11.8.3-1.3,1.7-2.2,3-1.8,1.3.3,2.2,1.7,1.8,3-.9,3.8-1.8,7.7-2.6,11.6-.2,1.2-1.3,2-2.4,2ZM2390.2,950c-.4,0-.8,0-1.1-.3-3.5-1.8-7.1-3.5-10.7-5.1-1.3-.6-1.8-2-1.3-3.3s2-1.8,3.3-1.3c3.7,1.6,7.4,3.4,11,5.2,1.2.6,1.7,2.1,1.1,3.4-.4.9-1.3,1.4-2.2,1.4ZM2368.2,940.3c-.3,0-.6,0-.9-.2-3.7-1.4-7.5-2.6-11.2-3.7-1.3-.4-2.1-1.8-1.7-3.1.4-1.3,1.8-2.1,3.1-1.7,3.9,1.2,7.7,2.4,11.5,3.8,1.3.5,2,1.9,1.5,3.2-.4,1-1.3,1.6-2.3,1.6ZM395.8,933.8c-.2,0-.5,0-.7,0-1.3-.4-2.1-1.8-1.7-3.1,1.1-3.9,2.3-7.7,3.6-11.6.4-1.3,1.9-2,3.2-1.6,1.3.4,2,1.9,1.6,3.2-1.3,3.7-2.4,7.6-3.5,11.4-.3,1.1-1.3,1.8-2.4,1.8ZM2345.2,933.5c-.2,0-.4,0-.6,0-3.8-.9-7.7-1.7-11.6-2.3-1.4-.2-2.3-1.5-2-2.9.2-1.4,1.5-2.3,2.9-2,4,.7,8,1.5,11.9,2.4,1.3.3,2.2,1.7,1.9,3-.3,1.2-1.3,1.9-2.4,1.9ZM2321.6,929.5c0,0-.2,0-.3,0-3.9-.4-7.9-.7-11.8-.9-1.4,0-2.4-1.2-2.4-2.6,0-1.4,1.2-2.4,2.6-2.4,4,.2,8.1.5,12.1.9,1.4.1,2.4,1.4,2.2,2.8-.1,1.3-1.2,2.2-2.5,2.2ZM2297.6,928.4h0c-4.1,0-8.1-.3-12.2-.7-1.4-.1-2.4-1.3-2.3-2.7.1-1.4,1.3-2.4,2.7-2.3,3.9.4,7.9.6,11.8.7,1.4,0,2.5,1.2,2.5,2.5,0,1.4-1.1,2.5-2.5,2.5ZM2273.7,926.1c-.1,0-.3,0-.4,0-4-.7-8-1.5-11.9-2.5-1.3-.3-2.2-1.7-1.8-3,.3-1.3,1.7-2.2,3-1.8,3.8.9,7.7,1.8,11.6,2.4,1.4.2,2.3,1.5,2,2.9-.2,1.2-1.3,2.1-2.5,2.1ZM2250.5,920.3c-.3,0-.5,0-.8-.1-3.8-1.3-7.7-2.7-11.4-4.3-1.3-.5-1.9-2-1.3-3.3.5-1.3,2-1.9,3.3-1.3,3.6,1.5,7.3,2.9,11,4.1,1.3.4,2,1.8,1.6,3.2-.3,1-1.3,1.7-2.4,1.7ZM2228.4,911.1c-.4,0-.8,0-1.1-.3-3.6-1.8-7.2-3.8-10.6-5.9-1.2-.7-1.6-2.3-.8-3.4.7-1.2,2.3-1.6,3.4-.8,3.3,2,6.8,4,10.3,5.8,1.2.6,1.7,2.1,1.1,3.4-.4.9-1.3,1.4-2.2,1.4ZM403.4,911c-.3,0-.6,0-.9-.2-1.3-.5-1.9-1.9-1.5-3.2,1.4-3.8,3-7.6,4.5-11.3.5-1.3,2-1.9,3.3-1.3,1.3.5,1.9,2,1.3,3.3-1.5,3.6-3,7.4-4.4,11.1-.4,1-1.3,1.6-2.3,1.6ZM2207.9,898.7c-.5,0-1-.2-1.5-.5-3.3-2.4-6.5-4.9-9.6-7.5-1.1-.9-1.2-2.5-.3-3.5.9-1.1,2.5-1.2,3.5-.3,3,2.5,6.2,5,9.3,7.2,1.1.8,1.4,2.4.6,3.5-.5.7-1.3,1-2,1ZM412.8,888.9c-.4,0-.7,0-1.1-.2-1.2-.6-1.8-2.1-1.2-3.3,1.7-3.6,3.5-7.3,5.4-10.9.6-1.2,2.1-1.7,3.4-1.1,1.2.6,1.7,2.2,1.1,3.4-1.8,3.5-3.6,7.1-5.3,10.7-.4.9-1.3,1.4-2.3,1.4ZM2189.5,883.3c-.6,0-1.3-.2-1.7-.7-2.9-2.8-5.7-5.8-8.4-8.8-.9-1-.8-2.6.2-3.5,1-.9,2.6-.8,3.5.2,2.6,2.9,5.3,5.8,8.1,8.6,1,1,1,2.5,0,3.5-.5.5-1.1.8-1.8.8ZM423.9,867.6c-.4,0-.9-.1-1.2-.3-1.2-.7-1.6-2.2-.9-3.4,2-3.5,4.1-7,6.2-10.4.7-1.2,2.3-1.5,3.4-.8,1.2.7,1.5,2.3.8,3.4-2.1,3.4-4.2,6.8-6.1,10.2-.5.8-1.3,1.3-2.2,1.3ZM2173.6,865.3c-.8,0-1.5-.3-2-1-2.4-3.2-4.8-6.6-7-10-.8-1.2-.4-2.7.7-3.5,1.2-.7,2.7-.4,3.5.7,2.1,3.3,4.4,6.5,6.8,9.7.8,1.1.6,2.7-.5,3.5-.5.3-1,.5-1.5.5ZM436.7,847.2c-.5,0-1-.1-1.4-.4-1.1-.8-1.4-2.3-.6-3.5,2.3-3.3,4.6-6.6,7-9.9.8-1.1,2.4-1.3,3.5-.5,1.1.8,1.3,2.4.5,3.5-2.4,3.2-4.7,6.4-6.9,9.7-.5.7-1.3,1.1-2.1,1.1ZM2160.6,845.1c-.9,0-1.7-.5-2.2-1.3-1.9-3.6-3.8-7.2-5.4-10.9-.6-1.3,0-2.7,1.3-3.3,1.3-.6,2.7,0,3.3,1.3,1.6,3.6,3.4,7.1,5.2,10.6.7,1.2.2,2.7-1,3.4-.4.2-.8.3-1.2.3ZM451.1,828c-.6,0-1.1-.2-1.6-.6-1.1-.9-1.2-2.4-.4-3.5,2.5-3.1,5.2-6.2,7.8-9.3.9-1,2.5-1.1,3.5-.2,1,.9,1.1,2.5.2,3.5-2.6,3-5.2,6-7.7,9.1-.5.6-1.2.9-1.9.9ZM2150.8,823.2c-1,0-2-.6-2.4-1.7-1.4-3.8-2.6-7.7-3.7-11.6-.4-1.3.4-2.7,1.7-3.1,1.3-.4,2.7.4,3.1,1.7,1,3.8,2.3,7.6,3.6,11.3.5,1.3-.2,2.7-1.5,3.2-.3.1-.6.1-.8.1ZM466.9,809.9c-.6,0-1.2-.2-1.7-.7-1-.9-1-2.5,0-3.5,2.8-2.9,5.6-5.8,8.5-8.6,1-1,2.6-.9,3.5,0,1,1,.9,2.6,0,3.5-2.8,2.8-5.6,5.6-8.4,8.5-.5.5-1.2.8-1.8.8ZM2144.4,800.1c-1.2,0-2.2-.8-2.5-2-.8-4-1.4-8-1.9-12-.2-1.4.8-2.6,2.2-2.8,1.4-.2,2.6.8,2.8,2.2.5,3.9,1.1,7.8,1.8,11.7.3,1.4-.6,2.7-2,2.9-.2,0-.3,0-.5,0ZM484,793.1c-.7,0-1.4-.3-1.9-.8-.9-1-.8-2.6.2-3.5,3-2.7,6.1-5.3,9.1-7.9,1.1-.9,2.6-.7,3.5.3.9,1.1.7,2.6-.3,3.5-3,2.5-6.1,5.2-9,7.8-.5.4-1.1.6-1.7.6ZM502.5,777.8c-.8,0-1.5-.3-2-1-.8-1.1-.6-2.7.5-3.5,3.2-2.5,6.5-4.9,9.7-7.2,1.1-.8,2.7-.5,3.5.6.8,1.1.5,2.7-.6,3.5-3.2,2.3-6.4,4.6-9.6,7.1-.5.3-1,.5-1.5.5ZM2141.5,776.3c-1.3,0-2.4-1-2.5-2.4-.1-2.4-.2-4.8-.2-7.2v-4.9c0-1.4,1.1-2.5,2.5-2.5s2.5,1.1,2.5,2.5v4.9c0,2.3,0,4.7.2,7,0,1.4-1,2.5-2.4,2.6,0,0,0,0-.1,0ZM522,764c-.8,0-1.6-.4-2.1-1.1-.8-1.2-.4-2.7.7-3.5,3.4-2.2,6.8-4.3,10.3-6.4,1.2-.7,2.7-.3,3.4.9.7,1.2.3,2.7-.9,3.4-3.4,2-6.8,4.1-10.1,6.3-.4.3-.9.4-1.4.4ZM2141.4,752.3c-1.4,0-2.5-1.1-2.5-2.5v-12c0-1.4,1.1-2.5,2.5-2.5s2.5,1.1,2.5,2.5v12c0,1.4-1.1,2.5-2.5,2.5ZM542.6,751.7c-.9,0-1.7-.5-2.2-1.3-.7-1.2-.2-2.7,1-3.4,3.5-1.9,7.1-3.8,10.7-5.5,1.2-.6,2.7-.1,3.3,1.1.6,1.2.1,2.7-1.1,3.3-3.5,1.7-7.1,3.6-10.6,5.5-.4.2-.8.3-1.2.3ZM564.1,741.1c-1,0-1.9-.6-2.3-1.5-.6-1.3,0-2.7,1.3-3.3,3.7-1.6,7.4-3.2,11.1-4.7,1.3-.5,2.7.1,3.2,1.4.5,1.3-.1,2.7-1.4,3.2-3.7,1.5-7.3,3-10.9,4.6-.3.1-.7.2-1,.2ZM586.4,732.3c-1,0-2-.6-2.4-1.7-.5-1.3.2-2.7,1.5-3.2,3.8-1.3,7.7-2.6,11.5-3.8,1.3-.4,2.7.3,3.1,1.7.4,1.3-.3,2.7-1.7,3.1-3.8,1.2-7.6,2.4-11.3,3.7-.3,0-.6.1-.8.1ZM2141.4,728.3c-1.4,0-2.5-1.1-2.5-2.5v-12c0-1.4,1.1-2.5,2.5-2.5s2.5,1.1,2.5,2.5v12c0,1.4-1.1,2.5-2.5,2.5ZM609.3,725.2c-1.1,0-2.1-.7-2.4-1.9-.4-1.3.4-2.7,1.8-3.1,3.9-1,7.8-2,11.8-2.9,1.3-.3,2.7.6,3,1.9.3,1.3-.6,2.7-1.9,3-3.8.9-7.7,1.8-11.6,2.8-.2,0-.4,0-.6,0ZM632.7,720c-1.2,0-2.2-.8-2.5-2.1-.2-1.4.7-2.7,2-2.9,3.9-.7,8-1.4,11.9-1.9,1.4-.2,2.6.8,2.8,2.1.2,1.4-.8,2.6-2.1,2.8-3.9.5-7.9,1.2-11.7,1.9-.2,0-.3,0-.4,0ZM656.5,716.7c-1.3,0-2.4-1-2.5-2.3-.1-1.4.9-2.6,2.2-2.7,4-.4,8.1-.7,12.1-1,1.4-.1,2.6,1,2.6,2.3s-1,2.6-2.3,2.6c-3.9.2-7.9.6-11.9,1,0,0-.2,0-.3,0Z"/>
          <path class="st11" d="M681.1,715.2c-1.4,0-2.5-1.1-2.5-2.5,0-1.4,1.1-2.5,2.5-2.5,2,0,4,0,6,0s2.5,1.1,2.5,2.5-1.1,2.5-2.5,2.5c-2,0-4,0-6,0h0Z"/>
        </g>
      </g>
    </g>
  </g>
</svg>