<?xml version="1.0" encoding="UTF-8"?>
<svg xmlns="http://www.w3.org/2000/svg" version="1.1" xmlns:xlink="http://www.w3.org/1999/xlink" viewBox="0 0 3000 2000">
  <!-- Generator: Adobe Illustrator 29.3.1, SVG Export Plug-In . SVG Version: 2.1.0 Build 151)  -->
  <defs>
    <style>
      .st0 {
        fill: #36649A;
      }

      .st1, .st2, .st3, .st4 {
        opacity: .2;
      }

      .st1, .st2, .st5 {
        fill: #EAF2F0;
      }

      .st6 {
        fill: #F4F2F0;
      }

      .st7 {
        fill: #36649A;
      }

      .st8 {
        fill: none;
      }

      .st9 {
        fill: #F27830;
      }

      .st10 {
        fill: #273B5B;
      }

      .st2, .st3 {
        mix-blend-mode: overlay;
      }

      .st11 {
        fill: #273B5B;
      }

      .st12 {
        fill: #BF5E26;
      }

      .st13 {
        fill: #111827;
	opacity: 0.4;
      }

      .st14 {
        isolation: isolate;
      }

      .st15 {
        fill: #BF5E26;
      }

      .st16 {
        fill: url(#linear-gradient7);
      }

      .st17 {
        fill: #36649A;
      }

      .st18 {
        fill: #36649A;
      }

      .st19 {
        fill: #F27830;
      }

      .st20 {
        fill: #36649A;
      }

      .st21 {
        fill: #F4F2F0;
      }

      .st22 {
        fill: #36649A;
      }

      .st23 {
        fill: #F4F2F0;
      }

      .st24 {
        fill: url(#linear-gradient);
      }
    </style>
    <linearGradient id="linear-gradient" x1="605.5" y1="1305.4" x2="992" y2="1155.4" gradientUnits="userSpaceOnUse">
      <stop offset="0" stop-color="#F27830"/>
      <stop offset="1" stop-color="#F27830"/>
    </linearGradient>
    <linearGradient id="linear-gradient1" x1="502.2" y1="1615.9" x2="1031.8" y2="1259.1" xlink:href="#linear-gradient"/>
    <linearGradient id="linear-gradient2" x1="775.9" y1="1184.5" x2="871.6" y2="1184.5" gradientUnits="userSpaceOnUse">
      <stop offset="0" stop-color="#F27830"/>
      <stop offset="1" stop-color="#F27830"/>
    </linearGradient>
    <linearGradient id="linear-gradient3" x1="778.3" y1="1236.2" x2="829.6" y2="1236.2" xlink:href="#linear-gradient2"/>
    <linearGradient id="linear-gradient4" x1="672" y1="1184.5" x2="767.6" y2="1184.5" xlink:href="#linear-gradient2"/>
    <linearGradient id="linear-gradient5" x1="714" y1="1236.2" x2="765.3" y2="1236.2" xlink:href="#linear-gradient2"/>
    <linearGradient id="linear-gradient6" x1="755.1" y1="1207.9" x2="788" y2="1207.9" gradientUnits="userSpaceOnUse">
      <stop offset="0" stop-color="#c4ebeb"/>
      <stop offset="1" stop-color="#6cc"/>
    </linearGradient>
    <linearGradient id="linear-gradient7" x1="920.7" y1="1670.1" x2="2049.4" y2="544.9" xlink:href="#linear-gradient2"/>
    <linearGradient id="linear-gradient8" x1="1266.3" y1="609.4" x2="1170.6" y2="708.9" gradientUnits="userSpaceOnUse">
      <stop offset="0" stop-color="#2a2a86"/>
      <stop offset="1" stop-color="#171761"/>
    </linearGradient>
    <linearGradient id="linear-gradient9" x1="1769.8" y1="609.4" x2="1674.1" y2="708.9" xlink:href="#linear-gradient8"/>
    <linearGradient id="linear-gradient10" x1="1691.9" y1="624.4" x2="1178" y2="1158.7" xlink:href="#linear-gradient6"/>
    <linearGradient id="linear-gradient11" x1="1203" y1="670.1" x2="1250.3" y2="670.1" xlink:href="#linear-gradient6"/>
    <linearGradient id="linear-gradient12" x1="1711.2" y1="670.1" x2="1758.9" y2="670.1" xlink:href="#linear-gradient6"/>
  </defs>
  <g class="st14">
    <g id="BG">
      <rect class="st8" x="0" width="3000" height="2000"/>
    </g>
    <g id="BG2">
      <g>
        <path class="st13" d="M2653,1603.5h-201.7c-36.7,0-66.4,29.7-66.4,66.4s29.7,66.4,66.4,66.4h201.7c36.7,0,66.4-29.7,66.4-66.4s-29.7-66.4-66.4-66.4Z"/>
        <path class="st13" d="M2277.9,1603.5H617.7c-36.7,0-66.4,29.7-66.4,66.4s29.7,66.4,66.4,66.4h1660.1c36.7,0,66.4-29.7,66.4-66.4s-29.7-66.4-66.4-66.4Z"/>
        <path class="st13" d="M446.7,1603.5h-99.7c-36.7,0-66.4,29.7-66.4,66.4s29.7,66.4,66.4,66.4h99.7c36.7,0,66.4-29.7,66.4-66.4s-29.7-66.4-66.4-66.4Z"/>
      </g>
    </g>
    <g id="Illustration">
      <g class="st4">
        <path class="st21" d="M705.8,642.2h-11.3c-.6,0-1.2-.3-1.6-.8l-12.3-15.5c-.8-1-2.4-1-3.2,0l-12.3,15.5c-.4.5-1,.8-1.6.8h-11.3c-1.7,0-2.6-1.8-1.6-3.1l26.8-33.9c.8-1,2.4-1,3.2,0l26.8,33.9c1,1.3,0,3.1-1.6,3.1Z"/>
        <path class="st21" d="M705.8,677.9h-11.3c-.6,0-1.2-.3-1.6-.8l-12.3-15.5c-.8-1-2.4-1-3.2,0l-12.3,15.5c-.4.5-1,.8-1.6.8h-11.3c-1.7,0-2.6-1.8-1.6-3.1l26.8-33.9c.8-1,2.4-1,3.2,0l26.8,33.9c1,1.3,0,3.1-1.6,3.1Z"/>
        <path class="st21" d="M705.8,606.5h-11.3c-.6,0-1.2-.3-1.6-.8l-12.3-15.5c-.8-1-2.4-1-3.2,0l-12.3,15.5c-.4.5-1,.8-1.6.8h-11.3c-1.7,0-2.6-1.8-1.6-3.1l26.8-33.9c.8-1,2.4-1,3.2,0l26.8,33.9c1,1.3,0,3.1-1.6,3.1Z"/>
        <path class="st21" d="M705.8,570.9h-11.3c-.6,0-1.2-.3-1.6-.8l-12.3-15.5c-.8-1-2.4-1-3.2,0l-12.3,15.5c-.4.5-1,.8-1.6.8h-11.3c-1.7,0-2.6-1.8-1.6-3.1l26.8-33.9c.8-1,2.4-1,3.2,0l26.8,33.9c1,1.3,0,3.1-1.6,3.1Z"/>
      </g>
      <g class="st4">
        <path class="st21" d="M2247.8,1141.6v-11.3c0-.6.3-1.2.8-1.6l15.5-12.3c1-.8,1-2.4,0-3.2l-15.5-12.3c-.5-.4-.8-1-.8-1.6v-11.3c0-1.7,1.8-2.6,3.1-1.6l33.9,26.8c1,.8,1,2.4,0,3.2l-33.9,26.8c-1.3,1-3.1,0-3.1-1.6Z"/>
        <path class="st21" d="M2212.1,1141.6v-11.3c0-.6.3-1.2.8-1.6l15.5-12.3c1-.8,1-2.4,0-3.2l-15.5-12.3c-.5-.4-.8-1-.8-1.6v-11.3c0-1.7,1.8-2.6,3.1-1.6l33.9,26.8c1,.8,1,2.4,0,3.2l-33.9,26.8c-1.3,1-3.1,0-3.1-1.6Z"/>
        <path class="st21" d="M2283.5,1141.6v-11.3c0-.6.3-1.2.8-1.6l15.5-12.3c1-.8,1-2.4,0-3.2l-15.5-12.3c-.5-.4-.8-1-.8-1.6v-11.3c0-1.7,1.8-2.6,3.1-1.6l33.9,26.8c1,.8,1,2.4,0,3.2l-33.9,26.8c-1.3,1-3.1,0-3.1-1.6Z"/>
        <path class="st21" d="M2319.2,1141.6v-11.3c0-.6.3-1.2.8-1.6l15.5-12.3c1-.8,1-2.4,0-3.2l-15.5-12.3c-.5-.4-.8-1-.8-1.6v-11.3c0-1.7,1.8-2.6,3.1-1.6l33.9,26.8c1,.8,1,2.4,0,3.2l-33.9,26.8c-1.3,1-3.1,0-3.1-1.6Z"/>
      </g>
      <g>
        <rect class="st21" x="802.8" y="502.2" width="3.3" height="36.8"/>
        <rect class="st21" x="802.8" y="502.2" width="3.3" height="36.8" transform="translate(283.9 1325) rotate(-90)"/>
      </g>
      <g>
        <rect class="st21" x="1225" y="447.1" width="3.3" height="36.8"/>
        <rect class="st21" x="1225" y="447.1" width="3.3" height="36.8" transform="translate(761.2 1692.1) rotate(-90)"/>
      </g>
      <g>
        <rect class="st21" x="2102.3" y="636.1" width="3.3" height="36.8"/>
        <rect class="st21" x="2102.3" y="636.1" width="3.3" height="36.8" transform="translate(1449.4 2758.4) rotate(-90)"/>
      </g>
      <g>
        <rect class="st24" x="496.7" y="1206.8" width="556.2" height="65.8" rx="14.2" ry="14.2"/>
        <path class="st9" d="M515.5,1272.6h518.7v306c0,13.8-11.2,24.9-24.9,24.9h-468.8c-13.8,0-24.9-11.2-24.9-24.9v-306h0Z"/>
        <g class="st3">
          <rect class="st5" x="765.5" y="1206.8" width="15.1" height="396.7"/>
        </g>
        <rect class="st2" x="515.5" y="1433" width="518.7" height="15.1"/>
        <g class="st3">
          <path class="st7" d="M859.3,1164.6l-8.9-7.2c-3.9-3.1-8.8-4.6-13.7-4-33.4,4.2-64.6,49.4-64.6,49.4l15.9,24c52.3-1.1,71.2-20.4,77.9-35.6,4.1-9.3,1.2-20.2-6.7-26.5ZM786.2,1209.9s23.4-20.8,50.1-26.5c0,0-12.5,19.6-50.1,26.5Z"/>
          <path class="st5" d="M774.6,1212.8s-2.4,36.4,27.5,61.9l-1.9-19.6s10.6,4.4,25.7,6.2c0,0-32.8-23-43.4-52.6l-7.9,4Z"/>
          <path class="st5" d="M670.1,1191.1c6.7,15.2,25.6,34.5,77.9,35.6l15.9-24s-31.2-45.2-64.6-49.4c-4.9-.6-9.8.9-13.7,4l-8.9,7.2c-7.9,6.4-10.8,17.3-6.7,26.5ZM699.7,1183.5c26.8,5.6,50.1,26.5,50.1,26.5-37.7-6.8-50.1-26.5-50.1-26.5Z"/>
          <path class="st5" d="M761.5,1212.8s2.4,36.4-27.5,61.9l1.9-19.6s-10.6,4.4-25.7,6.2c0,0,32.8-23,43.4-52.6l7.9,4Z"/>
          <path class="st5" d="M775.4,1226.7h0c-1.5,0-2.8.5-3.9,1.6h0c-2.2,2.1-5.6,2.1-7.8,0h0c-1-1-2.4-1.6-3.8-1.6h0c-3,0-5.5-2.5-5.4-5.6h0c0-1.5-.5-2.8-1.6-3.9h0c-2.1-2.2-2.1-5.6,0-7.8h0c1-1,1.6-2.4,1.6-3.8h0c0-3,2.5-5.5,5.6-5.4h0c1.5,0,2.8-.5,3.9-1.6h0c2.2-2.1,5.6-2.1,7.8,0h0c1,1,2.4,1.6,3.8,1.6h0c3,0,5.5,2.5,5.4,5.6h0c0,1.5.5,2.8,1.6,3.9h0c2.1,2.2,2.1,5.6,0,7.8h0c-1,1-1.6,2.4-1.6,3.8h0c0,3-2.5,5.5-5.6,5.4Z"/>
        </g>
        <g class="st3">
          <rect class="st5" x="515.5" y="1272.6" width="518.7" height="11.1"/>
        </g>
        <g>
          <path class="st0" d="M863.1,1159.1l-8.9-7.2c-3.9-3.1-8.8-4.6-13.7-4-33.4,4.2-64.6,49.4-64.6,49.4l15.9,24c52.3-1.1,71.2-20.4,77.9-35.6,4.1-9.3,1.2-20.2-6.7-26.5ZM789.9,1204.5s23.4-20.8,50.1-26.5c0,0-12.5,19.6-50.1,26.5Z"/>
          <path class="st20" d="M778.3,1207.3s-2.4,36.4,27.5,61.9l-1.9-19.6s10.6,4.4,25.7,6.2c0,0-32.8-23-43.4-52.6l-7.9,4Z"/>
          <path class="st17" d="M673.8,1185.7c6.7,15.2,25.6,34.5,77.9,35.6l15.9-24s-31.2-45.2-64.6-49.4c-4.9-.6-9.8.9-13.7,4l-8.9,7.2c-7.9,6.4-10.8,17.3-6.7,26.5ZM703.5,1178c26.8,5.6,50.1,26.5,50.1,26.5-37.7-6.8-50.1-26.5-50.1-26.5Z"/>
          <path class="st18" d="M765.3,1207.3s2.4,36.4-27.5,61.9l1.9-19.6s-10.6,4.4-25.7,6.2c0,0,32.8-23,43.4-52.6l7.9,4Z"/>
          <path class="st23" d="M779.2,1221.2h0c-1.5,0-2.8.5-3.9,1.6h0c-2.2,2.1-5.6,2.1-7.8,0h0c-1-1-2.4-1.6-3.8-1.6h0c-3,0-5.5-2.5-5.4-5.6h0c0-1.5-.5-2.8-1.6-3.9h0c-2.1-2.2-2.1-5.6,0-7.8h0c1-1,1.6-2.4,1.6-3.8h0c0-3,2.5-5.5,5.6-5.4h0c1.5,0,2.8-.5,3.9-1.6h0c2.2-2.1,5.6-2.1,7.8,0h0c1,1,2.4,1.6,3.8,1.6h0c3,0,5.5,2.5,5.4,5.6h0c0,1.5.5,2.8,1.6,3.9h0c2.1,2.2,2.1,5.6,0,7.8h0c-1,1-1.6,2.4-1.6,3.8h0c0,3-2.5,5.5-5.6,5.4Z"/>
        </g>
      </g>
      <g>
        <path class="st16" d="M1943.2,534.3h-922.5c-39.8,0-73.1,30.4-76.7,70l-83.7,915.1c-4.1,45.1,31.4,84.1,76.7,84.1h1089.8c45.3,0,80.8-38.9,76.7-84.1l-83.7-915.1c-3.6-39.7-36.9-70-76.7-70Z"/>
        <circle class="st11" cx="1226.6" cy="650.7" r="60.1"/>
        <circle class="st10" cx="1730.1" cy="650.7" r="60.1"/>
        <path class="st6" d="M1711.2,667.7v243.8c0,129.8-107.1,234.3-237.6,230.7-126.1-4-223.3-114-223.3-240.6v-233.9h-47.3v242.4c0,165.4,144.5,297,313.9,275.8,140.5-17.6,242-143.8,242-284.9v-233.2h-47.7Z"/>
        <rect class="st12" x="1203" y="644.6" width="47.3" height="50.9" rx="23.7" ry="23.7"/>
        <g class="st3">
          <path class="st5" d="M1739.5,710.2v190.7c0,141.2-101.6,267.3-242,284.9-169.4,21.3-313.9-110.4-313.9-275.8v-217.5c11,11.4,26,18.3,42.9,18.3s2.9,0,4.4-.4v191.1c0,126.5,97.2,236.5,223.3,240.6,130.6,3.7,237.6-100.8,237.6-230.7v-214.9c10.3,9.2,23.5,14.3,38.1,14.3s6.6-.4,9.5-.7Z"/>
        </g>
        <rect class="st15" x="1711.2" y="644.6" width="47.7" height="50.9" rx="23.7" ry="23.7"/>
      </g>
      <path class="st2" d="M1943.2,534.3c39.8,0,73.1,30.4,76.7,70l83.7,915.1c4.1,45.1-31.4,84.1-76.7,84.1H937c-45.3,0-80.8-38.9-76.7-84.1l83.7-915.1c3.6-39.7,36.9-70,76.7-70h922.5ZM1943.2,521.3h-922.5c-22.5,0-44.1,8.4-60.7,23.5-16.6,15.2-26.9,35.9-29,58.3l-83.7,915.1c-2.3,25.1,6.1,50.3,23.2,68.9,17,18.6,41.3,29.3,66.5,29.3h1089.8c25.2,0,49.5-10.7,66.5-29.3,17-18.6,25.5-43.8,23.2-68.9l-83.7-915.1c-2-22.4-12.3-43.1-29-58.3-16.6-15.2-38.2-23.5-60.7-23.5h0Z"/>
      <g>
        <rect class="st19" x="1702" y="1178.1" width="596.5" height="70.6" rx="15.2" ry="15.2"/>
        <path class="st19" d="M1722.1,1248.6h556.3v328.2c0,14.8-12,26.7-26.7,26.7h-502.8c-14.8,0-26.7-12-26.7-26.7v-328.2h0Z"/>
        <rect class="st2" x="1990.3" y="1178.1" width="16.2" height="425.5"/>
        <rect class="st2" x="1722.1" y="1420.7" width="556.3" height="16.2"/>
        <g class="st3">
          <path class="st1" d="M2090.9,1132.8l-9.5-7.7c-4.1-3.3-9.4-5-14.7-4.3-35.8,4.5-69.3,53-69.3,53l17,25.7c56.1-1.2,76.4-21.9,83.6-38.2,4.4-9.9,1.3-21.6-7.1-28.5ZM2012.4,1181.4s25.1-22.4,53.8-28.4c0,0-13.4,21.1-53.8,28.4Z"/>
          <path class="st1" d="M1999.9,1184.5s-2.6,39.1,29.5,66.4l-2-21s11.3,4.7,27.5,6.7c0,0-35.2-24.7-46.6-56.4l-8.5,4.3Z"/>
          <path class="st1" d="M1887.9,1161.3c7.2,16.3,27.5,37,83.6,38.2l17-25.7s-33.4-48.5-69.3-53c-5.3-.7-10.5,1-14.7,4.3l-9.5,7.7c-8.4,6.8-11.6,18.5-7.1,28.5ZM1919.7,1153.1c28.7,6,53.8,28.4,53.8,28.4-40.4-7.3-53.8-28.4-53.8-28.4Z"/>
          <path class="st1" d="M1985.9,1184.5s2.6,39.1-29.5,66.4l2-21s-11.3,4.7-27.5,6.7c0,0,35.2-24.7,46.6-56.4l8.5,4.3Z"/>
          <path class="st1" d="M2000.9,1199.4h0c-1.6,0-3.1.6-4.2,1.7h0c-2.3,2.3-6.1,2.2-8.3,0h0c-1.1-1.1-2.6-1.7-4.1-1.8h0c-3.3,0-5.9-2.7-5.8-6h0c0-1.6-.6-3.1-1.7-4.2h0c-2.3-2.3-2.2-6.1,0-8.3h0c1.1-1.1,1.7-2.6,1.8-4.1h0c0-3.3,2.7-5.9,6-5.8h0c1.6,0,3.1-.6,4.2-1.7h0c2.3-2.3,6.1-2.2,8.3,0h0c1.1,1.1,2.6,1.7,4.1,1.8h0c3.3,0,5.9,2.7,5.8,6h0c0,1.6.6,3.1,1.7,4.2h0c2.3,2.3,2.2,6.1,0,8.3h0c-1.1,1.1-1.7,2.6-1.8,4.1h0c0,3.3-2.7,5.9-6,5.8Z"/>
        </g>
        <rect class="st2" x="1722.1" y="1248.6" width="556.3" height="11.9"/>
        <g>
          <path class="st22" d="M2094.9,1126.9l-9.5-7.7c-4.1-3.3-9.4-5-14.7-4.3-35.8,4.5-69.3,53-69.3,53l17,25.7c56.1-1.2,76.4-21.9,83.6-38.2,4.4-9.9,1.3-21.6-7.1-28.5ZM2016.4,1175.6s25.1-22.4,53.8-28.4c0,0-13.4,21.1-53.8,28.4Z"/>
          <path class="st22" d="M2004,1178.6s-2.6,39.1,29.5,66.4l-2-21s11.3,4.7,27.5,6.7c0,0-35.2-24.7-46.6-56.4l-8.5,4.3Z"/>
          <path class="st22" d="M1891.9,1155.4c7.2,16.3,27.5,37,83.6,38.2l17-25.7s-33.4-48.5-69.3-53c-5.3-.7-10.5,1-14.7,4.3l-9.5,7.7c-8.4,6.8-11.6,18.5-7.1,28.5ZM1923.8,1147.2c28.7,6,53.8,28.4,53.8,28.4-40.4-7.3-53.8-28.4-53.8-28.4Z"/>
          <path class="st22" d="M1990,1178.6s2.6,39.1-29.5,66.4l2-21s-11.3,4.7-27.5,6.7c0,0,35.2-24.7,46.6-56.4l8.5,4.3Z"/>
          <path class="st21" d="M2004.9,1193.5h0c-1.6,0-3.1.6-4.2,1.7h0c-2.3,2.3-6.1,2.2-8.3,0h0c-1.1-1.1-2.6-1.7-4.1-1.8h0c-3.3,0-5.9-2.7-5.8-6h0c0-1.6-.6-3.1-1.7-4.2h0c-2.3-2.3-2.2-6.1,0-8.3h0c1.1-1.1,1.7-2.6,1.8-4.1h0c0-3.3,2.7-5.9,6-5.8h0c1.6,0,3.1-.6,4.2-1.7h0c2.3-2.3,6.1-2.2,8.3,0h0c1.1,1.1,2.6,1.7,4.1,1.8h0c3.3,0,5.9,2.7,5.8,6h0c0,1.6.6,3.1,1.7,4.2h0c2.3,2.3,2.2,6.1,0,8.3h0c-1.1,1.1-1.7,2.6-1.8,4.1h0c0,3.3-2.7,5.9-6,5.8Z"/>
        </g>
      </g>
      <g class="st4">
        <path class="st21" d="M2180.6,734.2l-40.3,27.1c.4-1.4.5-2.7.4-3.8.1-1.2,0-2.2-.1-3.1-.5-2.6-2.7-4.6-5.4-4.8l-3-.3c-1.3-.1-2.6.3-3.6,1.1-5.7,4.9-6.7,16.1-6.8,19.3-.2,0-.5.1-.7,0-.8-.2-1.5.3-1.7,1.1,0,.2-.2.5-.3.6-3.1-1.1-13.8-4.3-20.4-1-1.2.6-2,1.6-2.4,2.9l-.9,2.9c-.8,2.5.2,5.3,2.4,6.8,1.7,1.1,4.1,1.9,7.2,1.9l-39.7,26.7c-1.7,1.1-2.2,3.5-1,5.2l5.5,8.2c1.2,1.7,3.5,2.2,5.2,1l55.7-37.4,3.3-2.2,56.4-37.9c1.7-1.2,2.2-3.5,1-5.2l-5.5-8.2c-1.2-1.7-3.5-2.2-5.2-1ZM2126.7,769.4c1-2.7,2.9-7,6-10.3-.5,2.2-1.9,6.1-6,10.3ZM2118,775.6c-9.2,4-14.9,1.6-14.9,1.6,6.7-2.7,14.9-1.6,14.9-1.6Z"/>
        <rect class="st21" x="2082.9" y="806.2" width="65.9" height="39.3" transform="translate(-100.8 1321.4) rotate(-33.9)"/>
        <path class="st21" d="M2120.9,892.4c2,3,6.1,3.8,9.1,1.8l49.2-33.1-22.9-34-54.7,36.8,19.2,28.5Z"/>
        <path class="st21" d="M2182.5,858.9l50-33.6c3-2,3.8-6.1,1.8-9.1l-19.2-28.5-55.4,37.3,22.9,34Z"/>
        <rect class="st21" x="2140.8" y="767" width="66.8" height="39.3" transform="translate(-68.9 1347.3) rotate(-33.9)"/>
      </g>
      <g class="st4">
        <path class="st21" d="M890.7,849.9l-83.6-25c2.3-1.1,4.2-2.4,5.7-3.7,1.7-1.2,3.1-2.5,4.2-3.8,3.1-3.6,3.3-9,.5-12.9l-3-4.5c-1.3-2-3.3-3.3-5.7-3.7-13.3-2.2-29.9,9.1-34.6,12.6-.4-.2-.7-.5-.9-.9-.7-1.3-2.2-1.8-3.5-1.1-.4.2-.8.3-1.3.3-2.1-5.6-9.7-24-22-29.5-2.2-1-4.6-.9-6.8,0l-5,2.1c-4.4,1.8-7.2,6.4-6.6,11.1.4,3.6,1.9,7.9,5.7,12.1l-82.4-24.6c-3.5-1-7.3,1-8.3,4.5l-5.1,17c-1.1,3.6,1,7.3,4.5,8.4l115.5,34.5,6.8,2,117,35c3.6,1.1,7.3-1,8.4-4.5l5.1-17c1.1-3.6-1-7.3-4.5-8.3ZM780.3,815.4c4.9-1.7,13.1-4,21.1-3.4-3.6,1.9-10.6,4.3-21.1,3.4ZM761.8,810.3c-16.2-8.2-19.2-18.8-19.2-18.8,11.4,6.2,19.2,18.8,19.2,18.8Z"/>
        <rect class="st21" x="654.3" y="805.6" width="70.6" height="118.3" transform="translate(-336.3 1278) rotate(-73.4)"/>
        <path class="st21" d="M603.1,947.6c-1.9,6.3,1.7,12.8,7.9,14.7l102.1,30.5,21.1-70.5-113.4-33.9-17.7,59.1Z"/>
        <path class="st21" d="M719.9,994.9l103.7,31c6.2,1.9,12.8-1.7,14.7-8l17.7-59.1-115-34.3-21.1,70.5Z"/>
        <rect class="st21" x="775.3" y="840.9" width="70.6" height="120" transform="translate(-284.6 1419.7) rotate(-73.4)"/>
      </g>
      <g class="st4">
        <path class="st21" d="M537,1064.8l-9.1-30.7c.8.5,1.6.8,2.3,1,.7.3,1.4.5,2,.5,1.7.2,3.4-.8,4.1-2.4l.8-1.8c.3-.8.3-1.7,0-2.5-2-4.5-8.8-7.3-10.8-8.1,0-.2,0-.3.1-.5.3-.5,0-1-.4-1.3-.1,0-.2-.2-.3-.3,1.3-1.8,5.4-7.8,4.6-12.7-.1-.9-.6-1.6-1.3-2.1l-1.6-1.1c-1.4-1-3.4-.9-4.7.2-1,.9-2,2.2-2.6,4.2l-9-30.3c-.4-1.3-1.8-2-3.1-1.7l-6.2,1.8c-1.3.4-2.1,1.8-1.7,3.1l12.6,42.4.7,2.5,12.8,42.9c.4,1.3,1.8,2,3.1,1.7l6.2-1.8c1.3-.4,2-1.8,1.7-3.1ZM525.5,1023.9c1.5,1.2,3.8,3.2,5.3,5.8-1.3-.7-3.4-2.4-5.3-5.8ZM523.3,1017.2c-.7-6.6,1.9-9.7,1.9-9.7.4,4.7-1.9,9.7-1.9,9.7Z"/>
        <rect class="st21" x="479.1" y="984.3" width="25.9" height="43.4" transform="translate(-266.2 181.9) rotate(-16.6)"/>
        <path class="st21" d="M449.3,996.1c-2.3.7-3.6,3.1-2.9,5.4l11.1,37.5,25.9-7.7-12.4-41.6-21.7,6.5Z"/>
        <path class="st21" d="M458.2,1041.4l11.3,38c.7,2.3,3.1,3.6,5.4,2.9l21.7-6.5-12.5-42.2-25.9,7.7Z"/>
        <rect class="st21" x="492.3" y="1028.4" width="25.9" height="44" transform="translate(-278.3 187.5) rotate(-16.6)"/>
      </g>
      <g class="st4">
        <path class="st21" d="M2114.4,500.8l-14.7,14.2c0-.6,0-1.1-.1-1.6,0-.5-.1-.9-.3-1.3-.4-1.1-1.5-1.7-2.6-1.6h-1.3c-.5.2-1.1.4-1.4.8-2,2.5-1.6,7.2-1.4,8.5,0,0-.2,0-.3,0-.3,0-.6.3-.6.6,0,.1,0,.2,0,.3-1.4-.2-6-.8-8.5,1.1-.4.3-.7.8-.8,1.4l-.2,1.3c-.1,1.1.5,2.2,1.5,2.6.8.3,1.8.5,3.1.2l-14.5,14c-.6.6-.6,1.6,0,2.2l2.9,3c.6.6,1.6.6,2.2,0l20.3-19.6,1.2-1.2,20.6-19.9c.6-.6.6-1.6,0-2.2l-2.9-3c-.6-.6-1.6-.6-2.2,0ZM2094.7,519.4c.2-1.2.7-3.1,1.7-4.7,0,1-.3,2.6-1.7,4.7ZM2091.5,522.6c-3.5,2.4-6,1.8-6,1.8,2.6-1.6,6-1.8,6-1.8Z"/>
        <rect class="st21" x="2080.5" y="535.3" width="27.7" height="16.6" transform="translate(211.8 1610.3) rotate(-44.1)"/>
        <path class="st21" d="M2101.4,570.8c1.1,1.1,2.8,1.1,3.9,0l17.9-17.4-12-12.4-19.9,19.3,10.1,10.4Z"/>
        <path class="st21" d="M2124.4,552.3l18.2-17.6c1.1-1.1,1.1-2.8,0-3.9l-10.1-10.4-20.2,19.6,12,12.4Z"/>
        <rect class="st21" x="2101.6" y="514.7" width="28.1" height="16.6" transform="translate(232.1 1619.3) rotate(-44.1)"/>
      </g>
      <g class="st4">
        <path class="st21" d="M2281.7,969.9l-25.1-12.7c.8-.2,1.5-.5,2-.9.6-.3,1.1-.6,1.6-1,1.2-1,1.6-2.7.9-4.1l-.7-1.6c-.3-.7-.9-1.2-1.6-1.5-4.1-1.5-10,1.2-11.7,2,0,0-.2-.2-.2-.3-.1-.4-.6-.7-1.1-.5-.1,0-.3,0-.4,0-.3-1.9-1.7-8.2-5.3-10.6-.6-.4-1.4-.6-2.1-.4l-1.7.4c-1.5.3-2.7,1.6-2.7,3.2,0,1.2.2,2.6,1.1,4.2l-24.8-12.6c-1.1-.5-2.4-.1-2.9,1l-2.6,5.1c-.5,1.1-.1,2.4.9,2.9l34.7,17.6,2.1,1,35.2,17.8c1.1.5,2.4.1,2.9-1l2.6-5.1c.5-1.1.1-2.4-1-2.9ZM2248.6,952.5c1.7-.3,4.4-.5,6.9.1-1.3.4-3.6.7-6.9-.1ZM2243.1,949.8c-4.7-3.5-5-7.1-5-7.1,3.3,2.6,5,7.1,5,7.1Z"/>
        <rect class="st21" x="2205.6" y="943.9" width="22.8" height="38.2" transform="translate(355.4 2504.7) rotate(-63.1)"/>
        <path class="st21" d="M2184.7,984.4c-1,1.9-.2,4.2,1.7,5.1l30.7,15.6,10.7-21.2-34.1-17.3-9,17.8Z"/>
        <path class="st21" d="M2219.1,1006.1l31.2,15.8c1.9.9,4.2.2,5.1-1.7l9-17.8-34.6-17.5-10.7,21.2Z"/>
        <rect class="st21" x="2242" y="962.1" width="22.8" height="38.7" transform="translate(358.8 2547.2) rotate(-63.1)"/>
      </g>
      <g class="st4">
        <path class="st21" d="M824.4,575.2l-6.3,27.5c-.4-.7-.9-1.3-1.3-1.8-.4-.5-.9-1-1.3-1.3-1.2-.9-3-.9-4.2,0l-1.4,1.1c-.6.5-1,1.1-1.1,1.9-.4,4.3,3.6,9.4,4.8,10.9,0,.1-.2.2-.3.3-.4.2-.5.8-.3,1.2,0,.1.1.3.1.4-1.8.8-7.5,3.6-9,7.7-.3.7-.2,1.5.1,2.2l.8,1.6c.7,1.4,2.2,2.2,3.7,1.9,1.1-.2,2.5-.8,3.8-2.1l-6.2,27.1c-.3,1.2.5,2.3,1.6,2.6l5.6,1.3c1.2.3,2.3-.5,2.6-1.6l8.7-37.9.5-2.3,8.8-38.5c.3-1.2-.5-2.3-1.6-2.6l-5.6-1.3c-1.2-.3-2.3.5-2.6,1.6ZM815.6,611.5c-.7-1.5-1.6-4.1-1.5-6.7.7,1.1,1.6,3.3,1.5,6.7ZM814.3,617.6c-2.3,5.4-5.7,6.6-5.7,6.6,1.7-3.8,5.7-6.6,5.7-6.6Z"/>
        <rect class="st21" x="814.3" y="628.3" width="38.2" height="22.8" transform="translate(24 1309.4) rotate(-77.1)"/>
        <path class="st21" d="M861.9,665.8c2.1.5,4.1-.8,4.6-2.9l7.7-33.5-23.2-5.3-8.5,37.3,19.4,4.4Z"/>
        <path class="st21" d="M874.7,627.2l7.8-34.1c.5-2-.8-4.1-2.9-4.6l-19.4-4.4-8.6,37.8,23.2,5.3Z"/>
        <rect class="st21" x="823.1" y="588.5" width="38.7" height="22.8" transform="translate(69.8 1287.4) rotate(-77.1)"/>
      </g>
      <g class="st4">
        <path class="st21" d="M1496.3,385.6l-26.8,24c.1-1,0-2,0-2.8,0-.9-.2-1.6-.4-2.3-.6-1.9-2.4-3.1-4.4-3h-2.2c-1,.1-1.9.6-2.5,1.3-3.7,4.2-3.2,12.5-3,14.9-.2,0-.3.1-.5.1-.6,0-1.1.4-1.1,1,0,.2,0,.4-.2.5-2.4-.5-10.5-1.8-15.1,1.4-.8.5-1.3,1.4-1.5,2.4l-.4,2.2c-.3,1.9.7,3.9,2.5,4.7,1.4.6,3.2,1,5.5.6l-26.4,23.7c-1.1,1-1.2,2.8-.2,3.9l4.9,5.4c1,1.1,2.8,1.2,3.9.2l37-33.1,2.2-2,37.5-33.6c1.1-1,1.2-2.8.2-3.9l-4.9-5.4c-1-1.1-2.8-1.2-3.9-.2ZM1460.3,416.9c.4-2.1,1.4-5.4,3.3-8.1-.1,1.7-.8,4.6-3.3,8.1ZM1454.6,422.3c-6.4,3.9-10.7,2.7-10.7,2.7,4.6-2.7,10.7-2.7,10.7-2.7Z"/>
        <rect class="st21" x="1433.7" y="444.9" width="48.8" height="29.1" transform="translate(65.4 1090) rotate(-41.8)"/>
        <path class="st21" d="M1468.6,507.7c1.8,2,4.9,2.2,6.9.4l32.7-29.3-20.2-22.6-36.3,32.5,17,19Z"/>
        <path class="st21" d="M1510.4,476.8l33.2-29.8c2-1.8,2.2-4.9.4-6.9l-17-19-36.8,33,20.2,22.6Z"/>
        <rect class="st21" x="1472.2" y="410.1" width="49.4" height="29.1" transform="translate(98.5 1107) rotate(-41.8)"/>
      </g>
      <path class="st2" d="M2073,1114.8c4.5,0,8.8,1.6,12.4,4.5l9.5,7.7c8.4,6.8,11.6,18.5,7.1,28.5-1.5,3.4-3.6,7-6.5,10.5-2.3,4-5.6,8.2-9.9,12.1h197.6c8.4,0,15.2,6.8,15.2,15.2v40.1c0,8.4-6.8,15.2-15.2,15.2h-4.9v328.2c0,14.8-12,26.7-26.7,26.7h-502.8c-14.8,0-26.7-12-26.7-26.7v-328.2h-4.9c-8.4,0-15.2-6.8-15.2-15.2v-40.1c0-8.4,6.8-15.2,15.2-15.2h183c-6.1-5.5-10-11.4-12.4-16.8-3.9-8.9-1.9-19.1,4.6-26.1,1.6-3.1,3.7-6,6.5-8.3l9.5-7.7c3.5-2.9,7.9-4.5,12.4-4.5.8,0,1.5,0,2.3.1,30.3,3.8,58.8,38.9,66.9,49.7,1-.3,1.9-.7,2.6-1.4,1.1-1.1,2.6-1.7,4.1-1.7,1.5,0,3.1.6,4.2,1.8.7.7,1.6,1.2,2.6,1.4,8-10.6,36.6-46.1,67-49.9.8,0,1.5-.1,2.3-.1h0ZM2073,1101.8h0c-1.3,0-2.6,0-3.9.2-29.2,3.6-55.2,29.7-69.3,46.8-.9-.1-1.9-.2-2.9-.2-.9,0-1.8,0-2.7.2-14.1-17-40.1-43.1-69.3-46.7-1.3-.2-2.6-.2-3.9-.2-7.4,0-14.7,2.6-20.6,7.4l-9.5,7.7c-3.7,3-6.8,6.7-9.1,10.9-8.8,10.5-11.3,24.8-6.4,37.3h-158.2c-15.6,0-28.2,12.7-28.2,28.2v40.1c0,12.7,8.5,23.5,20.1,27h0v316.3c0,21.9,17.8,39.7,39.7,39.7h502.8c21.9,0,39.7-17.8,39.7-39.7v-316.2h0c11.6-3.6,20.1-14.4,20.1-27.1v-40.1c0-15.6-12.7-28.2-28.2-28.2h-171.5c.8-1.4,1.5-2.9,2.2-4.4,6.8-15.2,2.3-33.2-10.9-43.8l-9.5-7.7c-5.8-4.7-13.1-7.3-20.5-7.3h0Z"/>
    </g>
  </g>
</svg>