<?xml version="1.0" encoding="UTF-8" standalone="no"?>
<!-- Created with Inkscape (http://www.inkscape.org/) -->

<svg
   version="1.1"
   id="svg3785"
   width="880"
   height="880"
   viewBox="0 0 880 880"
   sodipodi:docname="quill-old-paper-publicdomainvectors.org.svg"
   inkscape:version="1.2 (dc2aedaf03, 2022-05-15)"
   xmlns:inkscape="http://www.inkscape.org/namespaces/inkscape"
   xmlns:sodipodi="http://sodipodi.sourceforge.net/DTD/sodipodi-0.dtd"
   xmlns="http://www.w3.org/2000/svg"
   xmlns:svg="http://www.w3.org/2000/svg">
  <defs
     id="defs3789">
    <clipPath
       clipPathUnits="userSpaceOnUse"
       id="clipPath3801">
      <path
         d="M 0,660 H 660 V 0 H 0 Z"
         id="path3799" />
    </clipPath>
  </defs>
  <sodipodi:namedview
     id="namedview3787"
     pagecolor="#ffffff"
     bordercolor="#000000"
     borderopacity="0.25"
     inkscape:showpageshadow="2"
     inkscape:pageopacity="0.0"
     inkscape:pagecheckerboard="0"
     inkscape:deskcolor="#d1d1d1"
     showgrid="false"
     inkscape:zoom="0.95113636"
     inkscape:cx="440.52569"
     inkscape:cy="440.52569"
     inkscape:window-width="1920"
     inkscape:window-height="1017"
     inkscape:window-x="-8"
     inkscape:window-y="-8"
     inkscape:window-maximized="1"
     inkscape:current-layer="g3793">
    <inkscape:page
       x="0"
       y="0"
       id="page3791"
       width="880"
       height="880" />
  </sodipodi:namedview>
  <g
     id="g3793"
     inkscape:groupmode="layer"
     inkscape:label="Page 1"
     transform="matrix(1.3333333,0,0,-1.3333333,0,880)">
    <g
       id="g3795">
      <g
         id="g3797"
         clip-path="url(#clipPath3801)">
        <g
           id="g3803"
           transform="translate(395.6387,206.5977)">
          <path
             d="m 0,0 c 124.233,0 225.558,19.323 225.558,43.014 0,23.69 -101.325,43.01 -225.558,43.01 -124.232,0 -225.556,-19.32 -225.556,-43.01 C -225.556,19.323 -124.232,0 0,0"
             style="fill:#F27830;fill-opacity:1;fill-rule:evenodd;stroke:none"
             id="path3805" />
        </g>
        <g
           id="g3807"
           transform="translate(395.6387,292.6221)">
          <path
             d="m 0,0 c 82.882,0 155.308,-8.526 194.513,-21.227 -6.384,-22.666 -104.772,-40.671 -225.22,-40.671 -82.882,0 -155.308,8.526 -194.513,21.23 C -218.836,-18.003 -120.448,0 0,0"
             style="fill:#F27830;fill-opacity:1;fill-rule:evenodd;stroke:none"
             id="path3809" />
        </g>
        <g
           id="g3811"
           transform="translate(571.7598,272.9346)">
          <path
             d="M 0,0 C 21.468,-2.97 35.502,8.933 34.545,50.814 -1.219,47.83 -36.984,44.844 -72.749,41.858 -57.517,29.856 -42.285,17.853 -27.054,5.851 -18.034,3.901 -9.018,1.952 0,0"
             style="fill:#ccccaf;fill-opacity:1;fill-rule:evenodd;stroke:none"
             id="path3813" />
        </g>
        <g
           id="g3815"
           transform="translate(565.1797,365.0596)">
          <path
             d="m 0,0 c 19.496,3.533 29.854,-54.714 10.235,-65.803 -23.641,-2.437 -47.281,-4.874 -70.921,-7.311 7.312,14.379 12.43,41.553 19.741,55.931 C -27.298,-11.455 -13.649,-5.728 0,0"
             style="fill:#abab87;fill-opacity:1;fill-rule:evenodd;stroke:none"
             id="path3817" />
        </g>
        <g
           id="g3819"
           transform="translate(565.1797,365.0596)">
          <path
             d="m 0,0 c 0.42,0.076 0.835,0.122 1.248,0.152 -16.06,-15.596 -14.301,-49.324 -4.342,-67.331 l -57.592,-5.935 c 7.312,14.379 12.43,41.553 19.741,55.931 C -27.298,-11.455 -13.649,-5.728 0,0"
             style="fill:#a1a17a;fill-opacity:1;fill-rule:evenodd;stroke:none"
             id="path3821" />
        </g>
        <g
           id="g3823"
           transform="translate(571.7598,272.9346)">
          <path
             d="M 0,0 C -30.173,7.145 -37.12,77.156 -6.58,92.125 -96.249,57.09 -189.875,48.154 -287.34,64.488 -290.264,44.107 -293.188,23.727 -296.113,3.351 -203.123,9.938 -106.766,11.983 0,0"
             style="fill:#bfbfa0;fill-opacity:1;fill-rule:evenodd;stroke:none"
             id="path3825" />
        </g>
        <g
           id="g3827"
           transform="translate(466.4863,337.2773)">
          <path
             d="m 0,0 c -43.98,-7.746 -88.843,-9.657 -134.579,-5.831 -0.454,-3.111 -0.693,-6.29 -0.693,-9.524 0,-15.768 5.591,-30.259 14.942,-41.694 35.135,1.373 70.97,1.804 107.859,0.814 8.954,11.304 14.286,25.483 14.286,40.88 C 1.815,-10.071 1.187,-4.932 0,0"
             style="fill:#b0b090;fill-opacity:1;fill-rule:evenodd;stroke:none"
             id="path3829" />
        </g>
        <g
           id="g3831"
           transform="translate(309.9658,231.4873)">
          <path
             d="m 0,0 c 52.068,8.533 96.357,29.484 133.801,61.413 22.851,23.194 23.983,68.584 -5.074,68.138 C 66.457,123.58 4.189,117.608 -58.082,111.638 -54.199,97.441 -54.073,85.594 -65.803,81.155 -113.791,56.056 -174.232,46.732 -236.889,40.211 -173.035,27.782 -109.182,15.354 -45.329,2.924 l 27.926,-2.946 z"
             style="fill:#ccccaf;fill-opacity:1;fill-rule:evenodd;stroke:none"
             id="path3833" />
        </g>
        <g
           id="g3835"
           transform="translate(428.4561,313.1484)">
          <path
             d="m 0,0 c -73.357,12.434 -134.692,19.049 -210.975,13.934 -9.26,19.497 1.614,29.777 16.126,32.494 72.163,13.513 144.947,7.299 205.085,1.462 C -17.227,41.718 -23.234,7.515 0,0"
             style="fill:#e6e6cf;fill-opacity:1;fill-rule:evenodd;stroke:none"
             id="path3837" />
        </g>
        <g
           id="g3839"
           transform="translate(307.7725,297.2891)">
          <path
             d="m 0,0 c -53.239,-7.073 -29.549,-66.547 2.193,-65.802 -84.687,-6.566 -166.823,2.178 -245.662,30.707 -38.117,13.795 -35.095,54.835 0,59.223 C -161.362,3.755 -80.153,-4.974 0,0"
             style="fill:#e6e6cf;fill-opacity:1;fill-rule:evenodd;stroke:none"
             id="path3841" />
        </g>
        <g
           id="g3843"
           transform="translate(487.999,284.4443)">
          <path
             d="m 0,0 c 19.583,-7.671 33.451,-26.731 33.451,-49.034 0,-3.401 -0.326,-6.726 -0.943,-9.949 -13.886,-7.924 -31.949,-12.716 -51.699,-12.716 -19.75,0 -37.815,4.792 -51.7,12.716 -0.617,3.223 -0.943,6.548 -0.943,9.949 0,22.988 14.736,42.532 35.278,49.708 V 8.178 L 0,8.178 Z"
             style="fill:#36649A;fill-opacity:1;fill-rule:evenodd;stroke:none"
             id="path3845" />
        </g>
        <g
           id="g3847"
           transform="translate(487.999,284.4443)">
          <path
             d="m 0,0 c 19.583,-7.671 33.451,-26.731 33.451,-49.034 0,-3.401 -0.326,-6.726 -0.943,-9.949 -13.886,-7.924 -31.949,-12.716 -51.699,-12.716 -10.553,0 -20.622,1.368 -29.83,3.85 19.125,-1.119 35.525,3.697 48.155,13.374 9.03,6.924 15.19,22.66 4.201,31.806 -17.869,14.878 -38.244,15.756 -54.179,15.697 4.298,3.24 9.108,5.837 14.288,7.646 V 8.178 L 0,8.178 Z"
             style="fill:#36649A;fill-opacity:1;fill-rule:evenodd;stroke:none"
             id="path3849" />
        </g>
        <g
           id="g3851"
           transform="translate(469.7217,286.5918)">
          <path
             d="m 0,0 c 10.066,0 18.277,2.708 18.277,6.03 0,3.323 -8.211,6.034 -18.277,6.034 -10.069,0 -18.278,-2.711 -18.278,-6.034 C -18.278,2.708 -10.069,0 0,0"
             style="fill:#9c6630;fill-opacity:1;fill-rule:evenodd;stroke:none"
             id="path3853" />
        </g>
        <g
           id="g3855"
           transform="translate(469.7217,289.5596)">
          <path
             d="M 0,0 C 6.747,0 12.25,1.376 12.25,3.063 12.25,4.75 6.747,6.124 0,6.124 -6.748,6.124 -12.251,4.75 -12.251,3.063 -12.251,1.376 -6.748,0 0,0"
             style="fill:#42280d;fill-opacity:1;fill-rule:evenodd;stroke:none"
             id="path3857" />
        </g>
        <g
           id="g3859"
           transform="translate(468.8486,304.71)">
          <path
             d="m 0,0 c -0.91,3.184 -1,4.08 -1.462,7.311 -15.175,17.502 -16.557,40.917 -17.915,64.34 3.414,-0.121 5.912,-6.092 9.324,-6.215 -3.486,19.499 -1.818,44.845 6.398,64.342 1.153,-2.928 2.865,-5.36 5.117,-7.312 -5.179,26.199 9.017,33.388 13.526,50.084 -0.289,-4.119 -0.077,-7.459 0.731,-9.871 8.286,21.812 20.227,23.152 30.343,34.729 0.975,-3.168 1.95,-6.337 2.925,-9.505 4.817,10.24 11.876,16.447 21.568,17.913 1.502,-11.631 -2.109,-21.028 -8.408,-29.245 2.802,0.243 5.605,0.487 8.408,0.731 -8.53,-12.918 -8.927,-32.597 -25.589,-38.75 3.653,0.486 7.311,0.974 10.967,1.462 -7.923,-13.161 -6.705,-30.343 -23.398,-42.773 2.924,0.244 6.582,1.95 8.409,4.023 -2.456,-21.938 -9.73,-42.77 -21.935,-53.009 3.899,-0.121 8.622,2.042 11.333,4.753 C 26.806,25.646 13.013,13.397 0,0"
             style="fill:#F27830;fill-opacity:1;fill-rule:evenodd;stroke:none"
             id="path3861" />
        </g>
        <g
           id="g3863"
           transform="translate(524.3955,444.0674)">
          <path
             d="m 0,0 c -6.499,-11.326 -6.687,-25.465 -17.301,-36.991 l -19.832,-10.198 10.029,32.313 z"
             style="fill:#F27830;fill-opacity:1;fill-rule:evenodd;stroke:none"
             id="path3865" />
        </g>
        <g
           id="g3867"
           transform="translate(466.6689,431.4951)">
          <path
             d="M 0,0 C 0.992,-1.637 2.207,-3.075 3.642,-4.319 0.753,10.296 3.894,18.994 8.017,26.727 l 18.408,-42.271 -8.499,-22.77 z"
             style="fill:#F27830;fill-opacity:1;fill-rule:evenodd;stroke:none"
             id="path3869" />
        </g>
        <g
           id="g3871"
           transform="translate(476.3291,461.1924)">
          <path
             d="M 0,0 C 2.848,5.018 5.841,9.892 7.508,16.067 7.219,11.949 7.431,8.608 8.238,6.196 9.661,9.94 11.19,13.081 12.8,15.773 l 13.835,-31.769 -8.499,-22.769 z"
             style="fill:#F27830;fill-opacity:1;fill-rule:evenodd;stroke:none"
             id="path3873" />
        </g>
        <g
           id="g3875"
           transform="translate(456.1641,266.8828)">
          <path
             d="M 0,0 C 8.775,-4.651 10.949,-13.851 7.419,-22.701 2.091,-32.967 -6.94,-37.229 -18.252,-37.373 c -9.682,0.183 -18.327,7.772 -16.413,18.011 2.918,14.677 11.759,24.229 27.539,21.544 C -4.44,1.726 -2.486,1.105 0,0"
             style="fill:#36649A;fill-opacity:1;fill-rule:evenodd;stroke:none"
             id="path3877" />
        </g>
        <g
           id="g3879"
           transform="translate(465.1836,289.7783)">
          <path
             d="M 0,0 C 9.052,79.652 26.398,145.736 56.901,190.293 25.109,135.683 11.943,70.033 6.481,-0.18 5.294,-0.172 4.107,-0.168 2.92,-0.159 1.945,-0.106 0.973,-0.054 0,0"
             style="fill:#e6e6cf;fill-opacity:1;fill-rule:evenodd;stroke:none"
             id="path3881" />
        </g>
      </g>
    </g>
  </g>
</svg>
